{
.formatVersion = 3;
axes = (
{
name = Weight;
tag = wght;
}
);
classes = (
{
code = "A O Scedilla Tcedilla a j o scedilla tcedilla one two three";
name = aalt;
},
{
code = "ordfeminine ordmasculine Scommaaccent Tcommaaccent ordfeminine dotlessj ordmasculine scommaaccent tcommaaccent onesuperior twosuperior threesuperior";
name = aalt2;
},
{
code = "gravecomb acutecomb circumflexcomb tildecomb macroncomb brevecomb dotaccentcomb dieresiscomb ringcomb hungarumlautcomb caroncomb commaturnedabovecomb";
name = ccmp_mkmk;
},
{
code = "Lslash Zcaron A B C D E F G H I J K L M N O P Q R S T U V W X Y Z Scaron OE Ydieresis Agrave Aacute Acircumflex Atilde Adieresis Aring AE Ccedilla Egrave Eacute Ecircumflex Edieresis Igrave Iacute Icircumflex Idieresis Eth Ntilde Ograve Oacute Ocircumflex Otilde Odieresis Oslash Ugrave Uacute Ucircumflex Udieresis Yacute Thorn Amacron Aogonek Ccaron Cacute Zacute Dcaron Emacron Edotaccent Ecaron Eogonek Iogonek Imacron Lcaron Lacute Nacute Ncaron Ohungarumlaut Omacron Racute Rcaron Sacute Tcaron Umacron Uring Uhungarumlaut Uogonek Zdotaccent Omega Dcroat Delta Abreve Tcommaaccent Gbreve Idotaccent Scedilla Cdotaccent Gdotaccent Hbar Eng Tcedilla Tbar Wcircumflex Ycircumflex Wgrave Wacute Wdieresis Ygrave Gcommaaccent Kcommaaccent Lcommaaccent Ncommaaccent Rcommaaccent Scommaaccent Acaron Icaron Ocaron Ucaron";
name = cpsp;
},
{
code = "commaaccentcomb cedillacomb dotbelowcomb";
name = mkmk;
},
{
code = "zero one two three four five six seven eight nine";
name = ordn;
}
);
familyName = "Agora VF";
customParameters = (
{
name = glyphOrder;
value = (
.notdef,
A,
AE,
AEacute,
Aacute,
Abreve,
Acaron,
Acircumflex,
Adblgrave,
Adieresis,
Agrave,
Ainvertedbreve,
Amacron,
Aogonek,
Aring,
Aringacute,
Atilde,
B,
C,
Cacute,
Ccaron,
Ccedilla,
Ccedillaacutecomb,
Ccircumflex,
Cdotaccent,
D,
DZ,
DZcaron,
Dcaron,
Dcroat,
Ddotbelow,
Delta,
Dlinebelow,
E,
Eacute,
Ebreve,
Ecaron,
Ecedilla,
Ecedillabreve,
Ecircumflex,
Edblgrave,
Edieresis,
Edotaccent,
Egrave,

glyphs = (
{
glyphname = .notdef;
layers = (
{
layerId = "067991BB-F7E6-4D77-8E89-F1D1828DD7C4";
shapes = (
{
closed = 1;
nodes = (
(118,0,l),
(483,0,l),
(483,750,l),
(118,750,l)
);
},
{
closed = 1;
nodes = (
(138,20,l),
(138,730,l),
(463,730,l),
(463,20,l)
);
}
);
width = 600;
},
{
layerId = "8D1CD495-8E12-4F42-9971-C31B25734418";
shapes = (
{
closed = 1;
nodes = (
(99,0,l),
(505,0,l),
(505,750,l),
(99,750,l)
);
},
{
closed = 1;
nodes = (
(159,60,l),
(159,690,l),
(445,690,l),
(445,60,l)
);
}
);
width = 604;
},
{
layerId = "EE06C6DC-CF8C-4948-A893-3A90CCE35999";
shapes = (
{
closed = 1;
nodes = (
(86,0,l),
(570,0,l),
(570,750,l),
(86,750,l)
);
},
{
closed = 1;
nodes = (
(224,138,l),
(224,613,l),
(433,613,l),
(433,138,l)
);
}
);
width = 656;
}
);
},
{
glyphname = A;
layers = (
{
anchors = (
{
name = b.uni0326;
position = "{272, 0}";
},
{
name = b.uni0328_1;
position = "{612, 0}";
},
{
name = t.uni0308_2;
position = "{272, 690}";
},
{
name = m.uni0335_3;
position = "{-53, 0}";
}
);
layerId = "D1832D54-307F-4077-BFA3-B4D1D022CEF5";
name = "#instance";
shapes = (
{
closed = 1;
nodes = (
(425.6,0,l),
(600.2,0,l),
(478,690,l),
(297,690,l),
(-70,0,l),
(105.2,0,l),
(166.6,125.4,l),
(410,125.4,l)
);
},
{
closed = 1;
nodes = (
(231.8,260.2,l),
(356.8,516.4,l),
(392.6,260.2,l)
);
}
);
width = 637;
},
{
anchors = (
{
name = b.uni0326;
position = "{224, 0}";
},
{
name = b.uni0328_1;
position = "{485, 0}";
},
{
name = t.uni0308_2;
position = "{224, 690}";
},
{
name = m.uni0335_3;
position = "{-53, 0}";
}
);
layerId = "067991BB-F7E6-4D77-8E89-F1D1828DD7C4";
shapes = (
{
closed = 1;
nodes = (
(451,0,l),
(473,0,l),
(351,690,l),
(328,690,l),
(-38,0,l),
(-15,0,l),
(80,177,l),
(419,177,l)
);
},
{
closed = 1;
nodes = (
(90,198,l),
(334,663,l),
(416,198,l)
);
}
);
width = 542;
},
{
anchors = (
{
name = b.uni0326;
position = "{240, 0}";
},
{
name = b.uni0328_1;
position = "{533, 0}";
},
{
name = t.uni0308_2;
position = "{240, 690}";
},
{
name = m.uni0335_3;
position = "{-53, 0}";
}
);
layerId = "8D1CD495-8E12-4F42-9971-C31B25734418";
shapes = (
{
closed = 1;
nodes = (
(436,0,l),
(521,0,l),
(398,690,l),
(313,690,l),
(-54,0,l),
(30,0,l),
(113,159,l),
(410,159,l)
);
},
{
closed = 1;
nodes = (
(151,233,l),
(340,598,l),
(399,233,l)
);
}
);
width = 573;
},
{
anchors = (
{
name = b.uni0326;
position = "{280, 0}";
},
{
name = b.uni0328_1;
position = "{632, 0}";
},
{
name = t.uni0308_2;
position = "{280, 690}";
},
{
name = m.uni0335_3;
position = "{-53, 0}";
}
);
layerId = "EE06C6DC-CF8C-4948-A893-3A90CCE35999";
shapes = (
{
closed = 1;
nodes = (
(423,0,l),
(620,0,l),
(498,690,l),
(293,690,l),
(-74,0,l),
(124,0,l),
(180,117,l),
(410,117,l)
);
},
{
closed = 1;
nodes = (
(252,267,l),
(361,496,l),
(391,267,l)
);
}
);
width = 653;
}
);
unicode = 65;
},
{
glyphname = AE;
layers = (
{
layerId = "067991BB-F7E6-4D77-8E89-F1D1828DD7C4";
shapes = (
{
closed = 1;
nodes = (
(745,670,l),
(749,690,l),
(355,690,l),
(-38,0,l),
(-14,0,l),
(86,178,l),
(315,178,l),
(284,0,l),
(627,0,l),
(631,20,l),
(307,20,l),
(363,335,l),
(650,335,l),
(653,355,l),
(366,355,l),
(422,670,l)
);
},
{
closed = 1;
nodes = (
(98,198,l),
(368,671,l),
(402,671,l),
(319,198,l)
);
}
);
width = 751;
},
{
layerId = "8D1CD495-8E12-4F42-9971-C31B25734418";
shapes = (
{
closed = 1;
nodes = (
(792,612,l),
(806,690,l),
(339,690,l),
(-54,0,l),
(34,0,l),
(125,163,l),
(341,163,l),
(313,0,l),
(684,0,l),
(698,78,l),
(403,78,l),
(443,307,l),
(700,307,l),
(713,383,l),
(457,383,l),
(497,612,l)
);
},
{
closed = 1;
nodes = (
(166,237,l),
(382,623,l),
(422,623,l),
(354,237,l)
);
}
);
width = 799;
},
{
layerId = "EE06C6DC-CF8C-4948-A893-3A90CCE35999";
shapes = (
{
closed = 1;
nodes = (
(893,534,l),
(921,690,l),
(319,690,l),
(-74,0,l),
(131,0,l),
(205,135,l),
(401,135,l),
(377,0,l),
(799,0,l),
(827,156,l),
(581,156,l),
(602,278,l),
(810,278,l),
(834,412,l),
(626,412,l),
(647,534,l)
);
},
{
closed = 1;
nodes = (
(278,273,l),
(417,533,l),
(471,533,l),
(425,273,l)
);
}
);
width = 885;
}
);
unicode = 198;
},
{
glyphname = Aogonek;
layers = (
{
layerId = "067991BB-F7E6-4D77-8E89-F1D1828DD7C4";
shapes = (
{
closed = 1;
nodes = (
(505,-185,l),
(475,-208,o),
(453,-220,o),
(417,-220,cs),
(372,-220,o),
(355,-190,o),
(362,-148,cs),
(373,-85,o),
(429,-38,o),
(473,0,c),
(351,690,l),
(328,690,l),
(-38,0,l),
(-15,0,l),
(80,177,l),
(419,177,l),
(451,1,l),
(451,1,l),
(404,-44,o),
(356,-86,o),
(345,-148,cs),
(335,-204,o),
(357,-239,o),
(413,-239,cs),
(452,-239,o),
(479,-227,o),
(511,-200,c)
);
},
{
closed = 1;
nodes = (
(90,198,l),
(334,663,l),
(416,198,l)
);
}
);
width = 547;
},
{
layerId = "8D1CD495-8E12-4F42-9971-C31B25734418";
shapes = (
{
closed = 1;
nodes = (
(524,-153,l),
(498,-182,o),
(466,-197,o),
(433,-197,cs),
(393,-197,o),
(378,-171,o),
(384,-135,cs),
(395,-73,o),
(454,-36,o),
(521,0,c),
(398,690,l),
(313,690,l),
(-54,0,l),
(30,0,l),
(113,159,l),
(410,159,l),
(436,0,l),
(460,0,l),
(393,-39,o),
(341,-82,o),
(330,-142,cs),
(320,-200,o),
(353,-236,o),
(414,-238,cs),
(459,-240,o),
(504,-225,o),
(544,-191,c)
);
},
{
closed = 1;
nodes = (
(151,233,l),
(340,598,l),
(399,233,l)
);
}
);
width = 577;
},
{
layerId = "EE06C6DC-CF8C-4948-A893-3A90CCE35999";
shapes = (
{
closed = 1;
nodes = (
(600,-99,l),
(579,-132,o),
(549,-153,o),
(521,-153,cs),
(495,-153,o),
(480,-135,o),
(487,-96,cs),
(495,-50,o),
(543,-32,o),
(620,0,c),
(498,690,l),
(293,690,l),
(-74,0,l),
(124,0,l),
(180,117,l),
(410,117,l),
(423,0,l),
(479,0,l),
(429,-22,o),
(388,-57,o),
(378,-112,cs),
(367,-174,o),
(399,-230,o),
(478,-237,cs),
(529,-242,o),
(594,-218,o),
(641,-176,c)
);
},
{
closed = 1;
nodes = (
(252,267,l),
(361,496,l),
(391,267,l)
);
}
);
width = 657;
}
);
unicode = 260;
},
{
glyphname = Aring;
layers = (
{
layerId = "067991BB-F7E6-4D77-8E89-F1D1828DD7C4";
shapes = (
{
closed = 1;
nodes = (
(451,0,l),
(473,0,l),
(353,676,l),
(389,683,o),
(420,714,o),
(427,752,cs),
(435,796,o),
(408,830,o),
(365,830,cs),
(323,830,o),
(282,796,o),
(274,752,cs),
(267,715,o),
(289,684,o),
(321,676,c),
(-38,0,l),
(-15,0,l),
(80,177,l),
(419,177,l)
);
},
{
closed = 1;
nodes = (
(301,788,o),
(331,812,o),
(363,811,cs),
(395,810,o),
(414,784,o),
(407,750,cs),
(400,718,o),
(371,693,o),
(340,694,cs),
(308,695,o),
(286,722,o),
(294,754,c)
);
},
{
closed = 1;
nodes = (
(90,198,l),
(334,663,l),
(416,198,l)
);
}
);
width = 542;
},
{
layerId = "8D1CD495-8E12-4F42-9971-C31B25734418";
shapes = (
{
closed = 1;
nodes = (
(436,0,l),
(521,0,l),
(403,666,l),
(432,683,o),
(454,713,o),
(460,748,cs),
(469,800,o),
(436,844,o),
(384,844,cs),
(332,844,o),
(281,800,o),
(272,748,cs),
(266,715,o),
(278,684,o),
(301,668,c),
(-54,0,l),
(30,0,l),
(113,159,l),
(410,159,l)
);
},
{
closed = 1;
nodes = (
(406,804,o),
(426,779,o),
(421,748,cs),
(415,715,o),
(386,691,o),
(357,691,cs),
(326,691,o),
(307,715,o),
(313,748,cs),
(318,779,o),
(346,804,o),
(377,804,cs)
);
},
{
closed = 1;
nodes = (
(151,233,l),
(340,598,l),
(399,233,l)
);
}
);
width = 573;
},
{
layerId = "EE06C6DC-CF8C-4948-A893-3A90CCE35999";
shapes = (
{
closed = 1;
nodes = (
(423,0,l),
(620,0,l),
(500,674,l),
(517,693,o),
(526,716,o),
(531,742,cs),
(542,806,o),
(501,860,o),
(436,860,cs),
(372,860,o),
(310,806,o),
(299,742,cs),
(297,733,o),
(300,691,o),
(294,693,c),
(-74,0,l),
(124,0,l),
(180,117,l),
(410,117,l)
);
},
{
closed = 1;
nodes = (
(453,793,o),
(471,768,o),
(466,742,cs),
(461,711,o),
(435,691,o),
(407,691,cs),
(379,691,o),
(364,711,o),
(369,742,cs),
(374,768,o),
(397,793,o),
(425,793,cs)
);
},
{
closed = 1;
nodes = (
(252,267,l),
(361,496,l),
(391,267,l)
);
}
);
width = 653;
}
);
unicode = 197;
},
{
glyphname = B;
layers = (
{
layerId = "067991BB-F7E6-4D77-8E89-F1D1828DD7C4";
shapes = (
{
closed = 1;
nodes = (
(452,375,o),
(508,439,o),
(521,513,cs),
(538,611,o),
(475,690,o),
(378,690,cs),
(160,690,l),
(38,0,l),
(278,0,ls),
(375,0,o),
(467,81,o),
(484,177,cs),
(498,259,o),
(455,329,o),
(384,348,c)
);
},
{
closed = 1;
nodes = (
(487,426,o),
(405,355,o),
(319,355,cs),
(121,355,l),
(177,670,l),
(375,670,ls),
(461,670,o),
(517,599,o),
(502,513,cs)
);
},
{
closed = 1;
nodes = (
(62,20,l),
(118,335,l),
(337,335,ls),
(422,335,o),
(480,265,o),
(464,177,cs),
(449,91,o),
(367,20,o),
(282,20,cs)
);
}
);
width = 569;
},
{
layerId = "8D1CD495-8E12-4F42-9971-C31B25734418";
shapes = (
{
closed = 1;
nodes = (
(486,377,o),
(536,432,o),
(549,506,cs),
(568,614,o),
(496,690,o),
(393,690,cs),
(144,690,l),
(23,0,l),
(295,0,ls),
(398,0,o),
(493,74,o),
(512,182,cs),
(527,266,o),
(488,325,o),
(422,350,c)
);
},
{
closed = 1;
nodes = (
(458,433,o),
(396,383,o),
(330,383,cs),
(166,383,l),
(206,612,l),
(371,612,ls),
(437,612,o),
(482,565,o),
(470,499,cs)
);
},
{
closed = 1;
nodes = (
(112,78,l),
(152,307,l),
(339,307,ls),
(403,307,o),
(449,257,o),
(437,191,cs),
(425,125,o),
(363,78,o),
(299,78,cs)
);
}
);
width = 581;
},
{
layerId = "EE06C6DC-CF8C-4948-A893-3A90CCE35999";
shapes = (
{
closed = 1;
nodes = (
(557,377,o),
(593,422,o),
(606,495,cs),
(628,622,o),
(548,690,o),
(430,690,cs),
(124,690,l),
(3,0,l),
(335,0,ls),
(452,0,o),
(552,63,o),
(575,192,cs),
(590,275,o),
(560,324,o),
(507,351,c)
);
},
{
closed = 1;
nodes = (
(414,446,o),
(387,419,o),
(359,419,cs),
(260,419,l),
(279,528,l),
(378,528,ls),
(406,528,o),
(424,501,o),
(419,473,cs)
);
},
{
closed = 1;
nodes = (
(214,162,l),
(234,271,l),
(354,271,ls),
(385,271,o),
(402,244,o),
(397,217,cs),
(392,189,o),
(366,162,o),
(335,162,cs)
);
}
);
width = 615;
}
);
leftKerningGroup = public.kern2.B;
unicode = 66;
},
{
glyphname = C;
layers = (
{
anchors = (
{
name = b.uni0326;
position = "{377, 0}";
},
{
name = b.uni0328_1;
position = "{-53, 0}";
},
{
name = t.uni0308_2;
position = "{377, 690}";
},
{
name = m.uni0335_3;
position = "{-53, 0}";
}
);
layerId = "067991BB-F7E6-4D77-8E89-F1D1828DD7C4";
shapes = (
{
closed = 1;
nodes = (
(489,-9,o),
(613,61,o),
(691,166,c),
(676,176,l),
(602,78,o),
(486,11,o),
(364,11,cs),
(184,11,o),
(63,160,o),
(96,345,cs),
(129,530,o),
(302,679,o),
(482,679,cs),
(604,679,o),
(697,613,o),
(736,514,c),
(754,524,l),
(713,629,o),
(613,699,o),
(485,699,cs),
(294,699,o),
(111,541,o),
(76,345,cs),
(42,150,o),
(170,-9,o),
(361,-9,cs)
);
}
);
width = 765;
},
{
anchors = (
{
name = b.uni0326;
position = "{356, 0}";
},
{
name = b.uni0328_1;
position = "{-53, 0}";
},
{
name = t.uni0308_2;
position = "{356, 690}";
},
{
name = m.uni0335_3;
position = "{-53, 0}";
}
);
layerId = "8D1CD495-8E12-4F42-9971-C31B25734418";
shapes = (
{
closed = 1;
nodes = (
(472,-9,o),
(599,63,o),
(677,171,c),
(618,209,l),
(557,125,o),
(459,69,o),
(357,69,cs),
(207,69,o),
(108,192,o),
(135,345,cs),
(162,498,o),
(304,621,o),
(454,621,cs),
(556,621,o),
(635,565,o),
(666,481,c),
(738,519,l),
(698,627,o),
(597,699,o),
(468,699,cs),
(276,699,o),
(93,541,o),
(58,345,cs),
(24,150,o),
(151,-9,o),
(343,-9,cs)
);
}
);
width = 734;
},
{
anchors = (
{
name = b.uni0326;
position = "{339, 0}";
},
{
name = b.uni0328_1;
position = "{-53, 0}";
},
{
name = t.uni0308_2;
position = "{339, 690}";
},
{
name = m.uni0335_3;
position = "{-53, 0}";
}
);
layerId = "EE06C6DC-CF8C-4948-A893-3A90CCE35999";
shapes = (
{
closed = 1;
nodes = (
(461,-9,o),
(593,70,o),
(670,186,c),
(527,267,l),
(490,210,o),
(428,174,o),
(358,174,cs),
(262,174,o),
(203,246,o),
(220,345,cs),
(237,444,o),
(323,516,o),
(419,516,cs),
(489,516,o),
(537,480,o),
(554,423,c),
(726,504,l),
(690,620,o),
(586,699,o),
(451,699,cs),
(259,699,o),
(77,541,o),
(42,345,cs),
(8,150,o),
(134,-9,o),
(326,-9,cs)
);
}
);
width = 714;
}
);
leftKerningGroup = public.kern2.C2;
rightKerningGroup = public.kern1.C;
unicode = 67;
},
{
glyphname = Ccedilla;
layers = (
{
layerId = "067991BB-F7E6-4D77-8E89-F1D1828DD7C4";
shapes = (
{
closed = 1;
nodes = (
(184,11,o),
(63,160,o),
(96,345,cs),
(129,530,o),
(302,679,o),
(482,679,cs),
(604,679,o),
(697,613,o),
(736,514,c),
(754,524,l),
(713,629,o),
(613,699,o),
(485,699,cs),
(294,699,o),
(111,541,o),
(76,345,cs),
(42,154,o),
(164,-2,o),
(347,-9,c),
(306,-76,l),
(320,-91,l),
(385,-72,o),
(427,-99,o),
(418,-152,cs),
(411,-190,o),
(377,-220,o),
(339,-220,cs),
(309,-220,o),
(274,-203,o),
(260,-181,c),
(243,-193,l),
(260,-219,o),
(302,-239,o),
(336,-239,cs),
(384,-239,o),
(427,-200,o),
(435,-152,cs),
(446,-91,o),
(400,-55,o),
(330,-70,c),
(367,-9,l),
(494,-7,o),
(614,62,o),
(691,166,c),
(676,176,l),
(602,78,o),
(486,11,o),
(364,11,cs)
);
}
);
width = 765;
},
{
layerId = "8D1CD495-8E12-4F42-9971-C31B25734418";
shapes = (
{
closed = 1;
nodes = (
(207,69,o),
(108,192,o),
(135,345,cs),
(162,498,o),
(304,621,o),
(454,621,cs),
(556,621,o),
(635,565,o),
(666,481,c),
(738,519,l),
(698,627,o),
(597,699,o),
(468,699,cs),
(276,699,o),
(93,541,o),
(58,345,cs),
(25,159,o),
(140,5,o),
(316,-8,c),
(268,-81,l),
(299,-105,l),
(352,-85,o),
(387,-102,o),
(380,-144,cs),
(375,-173,o),
(348,-195,o),
(321,-195,cs),
(298,-195,o),
(272,-181,o),
(262,-162,c),
(220,-178,l),
(230,-213,o),
(273,-239,o),
(314,-239,cs),
(367,-239,o),
(413,-197,o),
(422,-144,cs),
(432,-86,o),
(391,-48,o),
(327,-61,c),
(361,-9,l),
(485,-2,o),
(602,69,o),
(677,171,c),
(618,209,l),
(557,125,o),
(459,69,o),
(357,69,cs)
);
}
);
width = 734;
},
{
layerId = "EE06C6DC-CF8C-4948-A893-3A90CCE35999";
shapes = (
{
closed = 1;
nodes = (
(262,174,o),
(203,246,o),
(220,345,cs),
(237,444,o),
(323,516,o),
(419,516,cs),
(489,516,o),
(537,480,o),
(554,423,c),
(726,504,l),
(690,620,o),
(586,699,o),
(451,699,cs),
(259,699,o),
(77,541,o),
(42,345,cs),
(10,163,o),
(115,15,o),
(284,-7,c),
(225,-87,l),
(277,-120,l),
(315,-100,o),
(341,-106,o),
(336,-134,cs),
(333,-150,o),
(319,-163,o),
(304,-163,cs),
(290,-163,o),
(279,-152,o),
(275,-139,c),
(197,-162,l),
(199,-205,o),
(242,-239,o),
(290,-239,cs),
(348,-239,o),
(403,-193,o),
(413,-134,cs),
(423,-78,o),
(386,-40,o),
(328,-50,c),
(362,-8,l),
(484,6,o),
(598,79,o),
(670,186,c),
(527,267,l),
(490,210,o),
(428,174,o),
(358,174,cs)
);
}
);
width = 714;
}
);
unicode = 199;
},
{
glyphname = D;
layers = (
{
layerId = "067991BB-F7E6-4D77-8E89-F1D1828DD7C4";
shapes = (
{
closed = 1;
nodes = (
(38,0,l),
(197,0,ls),
(384,0,o),
(562,154,o),
(596,345,cs),
(630,536,o),
(505,690,o),
(318,690,cs),
(160,690,l)
);
},
{
closed = 1;
nodes = (
(62,20,l),
(177,670,l),
(315,670,ls),
(492,670,o),
(609,526,o),
(577,345,cs),
(545,164,o),
(377,20,o),
(200,20,cs)
);
}
);
width = 657;
},
{
layerId = "8D1CD495-8E12-4F42-9971-C31B25734418";
shapes = (
{
closed = 1;
nodes = (
(23,0,l),
(210,0,ls),
(396,0,o),
(575,154,o),
(609,345,cs),
(643,536,o),
(517,690,o),
(331,690,cs),
(144,690,l)
);
},
{
closed = 1;
nodes = (
(112,78,l),
(206,612,l),
(317,612,ls),
(464,612,o),
(558,498,o),
(531,345,cs),
(504,192,o),
(369,78,o),
(222,78,cs)
);
}
);
width = 651;
},
{
layerId = "EE06C6DC-CF8C-4948-A893-3A90CCE35999";
shapes = (
{
closed = 1;
nodes = (
(3,0,l),
(242,0,ls),
(428,0,o),
(607,154,o),
(641,345,cs),
(675,536,o),
(549,690,o),
(363,690,cs),
(124,690,l)
);
},
{
closed = 1;
nodes = (
(214,162,l),
(279,528,l),
(335,528,ls),
(423,528,o),
(477,448,o),
(459,345,cs),
(441,242,o),
(358,162,o),
(270,162,cs)
);
}
);
width = 666;
}
);
leftKerningGroup = public.kern2.B;
rightKerningGroup = public.kern1.C;
unicode = 68;
},
{
glyphname = Dcroat;
layers = (
{
layerId = "067991BB-F7E6-4D77-8E89-F1D1828DD7C4";
shapes = (
{
closed = 1;
nodes = (
(165,690,l),
(106,355,l),
(33,355,l),
(30,335,l),
(102,335,l),
(43,0,l),
(202,0,ls),
(389,0,o),
(567,154,o),
(601,345,cs),
(635,536,o),
(511,690,o),
(324,690,cs)
);
},
{
closed = 1;
nodes = (
(67,20,l),
(123,335,l),
(256,335,l),
(260,355,l),
(126,355,l),
(182,670,l),
(320,670,ls),
(497,670,o),
(614,526,o),
(582,345,cs),
(550,164,o),
(382,20,o),
(205,20,cs)
);
}
);
width = 663;
},
{
layerId = "8D1CD495-8E12-4F42-9971-C31B25734418";
shapes = (
{
closed = 1;
nodes = (
(149,690,l),
(95,381,l),
(25,381,l),
(13,312,l),
(83,312,l),
(27,0,l),
(215,0,ls),
(401,0,o),
(580,154,o),
(614,345,cs),
(648,536,o),
(522,690,o),
(336,690,cs)
);
},
{
closed = 1;
nodes = (
(117,78,l),
(158,312,l),
(278,312,l),
(290,381,l),
(170,381,l),
(211,612,l),
(322,612,ls),
(469,612,o),
(563,498,o),
(536,345,cs),
(509,192,o),
(374,78,o),
(227,78,cs)
);
}
);
width = 656;
},
{
layerId = "EE06C6DC-CF8C-4948-A893-3A90CCE35999";
shapes = (
{
closed = 1;
nodes = (
(129,690,l),
(75,385,l),
(14,385,l),
(0,304,l),
(60,304,l),
(7,0,l),
(246,0,ls),
(432,0,o),
(611,154,o),
(645,345,cs),
(679,536,o),
(554,690,o),
(368,690,cs)
);
},
{
closed = 1;
nodes = (
(219,162,l),
(244,304,l),
(338,304,l),
(352,385,l),
(258,385,l),
(283,528,l),
(339,528,ls),
(427,528,o),
(482,448,o),
(464,345,cs),
(446,242,o),
(363,162,o),
(275,162,cs)
);
}
);
width = 670;
}
);
unicode = 272;
},
{
glyphname = Delta;
layers = (
{
layerId = "067991BB-F7E6-4D77-8E89-F1D1828DD7C4";
shapes = (
{
closed = 1;
nodes = (
(397,690,l),
(378,690,l),
(-16,0,l),
(547,0,l)
);
},
{
closed = 1;
nodes = (
(15,18,l),
(384,666,l),
(524,18,l)
);
}
);
width = 638;
},
{
layerId = "8D1CD495-8E12-4F42-9971-C31B25734418";
shapes = (
{
closed = 1;
nodes = (
(443,690,l),
(362,690,l),
(-31,0,l),
(592,0,l)
);
},
{
closed = 1;
nodes = (
(84,66,l),
(388,606,l),
(500,66,l)
);
}
);
width = 667;
},
{
layerId = "EE06C6DC-CF8C-4948-A893-3A90CCE35999";
shapes = (
{
closed = 1;
nodes = (
(537,690,l),
(344,690,l),
(-50,0,l),
(688,0,l)
);
},
{
closed = 1;
nodes = (
(221,152,l),
(406,491,l),
(470,152,l)
);
}
);
width = 744;
}
);
unicode = 916;
},
{
glyphname = E;
layers = (
{
anchors = (
{
name = b.uni0326;
position = "{229, 0}";
},
{
name = b.uni0328_1;
position = "{403, 0}";
},
{
name = t.uni0308_2;
position = "{229, 690}";
},
{
name = m.uni0335_3;
position = "{-53, 0}";
}
);
layerId = "067991BB-F7E6-4D77-8E89-F1D1828DD7C4";
shapes = (
{
closed = 1;
nodes = (
(506,670,l),
(509,690,l),
(165,690,l),
(43,0,l),
(387,0,l),
(391,20,l),
(67,20,l),
(122,335,l),
(407,335,l),
(411,355,l),
(126,355,l),
(181,670,l)
);
}
);
width = 511;
},
{
anchors = (
{
name = b.uni0326;
position = "{226, 0}";
},
{
name = b.uni0328_1;
position = "{416, 0}";
},
{
name = t.uni0308_2;
position = "{226, 690}";
},
{
name = m.uni0335_3;
position = "{-53, 0}";
}
);
layerId = "8D1CD495-8E12-4F42-9971-C31B25734418";
shapes = (
{
closed = 1;
nodes = (
(509,615,l),
(522,690,l),
(150,690,l),
(28,0,l),
(400,0,l),
(414,75,l),
(118,75,l),
(159,307,l),
(416,307,l),
(430,383,l),
(172,383,l),
(213,615,l)
);
}
);
width = 514;
},
{
anchors = (
{
name = b.uni0326;
position = "{230, 0}";
},
{
name = b.uni0328_1;
position = "{447, 0}";
},
{
name = t.uni0308_2;
position = "{230, 690}";
},
{
name = m.uni0335_3;
position = "{-53, 0}";
}
);
layerId = "EE06C6DC-CF8C-4948-A893-3A90CCE35999";
shapes = (
{
closed = 1;
nodes = (
(525,528,l),
(554,690,l),
(130,690,l),
(8,0,l),
(432,0,l),
(461,162,l),
(220,162,l),
(238,265,l),
(441,265,l),
(469,425,l),
(266,425,l),
(284,528,l)
);
}
);
width = 518;
}
);
leftKerningGroup = public.kern2.B;
rightKerningGroup = public.kern1.E;
unicode = 69;
},
{
glyphname = Eng;
layers = (
{
layerId = "067991BB-F7E6-4D77-8E89-F1D1828DD7C4";
shapes = (
{
closed = 1;
nodes = (
(645,690,l),
(532,49,l),
(169,690,l),
(160,690,l),
(38,0,l),
(59,0,l),
(171,640,l),
(527,15,l),
(504,-112,ls),
(495,-161,o),
(464,-186,o),
(425,-181,c),
(421,-201,l),
(473,-206,o),
(513,-171,o),
(523,-113,cs),
(664,690,l)
);
}
);
width = 688;
},
{
layerId = "8D1CD495-8E12-4F42-9971-C31B25734418";
shapes = (
{
closed = 1;
nodes = (
(630,690,l),
(532,130,l),
(218,690,l),
(144,690,l),
(23,0,l),
(100,0,l),
(199,560,l),
(511,0,l),
(494,-93,ls),
(483,-154,o),
(454,-163,o),
(423,-162,c),
(411,-231,l),
(500,-231,o),
(549,-199,o),
(567,-99,cs),
(706,690,l)
);
}
);
width = 712;
},
{
layerId = "EE06C6DC-CF8C-4948-A893-3A90CCE35999";
shapes = (
{
closed = 1;
nodes = (
(610,690,l),
(539,284,l),
(316,690,l),
(124,690,l),
(3,0,l),
(186,0,l),
(258,407,l),
(478,0,l),
(468,-56,ls),
(452,-144,o),
(422,-146,o),
(380,-149,c),
(360,-262,l),
(500,-261,o),
(634,-215,o),
(661,-63,cs),
(794,690,l)
);
}
);
width = 781;
}
);
leftKerningGroup = public.kern2.B;
rightKerningGroup = public.kern1.E;
unicode = 330;
},
{
glyphname = Eogonek;
layers = (
{
layerId = "067991BB-F7E6-4D77-8E89-F1D1828DD7C4";
shapes = (
{
closed = 1;
nodes = (
(419,-185,l),
(390,-208,o),
(367,-220,o),
(331,-220,cs),
(286,-220,o),
(269,-190,o),
(276,-148,cs),
(287,-85,o),
(344,-38,o),
(387,0,c),
(391,20,l),
(67,20,l),
(122,335,l),
(407,335,l),
(411,355,l),
(126,355,l),
(181,670,l),
(506,670,l),
(509,690,l),
(165,690,l),
(43,0,l),
(365,0,l),
(316,-45,o),
(270,-86,o),
(259,-148,cs),
(249,-204,o),
(273,-239,o),
(328,-239,cs),
(368,-239,o),
(395,-227,o),
(426,-200,c)
);
}
);
width = 516;
},
{
layerId = "8D1CD495-8E12-4F42-9971-C31B25734418";
shapes = (
{
closed = 1;
nodes = (
(403,-153,l),
(377,-182,o),
(344,-197,o),
(312,-197,cs),
(273,-197,o),
(256,-171,o),
(262,-135,cs),
(273,-73,o),
(333,-36,o),
(400,0,c),
(414,75,l),
(118,75,l),
(159,307,l),
(416,307,l),
(430,383,l),
(172,383,l),
(213,615,l),
(509,615,l),
(522,690,l),
(150,690,l),
(28,0,l),
(339,0,l),
(271,-39,o),
(220,-82,o),
(209,-142,cs),
(199,-200,o),
(232,-236,o),
(294,-238,cs),
(339,-240,o),
(383,-225,o),
(422,-191,c)
);
}
);
width = 518;
},
{
layerId = "EE06C6DC-CF8C-4948-A893-3A90CCE35999";
shapes = (
{
closed = 1;
nodes = (
(412,-99,l),
(391,-132,o),
(361,-153,o),
(334,-153,cs),
(308,-153,o),
(292,-135,o),
(299,-96,cs),
(307,-50,o),
(354,-32,o),
(432,0,c),
(461,162,l),
(220,162,l),
(238,265,l),
(441,265,l),
(469,425,l),
(266,425,l),
(284,528,l),
(525,528,l),
(554,690,l),
(130,690,l),
(8,0,l),
(291,0,l),
(241,-22,o),
(200,-57,o),
(190,-112,cs),
(179,-174,o),
(210,-230,o),
(290,-237,cs),
(342,-242,o),
(406,-218,o),
(453,-176,c)
);
}
);
width = 521;
}
);
unicode = 280;
},
{
glyphname = Eth;
layers = (
{
layerId = "067991BB-F7E6-4D77-8E89-F1D1828DD7C4";
shapes = (
{
closed = 1;
nodes = (
(165,690,l),
(106,355,l),
(33,355,l),
(30,335,l),
(102,335,l),
(43,0,l),
(202,0,ls),
(389,0,o),
(567,154,o),
(601,345,cs),
(635,536,o),
(511,690,o),
(324,690,cs)
);
},
{
closed = 1;
nodes = (
(67,20,l),
(123,335,l),
(256,335,l),
(260,355,l),
(126,355,l),
(182,670,l),
(320,670,ls),
(497,670,o),
(614,526,o),
(582,345,cs),
(550,164,o),
(382,20,o),
(205,20,cs)
);
}
);
width = 663;
},
{
layerId = "8D1CD495-8E12-4F42-9971-C31B25734418";
shapes = (
{
closed = 1;
nodes = (
(149,690,l),
(95,381,l),
(25,381,l),
(13,312,l),
(83,312,l),
(27,0,l),
(215,0,ls),
(401,0,o),
(580,154,o),
(614,345,cs),
(648,536,o),
(522,690,o),
(336,690,cs)
);
},
{
closed = 1;
nodes = (
(117,78,l),
(158,312,l),
(278,312,l),
(290,381,l),
(170,381,l),
(211,612,l),
(322,612,ls),
(469,612,o),
(563,498,o),
(536,345,cs),
(509,192,o),
(374,78,o),
(227,78,cs)
);
}
);
width = 656;
},
{
layerId = "EE06C6DC-CF8C-4948-A893-3A90CCE35999";
shapes = (
{
closed = 1;
nodes = (
(129,690,l),
(75,385,l),
(14,385,l),
(0,304,l),
(60,304,l),
(7,0,l),
(246,0,ls),
(432,0,o),
(611,154,o),
(645,345,cs),
(679,536,o),
(554,690,o),
(368,690,cs)
);
},
{
closed = 1;
nodes = (
(219,162,l),
(244,304,l),
(338,304,l),
(352,385,l),
(258,385,l),
(283,528,l),
(339,528,ls),
(427,528,o),
(482,448,o),
(464,345,cs),
(446,242,o),
(363,162,o),
(275,162,cs)
);
}
);
width = 670;
}
);
unicode = 208;
},
{
glyphname = Euro;
layers = (
{
layerId = "067991BB-F7E6-4D77-8E89-F1D1828DD7C4";
shapes = (
{
closed = 1;
nodes = (
(463,-9,o),
(551,23,o),
(625,81,c),
(630,105,l),
(556,44,o),
(467,9,o),
(382,9,cs),
(229,9,o),
(119,115,o),
(107,260,c),
(532,260,l),
(542,278,l),
(107,278,l),
(106,300,o),
(108,322,o),
(112,345,cs),
(116,366,o),
(122,388,o),
(129,407,c),
(606,407,l),
(617,426,l),
(135,426,l),
(196,573,o),
(345,681,o),
(501,681,cs),
(582,681,o),
(653,651,o),
(703,596,c),
(713,614,l),
(661,669,o),
(586,699,o),
(504,699,cs),
(338,699,o),
(181,582,o),
(118,426,c),
(40,426,l),
(37,407,l),
(110,407,l),
(103,386,o),
(99,366,o),
(95,345,cs),
(91,322,o),
(89,300,o),
(88,278,c),
(14,278,l),
(11,260,l),
(89,260,l),
(99,106,o),
(215,-9,o),
(379,-9,cs)
);
}
);
width = 739;
},
{
layerId = "8D1CD495-8E12-4F42-9971-C31B25734418";
shapes = (
{
closed = 1;
nodes = (
(427,-9,o),
(502,14,o),
(564,51,c),
(580,144,l),
(521,94,o),
(447,64,o),
(376,64,cs),
(262,64,o),
(178,132,o),
(153,232,c),
(440,232,l),
(493,298,l),
(146,298,l),
(146,313,o),
(147,329,o),
(150,345,cs),
(153,360,o),
(156,374,o),
(162,389,c),
(513,389,l),
(569,453,l),
(190,453,l),
(249,554,o),
(358,626,o),
(475,626,cs),
(532,626,o),
(587,606,o),
(627,570,c),
(662,643,l),
(613,679,o),
(551,699,o),
(488,699,cs),
(332,699,o),
(183,597,o),
(113,453,c),
(81,453,l),
(25,389,l),
(88,389,l),
(84,374,o),
(81,360,o),
(78,345,cs),
(75,329,o),
(74,313,o),
(73,298,c),
(50,298,l),
(-3,232,l),
(76,232,l),
(96,91,o),
(208,-9,o),
(363,-9,cs)
);
}
);
width = 697;
},
{
layerId = "EE06C6DC-CF8C-4948-A893-3A90CCE35999";
shapes = (
{
closed = 1;
nodes = (
(395,-9,o),
(450,3,o),
(499,25,c),
(529,196,l),
(489,163,o),
(424,139,o),
(379,139,cs),
(305,139,o),
(249,179,o),
(224,239,c),
(425,239,l),
(460,313,l),
(211,313,l),
(212,323,o),
(213,334,o),
(215,345,cs),
(217,357,o),
(220,368,o),
(223,378,c),
(491,378,l),
(524,452,l),
(261,452,l),
(308,512,o),
(378,551,o),
(452,551,cs),
(487,551,o),
(528,538,o),
(556,516,c),
(624,659,l),
(577,684,o),
(526,699,o),
(478,699,cs),
(320,699,o),
(172,597,o),
(103,452,c),
(36,452,l),
(23,378,l),
(76,378,l),
(73,367,o),
(71,357,o),
(69,345,cs),
(67,335,o),
(65,323,o),
(64,313,c),
(11,313,l),
(-2,239,l),
(65,239,l),
(83,93,o),
(194,-9,o),
(353,-9,cs)
);
}
);
width = 642;
}
);
leftKerningGroup = public.kern2.C2;
unicode = 8364;
},
{
glyphname = F;
layers = (
{
layerId = "067991BB-F7E6-4D77-8E89-F1D1828DD7C4";
shapes = (
{
closed = 1;
nodes = (
(506,670,l),
(509,690,l),
(165,690,l),
(43,0,l),
(63,0,l),
(122,335,l),
(407,335,l),
(411,355,l),
(126,355,l),
(181,670,l)
);
}
);
width = 481;
},
{
layerId = "8D1CD495-8E12-4F42-9971-C31B25734418";
shapes = (
{
closed = 1;
nodes = (
(509,615,l),
(522,690,l),
(150,690,l),
(28,0,l),
(104,0,l),
(159,307,l),
(416,307,l),
(430,383,l),
(172,383,l),
(213,615,l)
);
}
);
width = 471;
},
{
layerId = "EE06C6DC-CF8C-4948-A893-3A90CCE35999";
shapes = (
{
closed = 1;
nodes = (
(525,528,l),
(554,690,l),
(130,690,l),
(8,0,l),
(191,0,l),
(238,265,l),
(441,265,l),
(469,425,l),
(266,425,l),
(284,528,l)
);
}
);
width = 491;
}
);
leftKerningGroup = public.kern2.B;
unicode = 70;
},
{
glyphname = G;
layers = (
{
anchors = (
{
name = b.uni0326;
position = "{377, 0}";
},
{
name = b.uni0328_1;
position = "{488, 9}";
},
{
name = t.uni0308_2;
position = "{377, 690}";
},
{
name = m.uni0335_3;
position = "{377, 345}";
}
);
layerId = "067991BB-F7E6-4D77-8E89-F1D1828DD7C4";
shapes = (
{
closed = 1;
nodes = (
(424,352,l),
(421,331,l),
(748,331,l),
(710,152,o),
(541,11,o),
(364,11,cs),
(184,11,o),
(63,160,o),
(96,345,cs),
(129,530,o),
(302,679,o),
(482,679,cs),
(604,679,o),
(697,613,o),
(736,514,c),
(755,524,l),
(714,629,o),
(614,699,o),
(485,699,cs),
(294,699,o),
(111,541,o),
(76,345,cs),
(42,150,o),
(170,-9,o),
(361,-9,cs),
(554,-9,o),
(736,150,o),
(770,345,c),
(771,352,l)
);
}
);
width = 832;
},
{
anchors = (
{
name = b.uni0326;
position = "{360, 0}";
},
{
name = b.uni0328_1;
position = "{564, 9}";
},
{
name = t.uni0308_2;
position = "{360, 690}";
},
{
name = m.uni0335_3;
position = "{360, 345}";
}
);
layerId = "8D1CD495-8E12-4F42-9971-C31B25734418";
shapes = (
{
closed = 1;
nodes = (
(411,367,l),
(399,295,l),
(664,295,l),
(620,165,o),
(492,69,o),
(360,69,cs),
(211,69,o),
(111,192,o),
(138,345,cs),
(165,498,o),
(308,621,o),
(457,621,cs),
(558,621,o),
(638,565,o),
(668,481,c),
(740,519,l),
(700,627,o),
(600,699,o),
(471,699,cs),
(278,699,o),
(97,541,o),
(62,345,cs),
(28,150,o),
(153,-9,o),
(346,-9,cs),
(538,-9,o),
(721,150,o),
(755,345,cs),
(759,367,l)
);
}
);
width = 800;
},
{
anchors = (
{
name = b.uni0326;
position = "{339, 0}";
},
{
name = b.uni0328_1;
position = "{705, 9}";
},
{
name = t.uni0308_2;
position = "{339, 690}";
},
{
name = m.uni0335_3;
position = "{339, 345}";
}
);
layerId = "EE06C6DC-CF8C-4948-A893-3A90CCE35999";
shapes = (
{
closed = 1;
nodes = (
(394,385,l),
(369,243,l),
(512,243,l),
(472,201,o),
(417,174,o),
(358,174,cs),
(261,174,o),
(202,246,o),
(219,345,cs),
(236,444,o),
(322,516,o),
(419,516,cs),
(488,516,o),
(537,480,o),
(554,423,c),
(726,504,l),
(690,620,o),
(585,699,o),
(451,699,cs),
(259,699,o),
(77,541,o),
(42,345,cs),
(8,150,o),
(134,-9,o),
(326,-9,cs),
(518,-9,o),
(702,150,o),
(736,345,cs),
(743,385,l)
);
}
);
width = 760;
}
);
leftKerningGroup = public.kern2.C2;
rightKerningGroup = public.kern1.C;
unicode = 71;
},
{
glyphname = Germandbls;
layers = (
{
layerId = "067991BB-F7E6-4D77-8E89-F1D1828DD7C4";
shapes = (
{
closed = 1;
nodes = (
(562,672,l),
(565,690,l),
(166,690,l),
(44,0,l),
(62,0,l),
(181,672,l)
);
},
{
closed = 1;
nodes = (
(305,681,l),
(287,681,l),
(260,529,ls),
(243,433,o),
(277,397,o),
(329,375,cs),
(423,336,ls),
(482,311,o),
(533,284,o),
(515,183,cs),
(498,86,o),
(408,20,o),
(321,20,cs),
(167,20,l),
(164,0,l),
(320,0,ls),
(416,0,o),
(515,74,o),
(534,183,cs),
(553,293,o),
(500,327,o),
(437,353,cs),
(342,392,ls),
(295,412,o),
(265,456,o),
(278,529,cs)
);
}
);
width = 677;
},
{
layerId = "8D1CD495-8E12-4F42-9971-C31B25734418";
shapes = (
{
closed = 1;
nodes = (
(583,619,l),
(595,690,l),
(151,690,l),
(29,0,l),
(100,0,l),
(210,619,l)
);
},
{
closed = 1;
nodes = (
(361,650,l),
(292,650,l),
(276,558,ls),
(253,426,o),
(309,382,o),
(367,348,cs),
(439,305,ls),
(475,283,o),
(499,258,o),
(488,198,cs),
(474,121,o),
(407,80,o),
(340,80,cs),
(210,80,l),
(195,0,l),
(338,0,ls),
(444,0,o),
(544,80,o),
(564,194,cs),
(581,288,o),
(546,338,o),
(495,369,cs),
(413,418,ls),
(365,447,o),
(332,485,o),
(345,557,cs)
);
}
);
width = 680;
},
{
layerId = "EE06C6DC-CF8C-4948-A893-3A90CCE35999";
shapes = (
{
closed = 1;
nodes = (
(671,537,l),
(697,690,l),
(131,690,l),
(10,0,l),
(182,0,l),
(277,537,l)
);
},
{
closed = 1;
nodes = (
(505,660,l),
(347,660,l),
(333,584,ls),
(323,525,o),
(325,473,o),
(346,439,cs),
(434,300,ls),
(452,270,o),
(455,251,o),
(450,225,cs),
(443,188,o),
(408,161,o),
(378,160,c),
(305,160,l),
(276,0,l),
(386,0,l),
(503,-10,o),
(607,90,o),
(629,213,cs),
(640,274,o),
(625,318,o),
(596,357,cs),
(507,473,ls),
(486,500,o),
(484,540,o),
(492,584,cs)
);
}
);
width = 686;
}
);
unicode = 7838;
},
{
glyphname = H;
layers = (
{
anchors = (
{
name = b.uni0326;
position = "{297, 0}";
},
{
name = b.uni0328_1;
position = "{-53, 0}";
},
{
name = t.uni0308_2;
position = "{297, 690}";
},
{
name = m.uni0335_3;
position = "{292, 534}";
}
);
layerId = "067991BB-F7E6-4D77-8E89-F1D1828DD7C4";
shapes = (
{
closed = 1;
nodes = (
(619,690,l),
(560,355,l),
(121,355,l),
(180,690,l),
(160,690,l),
(38,0,l),
(59,0,l),
(118,335,l),
(557,335,l),
(498,0,l),
(518,0,l),
(640,690,l)
);
}
);
width = 662;
},
{
anchors = (
{
name = b.uni0326;
position = "{299, 0}";
},
{
name = b.uni0328_1;
position = "{-53, 0}";
},
{
name = t.uni0308_2;
position = "{299, 690}";
},
{
name = m.uni0335_3;
position = "{296, 538}";
}
);
layerId = "8D1CD495-8E12-4F42-9971-C31B25734418";
shapes = (
{
closed = 1;
nodes = (
(588,690,l),
(534,384,l),
(168,384,l),
(222,690,l),
(144,690,l),
(23,0,l),
(100,0,l),
(154,306,l),
(520,306,l),
(466,0,l),
(544,0,l),
(666,690,l)
);
}
);
width = 672;
},
{
anchors = (
{
name = b.uni0326;
position = "{311, 0}";
},
{
name = b.uni0328_1;
position = "{-53, 0}";
},
{
name = t.uni0308_2;
position = "{311, 690}";
},
{
name = m.uni0335_3;
position = "{312, 547}";
}
);
layerId = "EE06C6DC-CF8C-4948-A893-3A90CCE35999";
shapes = (
{
closed = 1;
nodes = (
(538,690,l),
(491,426,l),
(261,426,l),
(307,690,l),
(124,690,l),
(3,0,l),
(186,0,l),
(232,265,l),
(463,265,l),
(416,0,l),
(599,0,l),
(721,690,l)
);
}
);
width = 708;
}
);
leftKerningGroup = public.kern2.B;
rightKerningGroup = public.kern1.E;
unicode = 72;
},
{
glyphname = Hbar;
layers = (
{
layerId = "067991BB-F7E6-4D77-8E89-F1D1828DD7C4";
shapes = (
{
closed = 1;
nodes = (
(689,545,l),
(619,545,l),
(645,690,l),
(624,690,l),
(599,545,l),
(160,545,l),
(185,690,l),
(165,690,l),
(139,545,l),
(69,545,l),
(66,526,l),
(136,526,l),
(43,0,l),
(64,0,l),
(123,335,l),
(562,335,l),
(503,0,l),
(523,0,l),
(616,526,l),
(685,526,l)
);
},
{
closed = 1;
nodes = (
(565,355,l),
(126,355,l),
(156,526,l),
(595,526,l)
);
}
);
width = 672;
},
{
layerId = "8D1CD495-8E12-4F42-9971-C31B25734418";
shapes = (
{
closed = 1;
nodes = (
(709,565,l),
(648,565,l),
(670,690,l),
(593,690,l),
(571,565,l),
(204,565,l),
(226,690,l),
(149,690,l),
(127,565,l),
(65,565,l),
(56,513,l),
(117,513,l),
(27,0,l),
(104,0,l),
(158,306,l),
(525,306,l),
(471,0,l),
(548,0,l),
(639,513,l),
(700,513,l)
);
},
{
closed = 1;
nodes = (
(539,384,l),
(172,384,l),
(195,513,l),
(561,513,l)
);
}
);
width = 681;
},
{
layerId = "EE06C6DC-CF8C-4948-A893-3A90CCE35999";
shapes = (
{
closed = 1;
nodes = (
(752,578,l),
(705,578,l),
(724,690,l),
(541,690,l),
(521,578,l),
(291,578,l),
(311,690,l),
(127,690,l),
(108,578,l),
(62,578,l),
(51,515,l),
(97,515,l),
(6,0,l),
(189,0,l),
(236,265,l),
(466,265,l),
(419,0,l),
(603,0,l),
(693,515,l),
(740,515,l)
);
},
{
closed = 1;
nodes = (
(494,426,l),
(264,426,l),
(280,515,l),
(510,515,l)
);
}
);
width = 715;
}
);
unicode = 294;
},
{
glyphname = I;
layers = (
{
anchors = (
{
name = b.uni0326;
position = "{63, 0}";
},
{
name = b.uni0328_1;
position = "{73, 0}";
},
{
name = t.uni0308_2;
position = "{63, 690}";
},
{
name = m.uni0335_3;
position = "{-53, 0}";
}
);
layerId = "067991BB-F7E6-4D77-8E89-F1D1828DD7C4";
shapes = (
{
closed = 1;
nodes = (
(43,0,l),
(63,0,l),
(185,690,l),
(165,690,l)
);
}
);
width = 212;
},
{
anchors = (
{
name = b.uni0326;
position = "{75, 0}";
},
{
name = b.uni0328_1;
position = "{115, 0}";
},
{
name = t.uni0308_2;
position = "{75, 690}";
},
{
name = m.uni0335_3;
position = "{-53, 0}";
}
);
layerId = "8D1CD495-8E12-4F42-9971-C31B25734418";
shapes = (
{
closed = 1;
nodes = (
(28,0,l),
(104,0,l),
(226,690,l),
(150,690,l)
);
}
);
width = 237;
},
{
anchors = (
{
name = b.uni0326;
position = "{106, 0}";
},
{
name = b.uni0328_1;
position = "{201, 0}";
},
{
name = t.uni0308_2;
position = "{106, 690}";
},
{
name = m.uni0335_3;
position = "{-53, 0}";
}
);
layerId = "EE06C6DC-CF8C-4948-A893-3A90CCE35999";
shapes = (
{
closed = 1;
nodes = (
(8,0,l),
(191,0,l),
(313,690,l),
(130,690,l)
);
}
);
width = 304;
}
);
leftKerningGroup = public.kern2.B;
rightKerningGroup = public.kern1.E;
unicode = 73;
},
{
glyphname = Iogonek;
widthMetricsKey = I;
layers = (
{
layerId = "067991BB-F7E6-4D77-8E89-F1D1828DD7C4";
shapes = (
{
closed = 1;
nodes = (
(102,-185,l),
(73,-208,o),
(49,-220,o),
(13,-220,cs),
(-32,-220,o),
(-49,-190,o),
(-42,-148,cs),
(-31,-85,o),
(26,-38,o),
(69,0,c),
(191,690,l),
(171,690,l),
(50,5,l),
(51,5,l),
(1,-43,o),
(-47,-85,o),
(-58,-148,cs),
(-68,-204,o),
(-46,-239,o),
(10,-239,cs),
(50,-239,o),
(76,-227,o),
(108,-200,c)
);
}
);
width = 223;
},
{
layerId = "8D1CD495-8E12-4F42-9971-C31B25734418";
shapes = (
{
closed = 1;
nodes = (
(114,-153,l),
(89,-182,o),
(56,-197,o),
(22,-197,cs),
(-16,-197,o),
(-33,-171,o),
(-27,-135,cs),
(-16,-73,o),
(45,-36,o),
(111,0,c),
(232,690,l),
(156,690,l),
(34,0,l),
(50,0,l),
(-17,-39,o),
(-69,-82,o),
(-80,-142,cs),
(-90,-200,o),
(-57,-236,o),
(4,-238,cs),
(50,-240,o),
(94,-225,o),
(134,-191,c)
);
}
);
width = 247;
},
{
layerId = "EE06C6DC-CF8C-4948-A893-3A90CCE35999";
shapes = (
{
closed = 1;
nodes = (
(173,-99,l),
(153,-132,o),
(122,-153,o),
(96,-153,cs),
(69,-153,o),
(54,-135,o),
(61,-96,cs),
(69,-50,o),
(117,-32,o),
(194,0,c),
(316,690,l),
(132,690,l),
(11,0,l),
(52,0,l),
(3,-22,o),
(-38,-57,o),
(-48,-112,cs),
(-59,-174,o),
(-28,-230,o),
(51,-237,cs),
(103,-242,o),
(168,-218,o),
(214,-176,c)
);
}
);
width = 304;
}
);
unicode = 302;
},
{
glyphname = J;
layers = (
{
layerId = "067991BB-F7E6-4D77-8E89-F1D1828DD7C4";
shapes = (
{
closed = 1;
nodes = (
(433,690,l),
(415,690,l),
(323,169,ls),
(308,82,o),
(231,11,o),
(155,11,cs),
(86,11,o),
(37,70,o),
(42,146,c),
(21,143,l),
(17,56,o),
(71,-9,o),
(151,-9,cs),
(239,-9,o),
(324,71,o),
(341,169,cs)
);
}
);
width = 443;
},
{
layerId = "8D1CD495-8E12-4F42-9971-C31B25734418";
shapes = (
{
closed = 1;
nodes = (
(449,690,l),
(373,690,l),
(282,176,ls),
(270,110,o),
(222,68,o),
(166,68,cs),
(116,68,o),
(82,104,o),
(87,161,c),
(7,143,l),
(0,48,o),
(55,-9,o),
(152,-9,cs),
(257,-9,o),
(338,59,o),
(357,168,cs)
);
}
);
width = 443;
},
{
layerId = "EE06C6DC-CF8C-4948-A893-3A90CCE35999";
shapes = (
{
closed = 1;
nodes = (
(561,690,l),
(376,690,l),
(291,207,ls),
(286,177,o),
(258,152,o),
(230,152,cs),
(205,152,o),
(187,171,o),
(187,198,c),
(-4,141,l),
(-4,48,o),
(64,-9,o),
(201,-9,cs),
(358,-9,o),
(450,65,o),
(471,183,cs)
);
}
);
width = 539;
}
);
unicode = 74;
},
{
glyphname = K;
layers = (
{
anchors = (
{
name = b.uni0326;
position = "{215, 0}";
},
{
name = b.uni0328_1;
position = "{-53, 0}";
},
{
name = t.uni0308_2;
position = "{210, 690}";
},
{
name = m.uni0335_3;
position = "{-53, 0}";
}
);
layerId = "067991BB-F7E6-4D77-8E89-F1D1828DD7C4";
shapes = (
{
closed = 1;
nodes = (
(416,0,l),
(446,0,l),
(182,373,l),
(559,690,l),
(529,690,l),
(166,383,l),
(126,383,l),
(180,690,l),
(160,690,l),
(38,0,l),
(59,0,l),
(122,362,l),
(162,362,l)
);
}
);
width = 498;
},
{
anchors = (
{
name = b.uni0326;
position = "{247, 0}";
},
{
name = b.uni0328_1;
position = "{-53, 0}";
},
{
name = t.uni0308_2;
position = "{236, 690}";
},
{
name = m.uni0335_3;
position = "{-53, 0}";
}
);
layerId = "8D1CD495-8E12-4F42-9971-C31B25734418";
shapes = (
{
closed = 1;
nodes = (
(427,0,l),
(534,0,l),
(278,372,l),
(641,690,l),
(535,690,l),
(218,410,l),
(172,410,l),
(222,690,l),
(144,690,l),
(23,0,l),
(100,0,l),
(159,337,l),
(205,337,l)
);
}
);
width = 578;
},
{
anchors = (
{
name = b.uni0326;
position = "{316, 0}";
},
{
name = b.uni0328_1;
position = "{-53, 0}";
},
{
name = t.uni0308_2;
position = "{293, 690}";
},
{
name = m.uni0335_3;
position = "{-53, 0}";
}
);
layerId = "EE06C6DC-CF8C-4948-A893-3A90CCE35999";
shapes = (
{
closed = 1;
nodes = (
(433,0,l),
(677,0,l),
(417,390,l),
(753,690,l),
(520,690,l),
(284,465,l),
(268,465,l),
(307,690,l),
(124,690,l),
(3,0,l),
(186,0,l),
(240,305,l),
(247,305,l)
);
}
);
width = 701;
}
);
leftKerningGroup = public.kern2.B;
unicode = 75;
},
{
glyphname = Kcommaaccent;
leftMetricsKey = K;
widthMetricsKey = K;
layers = (
{
layerId = "067991BB-F7E6-4D77-8E89-F1D1828DD7C4";
shapes = (
{
closed = 1;
nodes = (
(182,373,l),
(559,690,l),
(529,690,l),
(166,383,l),
(126,383,l),
(180,690,l),
(160,690,l),
(38,0,l),
(59,0,l),
(122,362,l),
(162,362,l),
(416,0,l),
(446,0,l)
);
},
{
closed = 1;
nodes = (
(77,-230,l),
(97,-230,l),
(204,-55,l),
(181,-55,l)
);
}
);
width = 498;
},
{
layerId = "8D1CD495-8E12-4F42-9971-C31B25734418";
shapes = (
{
closed = 1;
nodes = (
(278,372,l),
(641,690,l),
(535,690,l),
(218,410,l),
(172,410,l),
(222,690,l),
(144,690,l),
(23,0,l),
(100,0,l),
(159,337,l),
(205,337,l),
(427,0,l),
(534,0,l)
);
},
{
closed = 1;
nodes = (
(84,-218,l),
(135,-218,l),
(271,-55,l),
(180,-55,l)
);
}
);
width = 578;
},
{
layerId = "EE06C6DC-CF8C-4948-A893-3A90CCE35999";
shapes = (
{
closed = 1;
nodes = (
(417,390,l),
(753,690,l),
(520,690,l),
(284,465,l),
(268,465,l),
(307,690,l),
(124,690,l),
(3,0,l),
(186,0,l),
(240,305,l),
(247,305,l),
(433,0,l),
(677,0,l)
);
},
{
closed = 1;
nodes = (
(132,-235,l),
(209,-235,l),
(364,-55,l),
(223,-55,l)
);
}
);
width = 701;
}
);
unicode = 310;
},
{
glyphname = L;
layers = (
{
anchors = (
{
name = b.uni0326;
position = "{195, 0}";
},
{
name = b.uni0328_1;
position = "{-53, 0}";
},
{
name = t.uni0308_2;
position = "{57, 690}";
},
{
name = m.uni0335_3;
position = "{57, 345}";
}
);
layerId = "067991BB-F7E6-4D77-8E89-F1D1828DD7C4";
shapes = (
{
closed = 1;
nodes = (
(62,20,l),
(180,690,l),
(160,690,l),
(38,0,l),
(329,0,l),
(333,20,l)
);
}
);
width = 397;
},
{
anchors = (
{
name = b.uni0326;
position = "{197, 0}";
},
{
name = b.uni0328_1;
position = "{-53, 0}";
},
{
name = t.uni0308_2;
position = "{70, 690}";
},
{
name = m.uni0335_3;
position = "{71, 345}";
}
);
layerId = "8D1CD495-8E12-4F42-9971-C31B25734418";
shapes = (
{
closed = 1;
nodes = (
(114,78,l),
(222,690,l),
(144,690,l),
(23,0,l),
(349,0,l),
(363,78,l)
);
}
);
width = 410;
},
{
anchors = (
{
name = b.uni0326;
position = "{210, 0}";
},
{
name = b.uni0328_1;
position = "{-53, 0}";
},
{
name = t.uni0308_2;
position = "{102, 690}";
},
{
name = m.uni0335_3;
position = "{102, 345}";
}
);
layerId = "EE06C6DC-CF8C-4948-A893-3A90CCE35999";
shapes = (
{
closed = 1;
nodes = (
(214,162,l),
(307,690,l),
(124,690,l),
(3,0,l),
(397,0,l),
(426,162,l)
);
}
);
width = 449;
}
);
leftKerningGroup = public.kern2.B;
rightKerningGroup = public.kern1.L;
unicode = 76;
},
{
glyphname = Lcaron;
layers = (
{
anchors = (
{
name = b.uni0326;
position = "{195, 0}";
},
{
name = b.uni0328_1;
position = "{-53, 0}";
},
{
name = t.uni0308_2;
position = "{57, 690}";
},
{
name = m.uni0335_3;
position = "{58, 345}";
}
);
layerId = "067991BB-F7E6-4D77-8E89-F1D1828DD7C4";
shapes = (
{
closed = 1;
nodes = (
(439,690,l),
(418,690,l),
(284,412,l),
(305,412,l)
);
},
{
alignment = -1;
ref = L;
}
);
width = 414;
},
{
anchors = (
{
name = b.uni0326;
position = "{197, 0}";
},
{
name = b.uni0328_1;
position = "{-53, 0}";
},
{
name = t.uni0308_2;
position = "{70, 690}";
},
{
name = m.uni0335_3;
position = "{94, 345}";
}
);
layerId = "8D1CD495-8E12-4F42-9971-C31B25734418";
shapes = (
{
closed = 1;
nodes = (
(474,690,l),
(391,690,l),
(270,413,l),
(322,413,l)
);
},
{
alignment = -1;
ref = L;
}
);
width = 429;
},
{
anchors = (
{
name = b.uni0326;
position = "{210, 0}";
},
{
name = b.uni0328_1;
position = "{-53, 0}";
},
{
name = t.uni0308_2;
position = "{102, 690}";
},
{
name = m.uni0335_3;
position = "{97, 345}";
}
);
layerId = "EE06C6DC-CF8C-4948-A893-3A90CCE35999";
shapes = (
{
closed = 1;
nodes = (
(618,690,l),
(483,690,l),
(356,412,l),
(440,412,l)
);
},
{
alignment = -1;
ref = L;
}
);
width = 529;
}
);
leftKerningGroup = public.kern2.B;
rightKerningGroup = public.kern1.L;
unicode = 317;
},
{
glyphname = Lslash;
layers = (
{
layerId = "067991BB-F7E6-4D77-8E89-F1D1828DD7C4";
shapes = (
{
closed = 1;
nodes = (
(68,20,l),
(125,343,l),
(217,429,l),
(205,442,l),
(130,371,l),
(186,690,l),
(165,690,l),
(105,348,l),
(12,260,l),
(24,249,l),
(100,320,l),
(44,0,l),
(335,0,l),
(338,20,l)
);
}
);
width = 403;
},
{
layerId = "8D1CD495-8E12-4F42-9971-C31B25734418";
shapes = (
{
closed = 1;
nodes = (
(121,78,l),
(168,346,l),
(294,461,l),
(259,495,l),
(182,425,l),
(229,690,l),
(152,690,l),
(90,342,l),
(-34,229,l),
(1,195,l),
(76,263,l),
(30,0,l),
(356,0,l),
(370,78,l)
);
}
);
width = 418;
},
{
layerId = "EE06C6DC-CF8C-4948-A893-3A90CCE35999";
shapes = (
{
closed = 1;
nodes = (
(223,162,l),
(261,376,l),
(406,506,l),
(347,566,l),
(284,510,l),
(316,690,l),
(133,690,l),
(67,314,l),
(-77,187,l),
(-20,124,l),
(43,180,l),
(11,0,l),
(406,0,l),
(435,162,l)
);
}
);
width = 458;
}
);
unicode = 321;
},
{
glyphname = M;
layers = (
{
layerId = "067991BB-F7E6-4D77-8E89-F1D1828DD7C4";
shapes = (
{
closed = 1;
nodes = (
(761,690,l),
(352,25,l),
(178,690,l),
(160,690,l),
(38,0,l),
(59,0,l),
(172,644,l),
(340,0,l),
(356,0,l),
(751,644,l),
(638,0,l),
(657,0,l),
(779,690,l)
);
}
);
width = 803;
},
{
layerId = "8D1CD495-8E12-4F42-9971-C31B25734418";
shapes = (
{
closed = 1;
nodes = (
(740,690,l),
(379,97,l),
(227,690,l),
(144,690,l),
(23,0,l),
(100,0,l),
(194,536,l),
(330,0,l),
(391,0,l),
(717,534,l),
(623,0,l),
(699,0,l),
(820,690,l)
);
}
);
width = 828;
},
{
layerId = "EE06C6DC-CF8C-4948-A893-3A90CCE35999";
shapes = (
{
closed = 1;
nodes = (
(710,690,l),
(442,269,l),
(323,690,l),
(124,690,l),
(3,0,l),
(186,0,l),
(248,352,l),
(347,0,l),
(443,0,l),
(665,350,l),
(603,0,l),
(787,0,l),
(908,690,l)
);
}
);
width = 895;
}
);
leftKerningGroup = public.kern2.B;
rightKerningGroup = public.kern1.E;
unicode = 77;
},
{
glyphname = N;
layers = (
{
layerId = "067991BB-F7E6-4D77-8E89-F1D1828DD7C4";
shapes = (
{
closed = 1;
nodes = (
(645,690,l),
(532,49,l),
(169,690,l),
(160,690,l),
(38,0,l),
(59,0,l),
(171,640,l),
(534,0,l),
(543,0,l),
(664,690,l)
);
}
);
width = 688;
},
{
layerId = "8D1CD495-8E12-4F42-9971-C31B25734418";
shapes = (
{
closed = 1;
nodes = (
(630,690,l),
(532,130,l),
(218,690,l),
(144,690,l),
(23,0,l),
(100,0,l),
(199,560,l),
(511,0,l),
(584,0,l),
(706,690,l)
);
}
);
width = 712;
},
{
layerId = "EE06C6DC-CF8C-4948-A893-3A90CCE35999";
shapes = (
{
closed = 1;
nodes = (
(610,690,l),
(539,284,l),
(316,690,l),
(124,690,l),
(3,0,l),
(186,0,l),
(258,407,l),
(478,0,l),
(672,0,l),
(794,690,l)
);
}
);
width = 781;
}
);
leftKerningGroup = public.kern2.B;
rightKerningGroup = public.kern1.E;
unicode = 78;
},
{
glyphname = O;
layers = (
{
anchors = (
{
name = b.uni0326;
position = "{377, 0}";
},
{
name = b.uni0328_1;
position = "{488, 9}";
},
{
name = t.uni0308_2;
position = "{377, 690}";
},
{
name = m.uni0335_3;
position = "{377, 345}";
}
);
layerId = "067991BB-F7E6-4D77-8E89-F1D1828DD7C4";
shapes = (
{
closed = 1;
nodes = (
(554,-9,o),
(736,150,o),
(770,345,cs),
(805,541,o),
(678,699,o),
(485,699,cs),
(294,699,o),
(111,541,o),
(76,345,cs),
(42,150,o),
(170,-9,o),
(361,-9,cs)
);
},
{
closed = 1;
nodes = (
(184,11,o),
(63,160,o),
(96,345,cs),
(129,530,o),
(302,679,o),
(482,679,cs),
(663,679,o),
(784,530,o),
(751,345,cs),
(718,160,o),
(545,11,o),
(364,11,cs)
);
}
);
width = 832;
},
{
anchors = (
{
name = b.uni0326;
position = "{356, 0}";
},
{
name = b.uni0328_1;
position = "{561, 9}";
},
{
name = t.uni0308_2;
position = "{356, 690}";
},
{
name = m.uni0335_3;
position = "{356, 345}";
}
);
layerId = "8D1CD495-8E12-4F42-9971-C31B25734418";
shapes = (
{
closed = 1;
nodes = (
(535,-9,o),
(719,150,o),
(753,345,cs),
(788,541,o),
(660,699,o),
(468,699,cs),
(276,699,o),
(93,541,o),
(58,345,cs),
(24,150,o),
(151,-9,o),
(343,-9,cs)
);
},
{
closed = 1;
nodes = (
(207,69,o),
(108,192,o),
(135,345,cs),
(162,498,o),
(304,621,o),
(454,621,cs),
(605,621,o),
(702,498,o),
(675,345,cs),
(648,192,o),
(508,69,o),
(357,69,cs)
);
}
);
width = 795;
},
{
anchors = (
{
name = b.uni0326;
position = "{339, 0}";
},
{
name = b.uni0328_1;
position = "{705, 9}";
},
{
name = t.uni0308_2;
position = "{339, 690}";
},
{
name = m.uni0335_3;
position = "{339, 345}";
}
);
layerId = "EE06C6DC-CF8C-4948-A893-3A90CCE35999";
shapes = (
{
closed = 1;
nodes = (
(518,-9,o),
(702,150,o),
(736,345,cs),
(771,541,o),
(643,699,o),
(451,699,cs),
(259,699,o),
(77,541,o),
(42,345,cs),
(8,150,o),
(134,-9,o),
(326,-9,cs)
);
},
{
closed = 1;
nodes = (
(262,174,o),
(203,246,o),
(220,345,cs),
(237,444,o),
(323,516,o),
(419,516,cs),
(515,516,o),
(573,444,o),
(556,345,cs),
(539,246,o),
(454,174,o),
(358,174,cs)
);
}
);
width = 761;
}
);
leftKerningGroup = public.kern2.C2;
rightKerningGroup = public.kern1.C;
unicode = 79;
},
{
glyphname = OE;
layers = (
{
layerId = "067991BB-F7E6-4D77-8E89-F1D1828DD7C4";
shapes = (
{
closed = 1;
nodes = (
(924,670,l),
(928,690,l),
(585,690,l),
(584,684,l),
(554,693,o),
(521,699,o),
(485,699,cs),
(294,699,o),
(111,541,o),
(76,345,cs),
(42,150,o),
(170,-9,o),
(361,-9,cs),
(397,-9,o),
(431,-3,o),
(464,6,c),
(463,0,l),
(806,0,l),
(810,20,l),
(486,20,l),
(542,335,l),
(828,335,l),
(831,355,l),
(545,355,l),
(601,670,l)
);
},
{
closed = 1;
nodes = (
(184,11,o),
(63,160,o),
(96,345,cs),
(129,530,o),
(302,679,o),
(482,679,cs),
(518,679,o),
(550,673,o),
(580,664,c),
(468,26,l),
(435,17,o),
(400,11,o),
(364,11,cs)
);
}
);
width = 930;
},
{
layerId = "8D1CD495-8E12-4F42-9971-C31B25734418";
shapes = (
{
closed = 1;
nodes = (
(929,615,l),
(942,690,l),
(581,690,l),
(580,680,l),
(546,692,o),
(508,699,o),
(468,699,cs),
(276,699,o),
(93,541,o),
(58,345,cs),
(24,150,o),
(151,-9,o),
(343,-9,cs),
(383,-9,o),
(423,-2,o),
(461,10,c),
(460,0,l),
(820,0,l),
(833,75,l),
(538,75,l),
(578,307,l),
(835,307,l),
(849,383,l),
(592,383,l),
(633,615,l)
);
},
{
closed = 1;
nodes = (
(206,67,o),
(106,192,o),
(133,345,cs),
(160,498,o),
(304,623,o),
(456,623,cs),
(496,623,o),
(533,614,o),
(565,598,c),
(476,92,l),
(438,76,o),
(398,67,o),
(358,67,cs)
);
}
);
width = 933;
},
{
layerId = "EE06C6DC-CF8C-4948-A893-3A90CCE35999";
shapes = (
{
closed = 1;
nodes = (
(926,534,l),
(954,690,l),
(562,690,l),
(560,681,l),
(528,692,o),
(491,699,o),
(451,699,cs),
(259,699,o),
(77,541,o),
(42,345,cs),
(8,150,o),
(134,-9,o),
(326,-9,cs),
(366,-9,o),
(406,-2,o),
(442,9,c),
(440,0,l),
(832,0,l),
(860,156,l),
(636,156,l),
(656,266,l),
(841,266,l),
(869,424,l),
(684,424,l),
(703,534,l)
);
},
{
closed = 1;
nodes = (
(263,172,o),
(202,248,o),
(219,345,cs),
(236,443,o),
(324,518,o),
(419,518,cs),
(463,518,o),
(498,502,o),
(524,476,c),
(478,214,l),
(443,188,o),
(402,172,o),
(358,172,cs)
);
}
);
width = 919;
}
);
leftKerningGroup = public.kern2.C2;
unicode = 338;
},
{
glyphname = Omega;
layers = (
{
layerId = "067991BB-F7E6-4D77-8E89-F1D1828DD7C4";
shapes = (
{
closed = 1;
nodes = (
(21,0,l),
(259,0,l),
(261,12,l),
(172,62,o),
(90,187,o),
(119,352,cs),
(149,520,o),
(299,673,o),
(490,673,cs),
(689,673,o),
(765,495,o),
(741,354,c),
(711,182,o),
(585,60,o),
(478,12,c),
(475,0,l),
(716,0,l),
(718,16,l),
(533,16,l),
(535,25,l),
(625,76,o),
(734,197,o),
(762,354,cs),
(793,530,o),
(686,689,o),
(492,689,cs),
(303,689,o),
(132,543,o),
(98,352,cs),
(71,201,o),
(129,89,o),
(208,25,c),
(207,16,l),
(24,16,l)
);
}
);
width = 843;
},
{
layerId = "8D1CD495-8E12-4F42-9971-C31B25734418";
shapes = (
{
closed = 1;
nodes = (
(4,0,l),
(264,0,l),
(271,39,l),
(192,84,o),
(125,200,o),
(151,350,cs),
(179,507,o),
(306,637,o),
(467,637,cs),
(634,637,o),
(698,488,o),
(675,352,c),
(647,196,o),
(540,85,o),
(443,39,c),
(437,0,l),
(696,0,l),
(706,53,l),
(550,53,l),
(551,60,l),
(630,112,o),
(721,225,o),
(745,362,cs),
(775,534,o),
(675,691,o),
(476,691,cs),
(282,691,o),
(116,547,o),
(83,360,cs),
(59,224,o),
(108,117,o),
(171,60,c),
(169,53,l),
(14,53,l)
);
}
);
width = 808;
},
{
layerId = "EE06C6DC-CF8C-4948-A893-3A90CCE35999";
shapes = (
{
closed = 1;
nodes = (
(-14,0,l),
(299,0,l),
(318,108,l),
(261,140,o),
(226,229,o),
(247,346,cs),
(270,475,o),
(344,547,o),
(429,547,cs),
(513,547,o),
(551,473,o),
(529,346,cs),
(508,229,o),
(450,150,o),
(377,108,c),
(358,0,l),
(668,0,l),
(694,144,l),
(605,144,l),
(606,146,l),
(661,202,o),
(708,296,o),
(723,381,cs),
(752,543,o),
(667,695,o),
(452,695,cs),
(249,695,o),
(99,557,o),
(68,381,cs),
(50,281,o),
(75,187,o),
(97,146,c),
(97,144,l),
(12,144,l)
);
}
);
width = 760;
}
);
unicode = 937;
},
{
glyphname = Oslash;
leftMetricsKey = O;
widthMetricsKey = O;
layers = (
{
layerId = "067991BB-F7E6-4D77-8E89-F1D1828DD7C4";
shapes = (
{
closed = 1;
nodes = (
(726,682,l),
(712,692,l),
(668,639,l),
(619,677,o),
(557,699,o),
(485,699,cs),
(294,699,o),
(111,541,o),
(76,345,cs),
(55,228,o),
(93,124,o),
(168,60,c),
(121,6,l),
(135,-4,l),
(182,49,l),
(230,13,o),
(292,-9,o),
(361,-9,cs),
(554,-9,o),
(736,150,o),
(770,345,cs),
(791,462,o),
(755,566,o),
(681,630,c)
);
},
{
closed = 1;
nodes = (
(129,530,o),
(302,679,o),
(482,679,cs),
(550,679,o),
(608,658,o),
(653,623,c),
(182,76,l),
(112,137,o),
(76,234,o),
(96,345,cs)
);
},
{
closed = 1;
nodes = (
(298,11,o),
(241,31,o),
(195,65,c),
(666,613,l),
(736,552,o),
(771,456,o),
(751,345,cs),
(718,160,o),
(545,11,o),
(364,11,cs)
);
}
);
width = 832;
},
{
layerId = "8D1CD495-8E12-4F42-9971-C31B25734418";
shapes = (
{
closed = 1;
nodes = (
(747,696,l),
(699,731,l),
(633,653,l),
(587,682,o),
(531,699,o),
(468,699,cs),
(276,699,o),
(93,541,o),
(58,345,cs),
(39,237,o),
(71,139,o),
(134,75,c),
(64,-8,l),
(113,-42,l),
(181,36,l),
(227,8,o),
(281,-9,o),
(343,-9,cs),
(535,-9,o),
(719,150,o),
(753,345,cs),
(772,454,o),
(742,550,o),
(678,615,c)
);
},
{
closed = 1;
nodes = (
(162,498,o),
(304,621,o),
(454,621,cs),
(501,621,o),
(541,609,o),
(576,588,c),
(189,138,l),
(143,189,o),
(120,262,o),
(135,345,cs)
);
},
{
closed = 1;
nodes = (
(311,69,o),
(271,81,o),
(236,102,c),
(622,550,l),
(667,501,o),
(689,427,o),
(675,345,cs),
(648,192,o),
(508,69,o),
(357,69,cs)
);
}
);
width = 795;
},
{
layerId = "EE06C6DC-CF8C-4948-A893-3A90CCE35999";
shapes = (
{
closed = 1;
nodes = (
(757,689,l),
(664,752,l),
(590,668,l),
(550,689,o),
(503,699,o),
(451,699,cs),
(259,699,o),
(77,541,o),
(42,345,cs),
(25,247,o),
(47,158,o),
(99,94,c),
(19,1,l),
(113,-62,l),
(187,23,l),
(227,2,o),
(274,-9,o),
(326,-9,cs),
(518,-9,o),
(702,150,o),
(736,345,cs),
(753,443,o),
(729,533,o),
(678,597,c)
);
},
{
closed = 1;
nodes = (
(237,444,o),
(323,516,o),
(419,516,cs),
(434,516,o),
(446,514,o),
(458,513,c),
(230,247,l),
(217,275,o),
(214,309,o),
(220,345,cs)
);
},
{
closed = 1;
nodes = (
(343,174,o),
(332,176,o),
(319,178,c),
(547,443,l),
(559,415,o),
(563,383,o),
(556,345,cs),
(539,246,o),
(454,174,o),
(358,174,cs)
);
}
);
width = 761;
}
);
unicode = 216;
},
{
glyphname = P;
layers = (
{
layerId = "067991BB-F7E6-4D77-8E89-F1D1828DD7C4";
shapes = (
{
closed = 1;
nodes = (
(160,690,l),
(38,0,l),
(59,0,l),
(116,326,l),
(307,326,ls),
(405,326,o),
(500,407,o),
(518,508,cs),
(536,610,o),
(469,690,o),
(371,690,cs)
);
},
{
closed = 1;
nodes = (
(120,346,l),
(177,670,l),
(367,670,ls),
(455,670,o),
(513,598,o),
(497,508,cs),
(481,417,o),
(399,346,o),
(310,346,cs)
);
}
);
width = 513;
},
{
layerId = "8D1CD495-8E12-4F42-9971-C31B25734418";
shapes = (
{
closed = 1;
nodes = (
(144,690,l),
(23,0,l),
(100,0,l),
(154,305,l),
(321,305,ls),
(427,305,o),
(525,389,o),
(544,497,cs),
(563,604,o),
(495,690,o),
(389,690,cs)
);
},
{
closed = 1;
nodes = (
(167,379,l),
(208,615,l),
(368,615,ls),
(435,615,o),
(481,567,o),
(468,496,cs),
(455,422,o),
(394,379,o),
(327,379,cs)
);
}
);
width = 526;
},
{
layerId = "EE06C6DC-CF8C-4948-A893-3A90CCE35999";
shapes = (
{
closed = 1;
nodes = (
(124,690,l),
(3,0,l),
(186,0,l),
(233,266,l),
(356,266,ls),
(476,266,o),
(582,354,o),
(603,475,cs),
(624,594,o),
(551,690,o),
(431,690,cs)
);
},
{
closed = 1;
nodes = (
(259,417,l),
(279,528,l),
(373,528,ls),
(410,528,o),
(433,506,o),
(427,474,cs),
(421,441,o),
(390,417,o),
(353,417,cs)
);
}
);
width = 569;
}
);
leftKerningGroup = public.kern2.B;
unicode = 80;
},
{
glyphname = Q;
layers = (
{
layerId = "D1832D54-307F-4077-BFA3-B4D1D022CEF5";
name = "#instance";
shapes = (
{
closed = 1;
nodes = (
(705.833,21.733,l),
(548.833,21.733,l),
(479.633,10.967,l),
(623.567,58.433,o),
(742.567,190.8,o),
(769.433,345,cs),
(804.433,541,o),
(677.4,699,o),
(484.433,699,cs),
(293.4,699,o),
(110.4,541,o),
(75.4,345,cs),
(41.4,150,o),
(169.367,-9,o),
(360.4,-9,cs),
(387.367,-9,o),
(414.4,-6,o),
(441.367,0,c),
(701.533,0,l)
);
},
{
closed = 1;
nodes = (
(130.1,528.933,o),
(302.067,677.067,o),
(481.067,677.067,cs),
(661.067,677.067,o),
(781.267,528.933,o),
(748.467,345,cs),
(715.667,161.067,o),
(543.767,12.933,o),
(363.767,12.933,cs),
(184.767,12.933,o),
(64.5,161.067,o),
(97.3,345,cs)
);
}
);
width = 831;
},
{
layerId = "067991BB-F7E6-4D77-8E89-F1D1828DD7C4";
shapes = (
{
closed = 1;
nodes = (
(705,20,l),
(546,20,l),
(478,10,l),
(623,57,o),
(743,190,o),
(770,345,cs),
(805,541,o),
(678,699,o),
(485,699,cs),
(294,699,o),
(111,541,o),
(76,345,cs),
(42,150,o),
(170,-9,o),
(361,-9,cs),
(388,-9,o),
(415,-6,o),
(442,0,c),
(701,0,l)
);
},
{
closed = 1;
nodes = (
(129,530,o),
(302,679,o),
(482,679,cs),
(663,679,o),
(784,530,o),
(751,345,cs),
(718,160,o),
(545,11,o),
(364,11,cs),
(184,11,o),
(63,160,o),
(96,345,cs)
);
}
);
width = 832;
},
{
layerId = "8D1CD495-8E12-4F42-9971-C31B25734418";
shapes = (
{
closed = 1;
nodes = (
(730,72,l),
(631,72,l),
(527,39,l),
(640,100,o),
(730,214,o),
(753,345,cs),
(788,541,o),
(660,699,o),
(468,699,cs),
(276,699,o),
(93,541,o),
(58,345,cs),
(24,150,o),
(151,-9,o),
(343,-9,cs),
(369,-9,o),
(397,-6,o),
(423,0,c),
(717,0,l)
);
},
{
closed = 1;
nodes = (
(162,498,o),
(304,621,o),
(454,621,cs),
(605,621,o),
(702,498,o),
(675,345,cs),
(648,192,o),
(508,69,o),
(357,69,cs),
(207,69,o),
(108,192,o),
(135,345,cs)
);
}
);
width = 802;
},
{
layerId = "EE06C6DC-CF8C-4948-A893-3A90CCE35999";
shapes = (
{
closed = 1;
nodes = (
(722,127,l),
(668,127,l),
(582,87,l),
(660,151,o),
(718,243,o),
(736,345,cs),
(771,541,o),
(643,699,o),
(451,699,cs),
(259,699,o),
(77,541,o),
(42,345,cs),
(8,150,o),
(134,-9,o),
(326,-9,cs),
(353,-9,o),
(381,-6,o),
(407,0,c),
(700,0,l)
);
},
{
closed = 1;
nodes = (
(237,444,o),
(323,516,o),
(419,516,cs),
(515,516,o),
(573,444,o),
(556,345,cs),
(539,246,o),
(454,174,o),
(358,174,cs),
(262,174,o),
(203,246,o),
(220,345,cs)
);
}
);
width = 762;
}
);
leftKerningGroup = public.kern2.C2;
rightKerningGroup = public.kern1.E;
unicode = 81;
},
{
glyphname = R;
layers = (
{
layerId = "067991BB-F7E6-4D77-8E89-F1D1828DD7C4";
shapes = (
{
closed = 1;
nodes = (
(316,327,l),
(412,332,o),
(501,412,o),
(518,508,cs),
(536,610,o),
(469,690,o),
(371,690,cs),
(160,690,l),
(38,0,l),
(59,0,l),
(116,327,l),
(297,327,l),
(442,0,l),
(465,0,l)
);
},
{
closed = 1;
nodes = (
(120,346,l),
(177,670,l),
(367,670,ls),
(455,670,o),
(513,598,o),
(497,508,cs),
(481,417,o),
(399,346,o),
(310,346,cs)
);
}
);
width = 542;
},
{
layerId = "8D1CD495-8E12-4F42-9971-C31B25734418";
shapes = (
{
closed = 1;
nodes = (
(356,313,l),
(448,327,o),
(528,403,o),
(544,496,cs),
(563,604,o),
(494,690,o),
(389,690,cs),
(144,690,l),
(23,0,l),
(100,0,l),
(154,309,l),
(278,309,l),
(413,0,l),
(501,0,l)
);
},
{
closed = 1;
nodes = (
(167,383,l),
(208,612,l),
(371,612,ls),
(437,612,o),
(480,565,o),
(468,497,cs),
(456,429,o),
(397,383,o),
(330,383,cs)
);
}
);
width = 562;
},
{
layerId = "EE06C6DC-CF8C-4948-A893-3A90CCE35999";
shapes = (
{
closed = 1;
nodes = (
(437,269,l),
(520,298,o),
(585,375,o),
(602,470,cs),
(623,591,o),
(553,690,o),
(431,690,cs),
(124,690,l),
(3,0,l),
(186,0,l),
(229,247,l),
(259,247,l),
(369,0,l),
(576,0,l)
);
},
{
closed = 1;
nodes = (
(255,395,l),
(279,528,l),
(373,528,ls),
(410,528,o),
(432,500,o),
(425,462,cs),
(418,423,o),
(385,395,o),
(349,395,cs)
);
}
);
width = 617;
}
);
leftKerningGroup = public.kern2.B;
unicode = 82;
},
{
glyphname = S;
layers = (
{
layerId = "067991BB-F7E6-4D77-8E89-F1D1828DD7C4";
shapes = (
{
closed = 1;
nodes = (
(297,-9,o),
(412,45,o),
(433,164,cs),
(472,384,o),
(109,333,o),
(145,536,cs),
(162,634,o),
(252,679,o),
(328,679,cs),
(394,679,o),
(440,645,o),
(460,609,c),
(478,621,l),
(455,662,o),
(403,699,o),
(329,699,cs),
(247,699,o),
(145,649,o),
(125,535,cs),
(86,314,o),
(449,366,o),
(413,164,cs),
(395,64,o),
(300,11,o),
(206,11,cs),
(110,11,o),
(50,64,o),
(37,128,c),
(17,121,l),
(33,48,o),
(101,-9,o),
(201,-9,cs)
);
}
);
width = 505;
},
{
layerId = "8D1CD495-8E12-4F42-9971-C31B25734418";
shapes = (
{
closed = 1;
nodes = (
(313,-9,o),
(419,61,o),
(441,183,cs),
(482,418,o),
(145,361,o),
(173,522,cs),
(185,589,o),
(244,622,o),
(305,622,cs),
(356,622,o),
(395,600,o),
(416,561,c),
(484,612,l),
(454,661,o),
(394,699,o),
(317,699,cs),
(213,699,o),
(115,630,o),
(95,517,cs),
(56,294,o),
(394,349,o),
(364,180,cs),
(351,109,o),
(287,69,o),
(213,69,cs),
(138,69,o),
(89,111,o),
(76,173,c),
(-1,132,l),
(20,47,o),
(95,-9,o),
(198,-9,cs)
);
}
);
width = 492;
},
{
layerId = "EE06C6DC-CF8C-4948-A893-3A90CCE35999";
shapes = (
{
closed = 1;
nodes = (
(362,-9,o),
(490,69,o),
(513,202,cs),
(560,467,o),
(244,401,o),
(261,499,cs),
(265,524,o),
(286,536,o),
(310,536,cs),
(341,536,o),
(374,515,o),
(404,476,c),
(545,595,l),
(502,660,o),
(426,699,o),
(341,699,cs),
(234,699,o),
(101,637,o),
(74,486,cs),
(32,245,o),
(347,302,o),
(330,205,cs),
(326,183,o),
(304,165,o),
(264,165,cs),
(207,165,o),
(166,196,o),
(151,247,c),
(-14,152,l),
(17,64,o),
(105,-9,o),
(231,-9,cs)
);
}
);
width = 552;
}
);
unicode = 83;
},
{
glyphname = Scedilla;
leftMetricsKey = S;
widthMetricsKey = S;
layers = (
{
layerId = "067991BB-F7E6-4D77-8E89-F1D1828DD7C4";
shapes = (
{
closed = 1;
nodes = (
(472,384,o),
(109,333,o),
(145,536,cs),
(162,634,o),
(252,679,o),
(328,679,cs),
(394,679,o),
(440,645,o),
(460,609,c),
(478,621,l),
(455,662,o),
(403,699,o),
(329,699,cs),
(247,699,o),
(145,649,o),
(125,535,cs),
(86,314,o),
(449,366,o),
(413,164,cs),
(395,64,o),
(300,11,o),
(206,11,cs),
(110,11,o),
(50,64,o),
(37,128,c),
(17,121,l),
(31,52,o),
(94,-3,o),
(186,-9,c),
(143,-76,l),
(157,-91,l),
(221,-72,o),
(264,-99,o),
(255,-152,cs),
(248,-190,o),
(214,-220,o),
(176,-220,cs),
(147,-220,o),
(111,-203,o),
(97,-181,c),
(80,-193,l),
(97,-219,o),
(139,-239,o),
(173,-239,cs),
(222,-239,o),
(266,-200,o),
(274,-152,cs),
(285,-91,o),
(238,-55,o),
(168,-70,c),
(204,-9,l),
(300,-8,o),
(412,46,o),
(433,164,cs)
);
}
);
width = 505;
},
{
layerId = "8D1CD495-8E12-4F42-9971-C31B25734418";
shapes = (
{
closed = 1;
nodes = (
(482,418,o),
(145,361,o),
(173,522,cs),
(185,589,o),
(244,622,o),
(305,622,cs),
(356,622,o),
(395,600,o),
(416,561,c),
(484,612,l),
(454,661,o),
(394,699,o),
(317,699,cs),
(213,699,o),
(115,630,o),
(95,517,cs),
(56,294,o),
(394,349,o),
(364,180,cs),
(351,109,o),
(287,69,o),
(213,69,cs),
(138,69,o),
(89,111,o),
(76,173,c),
(-1,132,l),
(17,56,o),
(79,3,o),
(163,-7,c),
(114,-81,l),
(145,-105,l),
(197,-85,o),
(233,-102,o),
(226,-144,cs),
(221,-173,o),
(194,-196,o),
(167,-196,cs),
(144,-196,o),
(118,-181,o),
(108,-162,c),
(66,-178,l),
(76,-213,o),
(118,-239,o),
(159,-239,cs),
(212,-239,o),
(259,-197,o),
(268,-144,cs),
(278,-86,o),
(236,-48,o),
(172,-61,c),
(207,-9,l),
(319,-5,o),
(420,64,o),
(441,183,cs)
);
}
);
width = 492;
},
{
layerId = "EE06C6DC-CF8C-4948-A893-3A90CCE35999";
shapes = (
{
closed = 1;
nodes = (
(560,467,o),
(244,401,o),
(261,499,cs),
(265,524,o),
(286,536,o),
(310,536,cs),
(341,536,o),
(374,515,o),
(404,476,c),
(545,595,l),
(502,660,o),
(426,699,o),
(341,699,cs),
(234,699,o),
(101,637,o),
(74,486,cs),
(32,245,o),
(347,302,o),
(330,205,cs),
(326,183,o),
(304,165,o),
(264,165,cs),
(207,165,o),
(166,196,o),
(151,247,c),
(-14,152,l),
(13,73,o),
(85,7,o),
(190,-7,c),
(130,-88,l),
(182,-122,l),
(221,-101,o),
(246,-108,o),
(241,-135,cs),
(238,-151,o),
(224,-164,o),
(209,-164,cs),
(195,-164,o),
(183,-153,o),
(179,-141,c),
(101,-165,l),
(106,-206,o),
(147,-240,o),
(196,-240,cs),
(253,-240,o),
(307,-194,o),
(317,-135,cs),
(327,-80,o),
(289,-42,o),
(233,-51,c),
(268,-7,l),
(385,6,o),
(492,81,o),
(513,202,cs)
);
}
);
width = 552;
}
);
unicode = 350;
},
{
glyphname = Schwa;
layers = (
{
layerId = "067991BB-F7E6-4D77-8E89-F1D1828DD7C4";
shapes = (
{
closed = 1;
nodes = (
(765,351,l),
(762,332,l),
(93,332,l),
(68,152,o),
(188,9,o),
(366,9,cs),
(547,9,o),
(721,159,o),
(754,345,cs),
(787,531,o),
(665,681,o),
(484,681,cs),
(362,681,o),
(245,614,o),
(171,515,c),
(157,524,l),
(235,629,o),
(359,699,o),
(487,699,cs),
(678,699,o),
(807,541,o),
(772,345,cs),
(738,150,o),
(553,-9,o),
(362,-9,cs),
(169,-9,o),
(44,150,o),
(78,345,cs),
(79,351,l)
);
}
);
width = 832;
},
{
layerId = "8D1CD495-8E12-4F42-9971-C31B25734418";
shapes = (
{
closed = 1;
nodes = (
(722,366,l),
(710,297,l),
(129,297,l),
(127,163,o),
(222,64,o),
(358,64,cs),
(510,64,o),
(655,189,o),
(683,345,cs),
(711,501,o),
(609,626,o),
(457,626,cs),
(354,626,o),
(254,569,o),
(193,484,c),
(138,520,l),
(216,627,o),
(341,699,o),
(470,699,cs),
(663,699,o),
(789,541,o),
(754,345,cs),
(720,150,o),
(538,-9,o),
(345,-9,cs),
(153,-9,o),
(27,150,o),
(61,345,c),
(64,366,l)
);
}
);
width = 800;
},
{
layerId = "EE06C6DC-CF8C-4948-A893-3A90CCE35999";
shapes = (
{
closed = 1;
nodes = (
(676,383,l),
(652,248,l),
(217,248,l),
(239,197,o),
(288,163,o),
(355,163,cs),
(457,163,o),
(548,240,o),
(567,345,cs),
(586,450,o),
(522,527,o),
(420,527,cs),
(347,527,o),
(282,489,o),
(242,429,c),
(107,506,l),
(184,621,o),
(316,699,o),
(450,699,cs),
(642,699,o),
(770,541,o),
(735,345,cs),
(701,150,o),
(517,-9,o),
(325,-9,cs),
(133,-9,o),
(6,150,o),
(40,345,cs),
(46,383,l)
);
}
);
width = 760;
}
);
unicode = 399;
},
{
glyphname = T;
layers = (
{
layerId = "067991BB-F7E6-4D77-8E89-F1D1828DD7C4";
shapes = (
{
closed = 1;
nodes = (
(510,690,l),
(93,690,l),
(90,670,l),
(288,670,l),
(170,1,l),
(189,1,l),
(307,670,l),
(506,670,l)
);
}
);
width = 464;
},
{
layerId = "8D1CD495-8E12-4F42-9971-C31B25734418";
shapes = (
{
closed = 1;
nodes = (
(527,690,l),
(77,690,l),
(63,612,l),
(249,612,l),
(141,0,l),
(219,0,l),
(327,612,l),
(513,612,l)
);
}
);
width = 467;
},
{
layerId = "EE06C6DC-CF8C-4948-A893-3A90CCE35999";
shapes = (
{
closed = 1;
nodes = (
(566,690,l),
(58,690,l),
(29,528,l),
(192,528,l),
(99,0,l),
(281,0,l),
(374,528,l),
(538,528,l)
);
}
);
width = 485;
}
);
unicode = 84;
},
{
glyphname = Tbar;
leftMetricsKey = T;
widthMetricsKey = T;
layers = (
{
layerId = "067991BB-F7E6-4D77-8E89-F1D1828DD7C4";
shapes = (
{
closed = 1;
nodes = (
(506,670,l),
(510,690,l),
(93,690,l),
(90,670,l),
(288,670,l),
(232,355,l),
(128,355,l),
(125,335,l),
(229,335,l),
(170,1,l),
(189,1,l),
(248,335,l),
(352,335,l),
(356,355,l),
(252,355,l),
(307,670,l)
);
}
);
width = 464;
},
{
layerId = "8D1CD495-8E12-4F42-9971-C31B25734418";
shapes = (
{
closed = 1;
nodes = (
(513,612,l),
(527,690,l),
(77,690,l),
(63,612,l),
(249,612,l),
(209,381,l),
(114,381,l),
(102,312,l),
(196,312,l),
(141,0,l),
(219,0,l),
(274,312,l),
(366,312,l),
(378,381,l),
(286,381,l),
(327,612,l)
);
}
);
width = 467;
},
{
layerId = "EE06C6DC-CF8C-4948-A893-3A90CCE35999";
shapes = (
{
closed = 1;
nodes = (
(538,528,l),
(566,690,l),
(58,690,l),
(29,528,l),
(192,528,l),
(167,385,l),
(88,385,l),
(74,304,l),
(152,304,l),
(99,0,l),
(281,0,l),
(335,304,l),
(413,304,l),
(427,385,l),
(349,385,l),
(374,528,l)
);
}
);
width = 485;
}
);
unicode = 358;
},
{
glyphname = Tcedilla;
leftMetricsKey = T;
widthMetricsKey = T;
layers = (
{
layerId = "067991BB-F7E6-4D77-8E89-F1D1828DD7C4";
shapes = (
{
closed = 1;
nodes = (
(201,-238,o),
(246,-199,o),
(254,-151,cs),
(265,-90,o),
(218,-54,o),
(148,-69,c),
(188,1,l),
(189,1,l),
(307,670,l),
(506,670,l),
(510,690,l),
(93,690,l),
(90,670,l),
(288,670,l),
(170,1,l),
(171,1,l),
(123,-75,l),
(137,-90,l),
(202,-71,o),
(243,-98,o),
(234,-151,cs),
(227,-189,o),
(193,-219,o),
(156,-219,cs),
(126,-219,o),
(90,-201,o),
(77,-180,c),
(60,-192,l),
(77,-217,o),
(119,-238,o),
(153,-238,cs)
);
}
);
width = 464;
},
{
layerId = "8D1CD495-8E12-4F42-9971-C31B25734418";
shapes = (
{
closed = 1;
nodes = (
(202,-239,o),
(250,-197,o),
(259,-144,cs),
(269,-86,o),
(226,-48,o),
(162,-61,c),
(202,0,l),
(219,0,l),
(327,612,l),
(513,612,l),
(527,690,l),
(77,690,l),
(63,612,l),
(249,612,l),
(141,0,l),
(158,0,l),
(104,-81,l),
(134,-105,l),
(188,-85,o),
(222,-102,o),
(215,-144,cs),
(210,-173,o),
(184,-195,o),
(157,-195,cs),
(135,-195,o),
(108,-181,o),
(99,-162,c),
(56,-178,l),
(66,-213,o),
(108,-239,o),
(149,-239,cs)
);
}
);
width = 467;
},
{
layerId = "EE06C6DC-CF8C-4948-A893-3A90CCE35999";
shapes = (
{
closed = 1;
nodes = (
(210,-239,o),
(263,-193,o),
(273,-134,cs),
(283,-78,o),
(248,-40,o),
(190,-50,c),
(230,0,l),
(281,0,l),
(374,528,l),
(538,528,l),
(566,690,l),
(58,690,l),
(29,528,l),
(192,528,l),
(99,0,l),
(151,0,l),
(87,-87,l),
(139,-120,l),
(177,-100,o),
(204,-106,o),
(199,-134,cs),
(196,-150,o),
(181,-163,o),
(166,-163,cs),
(152,-163,o),
(141,-152,o),
(136,-139,c),
(59,-162,l),
(61,-205,o),
(103,-239,o),
(153,-239,cs)
);
}
);
width = 485;
}
);
unicode = 354;
},
{
glyphname = Thorn;
layers = (
{
layerId = "067991BB-F7E6-4D77-8E89-F1D1828DD7C4";
shapes = (
{
closed = 1;
nodes = (
(170,598,l),
(187,690,l),
(166,690,l),
(44,0,l),
(65,0,l),
(106,234,l),
(296,234,ls),
(394,234,o),
(490,315,o),
(508,416,cs),
(526,518,o),
(459,598,o),
(361,598,cs)
);
},
{
closed = 1;
nodes = (
(110,254,l),
(167,578,l),
(356,578,ls),
(445,578,o),
(503,506,o),
(487,416,cs),
(471,325,o),
(388,254,o),
(299,254,cs)
);
}
);
width = 535;
},
{
layerId = "8D1CD495-8E12-4F42-9971-C31B25734418";
shapes = (
{
closed = 1;
nodes = (
(208,595,l),
(225,690,l),
(151,690,l),
(29,0,l),
(103,0,l),
(140,210,l),
(309,210,ls),
(414,210,o),
(513,294,o),
(532,400,cs),
(551,507,o),
(482,595,o),
(377,595,cs)
);
},
{
closed = 1;
nodes = (
(154,285,l),
(195,519,l),
(358,519,ls),
(426,519,o),
(468,471,o),
(456,403,cs),
(444,333,o),
(386,285,o),
(316,285,cs)
);
}
);
width = 546;
},
{
layerId = "EE06C6DC-CF8C-4948-A893-3A90CCE35999";
shapes = (
{
closed = 1;
nodes = (
(290,587,l),
(308,690,l),
(131,690,l),
(9,0,l),
(186,0,l),
(215,164,l),
(343,164,ls),
(460,164,o),
(566,255,o),
(586,370,cs),
(607,491,o),
(534,587,o),
(417,587,cs)
);
},
{
closed = 1;
nodes = (
(243,323,l),
(262,429,l),
(383,429,ls),
(412,429,o),
(432,406,o),
(427,375,cs),
(422,348,o),
(394,323,o),
(365,323,cs)
);
}
);
width = 587;
}
);
unicode = 222;
},
{
glyphname = U;
layers = (
{
anchors = (
{
name = b.uni0326;
position = "{284, 0}";
},
{
name = b.uni0328_1;
position = "{369, 9}";
},
{
name = t.uni0308_2;
position = "{284, 690}";
},
{
name = m.uni0335_3;
position = "{-53, 0}";
}
);
layerId = "067991BB-F7E6-4D77-8E89-F1D1828DD7C4";
shapes = (
{
closed = 1;
nodes = (
(399,-9,o),
(523,98,o),
(546,230,cs),
(627,690,l),
(608,690,l),
(527,230,ls),
(506,109,o),
(392,11,o),
(272,11,cs),
(152,11,o),
(74,109,o),
(95,230,cs),
(177,690,l),
(157,690,l),
(76,230,ls),
(53,98,o),
(140,-9,o),
(269,-9,cs)
);
}
);
width = 646;
},
{
anchors = (
{
name = b.uni0326;
position = "{287, 0}";
},
{
name = b.uni0328_1;
position = "{411, 18}";
},
{
name = t.uni0308_2;
position = "{287, 690}";
},
{
name = m.uni0335_3;
position = "{-53, 0}";
}
);
layerId = "8D1CD495-8E12-4F42-9971-C31B25734418";
shapes = (
{
closed = 1;
nodes = (
(422,-9,o),
(547,91,o),
(571,227,cs),
(653,690,l),
(576,690,l),
(496,239,ls),
(479,141,o),
(390,68,o),
(287,68,cs),
(184,68,o),
(121,141,o),
(138,239,cs),
(218,690,l),
(141,690,l),
(60,227,ls),
(36,91,o),
(126,-9,o),
(273,-9,cs)
);
}
);
width = 657;
},
{
anchors = (
{
name = b.uni0326;
position = "{304, 0}";
},
{
name = b.uni0328_1;
position = "{488, 40}";
},
{
name = t.uni0308_2;
position = "{304, 690}";
},
{
name = m.uni0335_3;
position = "{-53, 0}";
}
);
layerId = "EE06C6DC-CF8C-4948-A893-3A90CCE35999";
shapes = (
{
closed = 1;
nodes = (
(455,-9,o),
(602,91,o),
(625,219,cs),
(708,690,l),
(524,690,l),
(448,255,ls),
(438,198,o),
(381,153,o),
(320,153,cs),
(259,153,o),
(218,198,o),
(228,255,cs),
(305,690,l),
(121,690,l),
(38,219,ls),
(15,91,o),
(127,-9,o),
(291,-9,cs)
);
}
);
width = 691;
}
);
unicode = 85;
},
{
glyphname = Uogonek;
leftMetricsKey = U;
widthMetricsKey = U;
layers = (
{
layerId = "067991BB-F7E6-4D77-8E89-F1D1828DD7C4";
shapes = (
{
closed = 1;
nodes = (
(218,-194,o),
(241,-230,o),
(297,-230,cs),
(336,-230,o),
(362,-217,o),
(395,-190,c),
(388,-176,l),
(358,-199,o),
(336,-211,o),
(300,-211,cs),
(255,-211,o),
(237,-181,o),
(245,-138,cs),
(256,-77,o),
(307,-33,o),
(350,5,c),
(447,37,o),
(527,125,o),
(546,230,cs),
(627,690,l),
(608,690,l),
(527,230,ls),
(506,109,o),
(392,11,o),
(272,11,cs),
(152,11,o),
(74,109,o),
(95,230,cs),
(177,690,l),
(157,690,l),
(76,230,ls),
(53,98,o),
(140,-9,o),
(269,-9,cs),
(291,-9,o),
(310,-6,o),
(331,0,c),
(329,7,l),
(284,-37,o),
(239,-79,o),
(228,-139,cs)
);
}
);
width = 646;
},
{
layerId = "8D1CD495-8E12-4F42-9971-C31B25734418";
shapes = (
{
closed = 1;
nodes = (
(198,-182,o),
(232,-218,o),
(293,-220,cs),
(338,-222,o),
(381,-207,o),
(421,-173,c),
(402,-135,l),
(377,-164,o),
(344,-179,o),
(311,-179,cs),
(272,-179,o),
(256,-152,o),
(262,-117,cs),
(272,-59,o),
(323,-22,o),
(384,10,c),
(481,46,o),
(553,127,o),
(571,227,cs),
(653,690,l),
(576,690,l),
(496,239,ls),
(479,141,o),
(390,68,o),
(287,68,cs),
(184,68,o),
(121,141,o),
(138,239,cs),
(218,690,l),
(141,690,l),
(60,227,ls),
(36,91,o),
(126,-9,o),
(272,-9,cs),
(285,-9,o),
(294,-9,o),
(306,-6,c),
(309,1,l),
(257,-34,o),
(217,-73,o),
(208,-123,cs)
);
}
);
width = 657;
},
{
layerId = "EE06C6DC-CF8C-4948-A893-3A90CCE35999";
shapes = (
{
closed = 1;
nodes = (
(227,-134,o),
(257,-190,o),
(337,-197,cs),
(388,-202,o),
(453,-178,o),
(499,-136,c),
(458,-59,l),
(439,-92,o),
(409,-113,o),
(381,-113,cs),
(354,-113,o),
(340,-95,o),
(347,-56,cs),
(352,-28,o),
(371,-11,o),
(404,7,c),
(518,39,o),
(608,121,o),
(625,219,cs),
(708,690,l),
(524,690,l),
(448,255,ls),
(438,198,o),
(381,153,o),
(320,153,cs),
(259,153,o),
(218,198,o),
(228,255,cs),
(305,690,l),
(121,690,l),
(38,219,ls),
(16,94,o),
(120,-5,o),
(277,-9,c),
(279,-9,o),
(280,-9,o),
(284,-9,c),
(277,1,l),
(257,-18,o),
(243,-41,o),
(238,-72,cs)
);
}
);
width = 691;
}
);
unicode = 370;
},
{
glyphname = V;
layers = (
{
layerId = "067991BB-F7E6-4D77-8E89-F1D1828DD7C4";
shapes = (
{
closed = 1;
nodes = (
(572,690,l),
(222,27,l),
(107,690,l),
(83,690,l),
(207,0,l),
(229,0,l),
(595,690,l)
);
}
);
width = 542;
},
{
layerId = "8D1CD495-8E12-4F42-9971-C31B25734418";
shapes = (
{
closed = 1;
nodes = (
(558,690,l),
(252,101,l),
(154,690,l),
(68,690,l),
(191,0,l),
(276,0,l),
(643,690,l)
);
}
);
width = 573;
},
{
layerId = "EE06C6DC-CF8C-4948-A893-3A90CCE35999";
shapes = (
{
closed = 1;
nodes = (
(537,690,l),
(317,246,l),
(254,690,l),
(48,690,l),
(171,0,l),
(376,0,l),
(742,690,l)
);
}
);
width = 653;
}
);
unicode = 86;
},
{
glyphname = W;
layers = (
{
layerId = "067991BB-F7E6-4D77-8E89-F1D1828DD7C4";
shapes = (
{
closed = 1;
nodes = (
(984,690,l),
(655,29,l),
(557,690,l),
(534,690,l),
(205,29,l),
(107,690,l),
(84,690,l),
(188,0,l),
(210,0,l),
(540,657,l),
(638,0,l),
(660,0,l),
(1006,690,l)
);
}
);
width = 954;
},
{
layerId = "8D1CD495-8E12-4F42-9971-C31B25734418";
shapes = (
{
closed = 1;
nodes = (
(909,690,l),
(641,129,l),
(577,690,l),
(473,690,l),
(214,130,l),
(144,690,l),
(61,690,l),
(150,0,l),
(234,0,l),
(511,603,l),
(577,0,l),
(658,0,l),
(989,690,l)
);
}
);
width = 913;
},
{
layerId = "EE06C6DC-CF8C-4948-A893-3A90CCE35999";
shapes = (
{
closed = 1;
nodes = (
(830,690,l),
(655,248,l),
(618,690,l),
(456,690,l),
(264,248,l),
(245,690,l),
(51,690,l),
(101,0,l),
(317,0,l),
(490,420,l),
(514,0,l),
(729,0,l),
(1025,690,l)
);
}
);
width = 936;
}
);
unicode = 87;
},
{
glyphname = X;
layers = (
{
layerId = "067991BB-F7E6-4D77-8E89-F1D1828DD7C4";
shapes = (
{
closed = 1;
nodes = (
(443,0,l),
(275,345,l),
(562,690,l),
(539,690,l),
(267,363,l),
(109,690,l),
(85,690,l),
(253,345,l),
(-38,0,l),
(-12,0,l),
(260,328,l),
(417,0,l)
);
}
);
width = 511;
},
{
layerId = "8D1CD495-8E12-4F42-9971-C31B25734418";
shapes = (
{
closed = 1;
nodes = (
(493,0,l),
(323,350,l),
(608,690,l),
(517,690,l),
(293,416,l),
(167,690,l),
(76,690,l),
(239,350,l),
(-53,0,l),
(41,0,l),
(270,285,l),
(399,0,l)
);
}
);
width = 545;
},
{
layerId = "EE06C6DC-CF8C-4948-A893-3A90CCE35999";
shapes = (
{
closed = 1;
nodes = (
(596,0,l),
(422,359,l),
(701,690,l),
(493,690,l),
(352,514,l),
(274,690,l),
(66,690,l),
(226,359,l),
(-73,0,l),
(136,0,l),
(297,205,l),
(389,0,l)
);
}
);
width = 628;
}
);
unicode = 88;
},
{
glyphname = Y;
layers = (
{
layerId = "067991BB-F7E6-4D77-8E89-F1D1828DD7C4";
shapes = (
{
closed = 1;
nodes = (
(576,690,l),
(552,690,l),
(270,348,l),
(109,690,l),
(84,690,l),
(257,330,l),
(199,0,l),
(218,0,l),
(276,330,l)
);
}
);
width = 523;
},
{
layerId = "8D1CD495-8E12-4F42-9971-C31B25734418";
shapes = (
{
closed = 1;
nodes = (
(618,690,l),
(524,690,l),
(294,408,l),
(164,690,l),
(69,690,l),
(242,327,l),
(184,0,l),
(261,0,l),
(318,328,l)
);
}
);
width = 549;
},
{
layerId = "EE06C6DC-CF8C-4948-A893-3A90CCE35999";
shapes = (
{
closed = 1;
nodes = (
(707,690,l),
(506,690,l),
(343,482,l),
(252,690,l),
(49,690,l),
(222,324,l),
(165,0,l),
(348,0,l),
(406,325,l)
);
}
);
width = 618;
}
);
unicode = 89;
},
{
glyphname = Z;
layers = (
{
layerId = "067991BB-F7E6-4D77-8E89-F1D1828DD7C4";
shapes = (
{
closed = 1;
nodes = (
(42,20,l),
(607,690,l),
(134,690,l),
(131,670,l),
(567,670,l),
(1,0,l),
(508,0,l),
(512,20,l)
);
}
);
width = 611;
},
{
layerId = "8D1CD495-8E12-4F42-9971-C31B25734418";
shapes = (
{
closed = 1;
nodes = (
(134,78,l),
(606,690,l),
(133,690,l),
(120,612,l),
(459,612,l),
(-15,0,l),
(497,0,l),
(511,78,l)
);
}
);
width = 587;
},
{
layerId = "EE06C6DC-CF8C-4948-A893-3A90CCE35999";
shapes = (
{
closed = 1;
nodes = (
(272,162,l),
(614,690,l),
(113,690,l),
(85,528,l),
(310,528,l),
(-35,0,l),
(486,0,l),
(514,162,l)
);
}
);
width = 565;
}
);
unicode = 90;
},
{
glyphname = a;
layers = (
{
anchors = (
{
name = b.uni0326;
position = "{260, 3}";
},
{
name = b.uni0328_1;
position = "{496, 0}";
},
{
name = t.uni0308_2;
position = "{217, 500}";
},
{
name = m.uni0335_3;
position = "{-53, 0}";
}
);
layerId = "D1832D54-307F-4077-BFA3-B4D1D022CEF5";
name = "#instance";
shapes = (
{
closed = 1;
nodes = (
(451.267,11.833,ls),
(403.033,11.833,o),
(390.767,39.533,o),
(399.733,90.367,cs),
(446.267,349.733,ls),
(462.433,442.6,o),
(396.9,510,o),
(292.533,510,cs),
(186.2,510,o),
(98.467,442.6,o),
(82.3,349.733,c),
(103.167,349.733,l),
(117.167,431.567,o),
(196.733,488.1,o),
(288.2,488.1,cs),
(380.633,488.1,o),
(438.433,431.567,o),
(424.433,349.733,cs),
(408.7,260.367,l),
(199.6,260.367,ls),
(117,260.367,o),
(55.633,208.267,o),
(41.6,126.133,cs),
(26.6,43.067,o),
(73.767,-10,o),
(168,-10,cs),
(254.167,-10,o),
(340.9,15.467,o),
(383.9,81.333,c),
(383.6,108.567,l),
(365.267,34,o),
(379.9,-10,o),
(440,-10,cs),
(449.133,-10,o),
(459.233,-7.933,o),
(470.233,0,c),
(472.567,11.833,l)
);
},
{
closed = 1;
nodes = (
(90.6,11.6,o),
(50.833,56.033,o),
(63.667,128.1,cs),
(75.533,194.367,o),
(127.2,238.867,o),
(196.833,238.867,cs),
(405.433,238.867,l),
(384.933,122.767,ls),
(371.933,46.8,o),
(257.667,11.6,o),
(173.8,11.6,cs)
);
}
);
width = 541;
},
{
anchors = (
{
name = b.uni0326;
position = "{260, 3}";
},
{
name = b.uni0328_1;
position = "{495, 0}";
},
{
name = t.uni0308_2;
position = "{216, 500}";
},
{
name = m.uni0335_3;
position = "{-53, 0}";
}
);
layerId = "067991BB-F7E6-4D77-8E89-F1D1828DD7C4";
shapes = (
{
closed = 1;
nodes = (
(450,10,ls),
(401,10,o),
(389,38,o),
(398,89,cs),
(445,351,ls),
(461,443,o),
(396,510,o),
(292,510,cs),
(186,510,o),
(99,443,o),
(83,351,c),
(102,351,l),
(116,433,o),
(196,490,o),
(288,490,cs),
(381,490,o),
(439,433,o),
(425,351,cs),
(409,260,l),
(199,260,ls),
(117,260,o),
(56,208,o),
(42,126,cs),
(27,43,o),
(74,-10,o),
(168,-10,cs),
(254,-10,o),
(341,15,o),
(384,81,c),
(384,109,l),
(365,34,o),
(379,-10,o),
(439,-10,cs),
(448,-10,o),
(458,-8,o),
(469,0,c),
(471,10,l)
);
},
{
closed = 1;
nodes = (
(89,10,o),
(49,55,o),
(62,128,cs),
(74,195,o),
(126,240,o),
(196,240,cs),
(406,240,l),
(385,121,ls),
(372,45,o),
(257,10,o),
(173,10,cs)
);
}
);
width = 540;
},
{
anchors = (
{
name = b.uni0326;
position = "{256, 0}";
},
{
name = b.uni0328_1;
position = "{533, 0}";
},
{
name = t.uni0308_2;
position = "{232, 500}";
},
{
name = m.uni0335_3;
position = "{-53, 0}";
}
);
layerId = "8D1CD495-8E12-4F42-9971-C31B25734418";
shapes = (
{
closed = 1;
nodes = (
(488,65,ls),
(462,65,o),
(442,84,o),
(450,130,cs),
(483,313,ls),
(504,431,o),
(423,510,o),
(308,510,cs),
(192,510,o),
(83,431,o),
(62,313,c),
(137,313,l),
(151,390,o),
(218,433,o),
(294,433,cs),
(370,433,o),
(422,390,o),
(408,313,cs),
(400,271,l),
(217,271,ls),
(117,271,o),
(45,216,o),
(30,130,cs),
(15,45,o),
(67,-10,o),
(168,-10,cs),
(259,-10,o),
(338,29,o),
(381,91,c),
(372,96,l),
(373,34,o),
(406,-10,o),
(469,-10,cs),
(482,-10,o),
(495,-6,o),
(506,0,c),
(518,65,l)
);
},
{
closed = 1;
nodes = (
(137,58,o),
(104,86,o),
(112,131,cs),
(120,176,o),
(162,206,o),
(221,206,cs),
(389,206,l),
(383,174,ls),
(370,99,o),
(277,58,o),
(197,58,cs)
);
}
);
width = 568;
},
{
anchors = (
{
name = b.uni0326;
position = "{256, 0}";
},
{
name = b.uni0328_1;
position = "{555, 0}";
},
{
name = t.uni0308_2;
position = "{255, 500}";
},
{
name = m.uni0335_3;
position = "{-53, 0}";
}
);
layerId = "EE06C6DC-CF8C-4948-A893-3A90CCE35999";
shapes = (
{
closed = 1;
nodes = (
(531,150,ls),
(516,150,o),
(512,175,o),
(519,215,cs),
(534,299,ls),
(557,428,o),
(477,510,o),
(328,510,cs),
(181,510,o),
(74,440,o),
(55,330,c),
(234,330,l),
(239,358,o),
(268,375,o),
(304,375,cs),
(344,375,o),
(366,354,o),
(360,320,cs),
(353,283,l),
(195,283,ls),
(105,283,o),
(37,224,o),
(21,134,cs),
(5,46,o),
(67,-10,o),
(177,-10,cs),
(249,-10,o),
(318,19,o),
(363,65,c),
(346,68,l),
(368,19,o),
(413,-10,o),
(475,-10,cs),
(488,-10,o),
(510,-6,o),
(528,0,c),
(554,150,l)
);
},
{
closed = 1;
nodes = (
(216,110,o),
(196,123,o),
(200,143,cs),
(204,164,o),
(219,176,o),
(240,176,cs),
(334,176,l),
(334,176,l),
(327,138,o),
(288,110,o),
(250,110,cs)
);
}
);
width = 588;
}
);
leftKerningGroup = public.kern2.a2;
rightKerningGroup = public.kern1.a;
unicode = 97;
},
{
glyphname = acute;
layers = (
{
layerId = "067991BB-F7E6-4D77-8E89-F1D1828DD7C4";
shapes = (
{
closed = 1;
nodes = (
(47,569,l),
(72,569,l),
(210,750,l),
(177,750,l)
);
}
);
width = 45;
},
{
layerId = "8D1CD495-8E12-4F42-9971-C31B25734418";
shapes = (
{
closed = 1;
nodes = (
(56,565,l),
(108,565,l),
(284,750,l),
(196,750,l)
);
}
);
width = 72;
},
{
layerId = "EE06C6DC-CF8C-4948-A893-3A90CCE35999";
shapes = (
{
closed = 1;
nodes = (
(88,563,l),
(208,563,l),
(395,750,l),
(229,750,l)
);
}
);
width = 117;
}
);
unicode = 180;
},
{
glyphname = acutecomb;
layers = (
{
layerId = "067991BB-F7E6-4D77-8E89-F1D1828DD7C4";
shapes = (
{
closed = 1;
nodes = (
(-209,569,l),
(-185,569,l),
(-47,750,l),
(-79,750,l)
);
}
);
width = 9;
},
{
layerId = "8D1CD495-8E12-4F42-9971-C31B25734418";
shapes = (
{
closed = 1;
nodes = (
(-206,565,l),
(-155,565,l),
(22,750,l),
(-66,750,l)
);
}
);
width = 13;
},
{
layerId = "EE06C6DC-CF8C-4948-A893-3A90CCE35999";
shapes = (
{
closed = 1;
nodes = (
(-240,563,l),
(-122,563,l),
(66,750,l),
(-100,750,l)
);
}
);
width = 19;
}
);
unicode = 769;
},
{
glyphname = ae;
layers = (
{
layerId = "067991BB-F7E6-4D77-8E89-F1D1828DD7C4";
shapes = (
{
closed = 1;
nodes = (
(927,255,l),
(928,263,l),
(944,404,o),
(856,510,o),
(723,510,cs),
(619,510,o),
(520,444,o),
(465,350,c),
(472,444,o),
(411,510,o),
(314,510,cs),
(224,510,o),
(135,460,o),
(102,393,c),
(118,386,l),
(155,446,o),
(236,490,o),
(311,490,cs),
(403,490,o),
(460,423,o),
(443,329,cs),
(437,295,l),
(228,295,ls),
(137,295,o),
(61,231,o),
(45,143,cs),
(29,54,o),
(91,-10,o),
(194,-10,cs),
(258,-10,o),
(356,50,o),
(433,135,c),
(459,49,o),
(534,-10,o),
(631,-10,cs),
(741,-10,o),
(851,66,o),
(901,171,c),
(881,171,l),
(834,78,o),
(736,10,o),
(635,10,cs),
(503,10,o),
(424,119,o),
(448,255,c)
);
},
{
closed = 1;
nodes = (
(839,490,o),
(919,396,o),
(911,275,c),
(452,275,l),
(488,398,o),
(600,490,o),
(720,490,cs)
);
},
{
closed = 1;
nodes = (
(106,10,o),
(50,65,o),
(64,143,cs),
(77,219,o),
(145,275,o),
(225,275,cs),
(433,275,l),
(421,236,o),
(421,189,o),
(429,154,c),
(357,70,o),
(259,10,o),
(197,10,cs)
);
}
);
width = 994;
},
{
layerId = "8D1CD495-8E12-4F42-9971-C31B25734418";
shapes = (
{
closed = 1;
nodes = (
(880,239,l),
(884,255,l),
(906,399,o),
(816,510,o),
(680,510,cs),
(600,510,o),
(522,471,o),
(466,411,c),
(447,471,o),
(389,510,o),
(308,510,cs),
(219,510,o),
(135,463,o),
(98,396,c),
(167,370,l),
(188,415,o),
(243,446,o),
(296,446,cs),
(364,446,o),
(406,396,o),
(394,328,cs),
(391,308,l),
(251,308,ls),
(136,308,o),
(51,248,o),
(34,150,cs),
(17,55,o),
(77,-10,o),
(180,-10,cs),
(247,-10,o),
(332,30,o),
(407,94,c),
(442,30,o),
(506,-10,o),
(588,-10,cs),
(701,-10,o),
(810,69,o),
(861,176,c),
(781,176,l),
(744,111,o),
(674,68,o),
(602,68,cs),
(507,68,o),
(444,143,o),
(456,239,c)
);
},
{
closed = 1;
nodes = (
(743,433,o),
(798,381,o),
(808,309,c),
(478,309,l),
(515,381,o),
(589,433,o),
(666,433,cs)
);
},
{
closed = 1;
nodes = (
(132,61,o),
(99,95,o),
(108,148,cs),
(118,205,o),
(166,236,o),
(239,236,cs),
(382,236,l),
(378,210,o),
(380,184,o),
(384,160,c),
(321,100,o),
(246,61,o),
(193,61,cs)
);
}
);
width = 937;
},
{
layerId = "EE06C6DC-CF8C-4948-A893-3A90CCE35999";
shapes = (
{
closed = 1;
nodes = (
(888,220,l),
(895,251,l),
(922,411,o),
(834,511,o),
(669,511,cs),
(601,511,o),
(540,494,o),
(488,463,c),
(453,494,o),
(399,510,o),
(330,510,cs),
(215,510,o),
(125,463,o),
(87,379,c),
(229,336,l),
(235,364,o),
(264,380,o),
(304,376,c),
(341,375,o),
(364,359,o),
(357,320,cs),
(352,294,l),
(226,294,ls),
(117,294,o),
(39,238,o),
(22,140,cs),
(6,48,o),
(56,-10,o),
(174,-10,cs),
(255,-10,o),
(325,15,o),
(384,68,c),
(425,18,o),
(494,-10,o),
(582,-10,cs),
(729,-10,o),
(832,63,o),
(872,171,c),
(702,171,l),
(688,139,o),
(653,120,o),
(604,120,cs),
(540,120,o),
(522,155,o),
(530,220,c)
);
},
{
closed = 1;
nodes = (
(695,375,o),
(716,356,o),
(724,323,c),
(556,323,l),
(573,356,o),
(601,375,o),
(649,375,cs)
);
},
{
closed = 1;
nodes = (
(223,115,o),
(205,125,o),
(209,150,cs),
(213,175,o),
(237,193,o),
(261,193,cs),
(342,193,l),
(342,185,o),
(343,179,o),
(343,173,c),
(324,136,o),
(285,115,o),
(248,115,cs)
);
}
);
width = 936;
}
);
unicode = 230;
},
{
glyphname = ampersand;
layers = (
{
layerId = "EE06C6DC-CF8C-4948-A893-3A90CCE35999";
shapes = (
{
closed = 1;
nodes = (
(670,408,l),
(592,408,l),
(608,499,l),
(431,499,l),
(415,408,l),
(344,408,ls),
(302,408,o),
(273,440,o),
(279,479,cs),
(284,509,o),
(313,533,o),
(337,534,c),
(438,534,l),
(465,689,l),
(329,689,l),
(220,700,o),
(124,605,o),
(104,493,cs),
(93,433,o),
(108,380,o),
(139,339,c),
(98,304,o),
(67,256,o),
(57,203,cs),
(36,84,o),
(131,-1,o),
(269,-1,cs),
(416,-1,o),
(537,95,o),
(560,228,cs),
(566,263,l),
(645,263,l)
);
},
{
closed = 1;
nodes = (
(254,156,o),
(220,175,o),
(225,207,cs),
(229,234,o),
(264,263,o),
(298,263,cs),
(389,263,l),
(383,228,ls),
(376,185,o),
(343,156,o),
(294,156,cs)
);
}
);
width = 666;
},
{
layerId = "8D1CD495-8E12-4F42-9971-C31B25734418";
shapes = (
{
closed = 1;
nodes = (
(581,385,l),
(517,385,l),
(536,500,l),
(463,500,l),
(442,385,l),
(308,385,ls),
(236,385,o),
(189,437,o),
(202,507,cs),
(214,575,o),
(274,612,o),
(334,612,c),
(480,612,l),
(494,690,l),
(335,690,l),
(237,691,o),
(145,615,o),
(127,511,cs),
(115,445,o),
(137,388,o),
(179,351,c),
(122,316,o),
(77,256,o),
(65,190,cs),
(46,80,o),
(125,0,o),
(243,0,cs),
(365,0,o),
(464,83,o),
(484,197,cs),
(504,312,l),
(568,312,l)
);
},
{
closed = 1;
nodes = (
(178,67,o),
(122,118,o),
(135,192,cs),
(147,259,o),
(211,312,o),
(280,312,cs),
(429,312,l),
(409,197,ls),
(396,123,o),
(335,67,o),
(254,67,cs)
);
}
);
width = 605;
},
{
layerId = "067991BB-F7E6-4D77-8E89-F1D1828DD7C4";
shapes = (
{
closed = 1;
nodes = (
(547,364,l),
(477,364,l),
(501,499,l),
(481,499,l),
(458,364,l),
(285,364,ls),
(198,364,o),
(141,435,o),
(157,522,cs),
(173,610,o),
(255,670,o),
(334,670,cs),
(476,670,l),
(480,690,l),
(335,690,ls),
(247,690,o),
(156,622,o),
(138,522,cs),
(124,444,o),
(160,380,o),
(222,355,c),
(148,332,o),
(85,263,o),
(71,182,cs),
(52,76,o),
(126,0,o),
(234,0,cs),
(341,0,o),
(426,77,o),
(445,182,cs),
(474,344,l),
(544,344,l)
);
},
{
closed = 1;
nodes = (
(141,20,o),
(74,87,o),
(91,182,cs),
(107,272,o),
(188,344,o),
(273,344,cs),
(454,344,l),
(425,182,ls),
(408,88,o),
(334,20,o),
(237,20,cs)
);
}
);
width = 593;
}
);
unicode = 38;
},
{
glyphname = aogonek;
leftMetricsKey = a;
widthMetricsKey = a;
layers = (
{
layerId = "067991BB-F7E6-4D77-8E89-F1D1828DD7C4";
shapes = (
{
closed = 1;
nodes = (
(503,-203,l),
(473,-228,o),
(447,-240,o),
(409,-240,cs),
(361,-240,o),
(343,-208,o),
(351,-161,cs),
(363,-93,o),
(423,-41,o),
(469,0,c),
(471,10,l),
(450,10,ls),
(401,10,o),
(389,38,o),
(398,89,cs),
(445,351,ls),
(461,443,o),
(396,510,o),
(292,510,cs),
(186,510,o),
(99,443,o),
(83,351,c),
(102,351,l),
(116,433,o),
(196,490,o),
(288,490,cs),
(381,490,o),
(439,433,o),
(425,351,cs),
(409,260,l),
(199,260,ls),
(117,260,o),
(56,208,o),
(42,126,cs),
(27,43,o),
(74,-10,o),
(168,-10,cs),
(252,-10,o),
(339,15,o),
(384,84,c),
(384,109,l),
(365,35,o),
(379,-8,o),
(436,-10,c),
(390,-55,o),
(346,-99,o),
(335,-161,cs),
(324,-221,o),
(347,-260,o),
(406,-260,cs),
(448,-260,o),
(475,-246,o),
(509,-218,c)
);
},
{
closed = 1;
nodes = (
(89,10,o),
(49,55,o),
(62,128,cs),
(74,195,o),
(126,240,o),
(196,240,cs),
(406,240,l),
(385,121,ls),
(372,45,o),
(257,10,o),
(173,10,cs)
);
}
);
width = 540;
},
{
layerId = "8D1CD495-8E12-4F42-9971-C31B25734418";
shapes = (
{
closed = 1;
nodes = (
(510,-170,l),
(484,-200,o),
(448,-216,o),
(412,-216,cs),
(370,-216,o),
(352,-188,o),
(359,-149,cs),
(371,-81,o),
(437,-39,o),
(506,0,c),
(518,65,l),
(488,65,ls),
(462,65,o),
(442,84,o),
(450,130,cs),
(483,313,ls),
(504,431,o),
(423,510,o),
(308,510,cs),
(192,510,o),
(83,431,o),
(62,313,c),
(137,313,l),
(151,390,o),
(218,433,o),
(294,433,cs),
(370,433,o),
(422,390,o),
(408,313,cs),
(400,271,l),
(217,271,ls),
(117,271,o),
(45,216,o),
(30,130,cs),
(15,45,o),
(67,-10,o),
(168,-10,cs),
(259,-10,o),
(338,29,o),
(381,91,c),
(372,96,l),
(373,45,o),
(395,8,o),
(436,-5,c),
(368,-48,o),
(316,-93,o),
(305,-155,cs),
(294,-219,o),
(329,-256,o),
(393,-259,cs),
(441,-261,o),
(487,-245,o),
(530,-209,c)
);
},
{
closed = 1;
nodes = (
(137,58,o),
(104,86,o),
(112,131,cs),
(120,176,o),
(162,206,o),
(221,206,cs),
(389,206,l),
(383,174,l),
(346,103,o),
(277,58,o),
(197,58,cs)
);
}
);
width = 568;
},
{
layerId = "EE06C6DC-CF8C-4948-A893-3A90CCE35999";
shapes = (
{
closed = 1;
nodes = (
(508,-114,l),
(486,-149,o),
(453,-171,o),
(423,-171,cs),
(393,-171,o),
(378,-151,o),
(385,-109,cs),
(394,-56,o),
(446,-35,o),
(528,0,c),
(554,150,l),
(531,150,ls),
(516,150,o),
(512,175,o),
(519,215,cs),
(534,299,ls),
(557,428,o),
(477,510,o),
(328,510,cs),
(181,510,o),
(74,440,o),
(55,330,c),
(234,330,l),
(239,358,o),
(268,375,o),
(304,375,cs),
(344,375,o),
(366,354,o),
(360,320,cs),
(353,283,l),
(195,283,ls),
(105,283,o),
(37,224,o),
(21,134,cs),
(5,46,o),
(67,-10,o),
(177,-10,cs),
(249,-10,o),
(318,19,o),
(363,65,c),
(346,68,l),
(358,40,o),
(376,20,o),
(400,6,c),
(339,-19,o),
(286,-60,o),
(275,-125,cs),
(263,-193,o),
(297,-251,o),
(379,-258,cs),
(434,-263,o),
(500,-238,o),
(548,-194,c)
);
},
{
closed = 1;
nodes = (
(216,110,o),
(196,123,o),
(200,143,cs),
(204,164,o),
(219,176,o),
(240,176,cs),
(334,176,l),
(334,176,l),
(327,138,o),
(288,110,o),
(250,110,cs)
);
}
);
width = 588;
}
);
unicode = 261;
},
{
glyphname = approxequal;
layers = (
{
layerId = "067991BB-F7E6-4D77-8E89-F1D1828DD7C4";
shapes = (
{
closed = 1;
nodes = (
(500,323,o),
(554,383,o),
(556,465,c),
(536,465,l),
(534,394,o),
(489,343,o),
(428,343,cs),
(383,343,o),
(356,370,o),
(328,405,c),
(294,445,o),
(263,480,o),
(208,480,cs),
(139,480,o),
(83,423,o),
(81,338,c),
(101,338,l),
(103,408,o),
(148,460,o),
(208,460,cs),
(253,460,o),
(281,430,o),
(310,396,cs),
(343,358,o),
(374,323,o),
(429,323,cs)
);
},
{
closed = 1;
nodes = (
(500,143,o),
(554,203,o),
(556,285,c),
(536,285,l),
(534,214,o),
(489,163,o),
(428,163,cs),
(383,163,o),
(356,190,o),
(328,225,c),
(294,265,o),
(263,300,o),
(208,300,cs),
(139,300,o),
(83,243,o),
(81,158,c),
(101,158,l),
(103,228,o),
(148,280,o),
(208,280,cs),
(253,280,o),
(281,250,o),
(310,216,cs),
(343,178,o),
(374,143,o),
(429,143,cs)
);
}
);
width = 638;
},
{
layerId = "8D1CD495-8E12-4F42-9971-C31B25734418";
shapes = (
{
closed = 1;
nodes = (
(537,319,o),
(606,390,o),
(619,484,c),
(564,484,l),
(554,418,o),
(511,374,o),
(462,374,cs),
(427,374,o),
(409,398,o),
(393,424,cs),
(365,468,o),
(338,496,o),
(284,496,cs),
(201,496,o),
(130,430,o),
(116,330,c),
(171,330,l),
(180,393,o),
(221,440,o),
(273,440,cs),
(304,440,o),
(322,421,o),
(342,394,c),
(363,363,o),
(393,319,o),
(458,319,cs)
);
},
{
closed = 1;
nodes = (
(502,121,o),
(571,191,o),
(584,286,c),
(529,286,l),
(519,220,o),
(476,176,o),
(427,176,cs),
(392,176,o),
(374,199,o),
(358,226,c),
(330,270,o),
(303,299,o),
(249,299,cs),
(166,299,o),
(96,233,o),
(82,133,c),
(137,133,l),
(146,194,o),
(186,243,o),
(238,243,cs),
(269,243,o),
(287,224,o),
(307,196,cs),
(329,164,o),
(358,121,o),
(423,121,cs)
);
}
);
width = 591;
},
{
layerId = "EE06C6DC-CF8C-4948-A893-3A90CCE35999";
shapes = (
{
closed = 1;
nodes = (
(513,310,o),
(565,400,o),
(570,518,c),
(446,518,l),
(441,463,o),
(424,434,o),
(396,434,cs),
(375,434,o),
(365,450,o),
(359,458,cs),
(318,513,o),
(276,530,o),
(224,530,cs),
(108,530,o),
(48,444,o),
(43,316,c),
(170,316,l),
(173,366,o),
(186,400,o),
(223,403,c),
(226,403,o),
(238,405,o),
(254,389,cs),
(274,369,o),
(321,310,o),
(406,310,cs)
);
},
{
closed = 1;
nodes = (
(513,78,o),
(565,170,o),
(570,286,c),
(446,286,l),
(441,229,o),
(424,201,o),
(396,201,cs),
(375,201,o),
(364,220,o),
(359,226,cs),
(314,281,o),
(274,298,o),
(224,298,cs),
(111,298,o),
(48,214,o),
(43,84,c),
(170,84,l),
(173,134,o),
(185,166,o),
(223,170,c),
(238,170,o),
(244,168,o),
(254,158,cs),
(273,138,o),
(321,78,o),
(406,78,cs)
);
}
);
width = 614;
}
);
unicode = 8776;
},
{
glyphname = asciicircum;
layers = (
{
layerId = "067991BB-F7E6-4D77-8E89-F1D1828DD7C4";
shapes = (
{
closed = 1;
nodes = (
(584,182,l),
(329,690,l),
(308,690,l),
(53,182,l),
(72,182,l),
(319,669,l),
(564,182,l)
);
}
);
width = 638;
},
{
layerId = "8D1CD495-8E12-4F42-9971-C31B25734418";
shapes = (
{
closed = 1;
nodes = (
(612,182,l),
(357,690,l),
(291,690,l),
(36,182,l),
(98,182,l),
(324,631,l),
(551,182,l)
);
}
);
width = 649;
},
{
layerId = "EE06C6DC-CF8C-4948-A893-3A90CCE35999";
shapes = (
{
closed = 1;
nodes = (
(687,182,l),
(430,690,l),
(281,690,l),
(24,182,l),
(164,182,l),
(355,561,l),
(546,182,l)
);
}
);
width = 712;
}
);
unicode = 94;
},
{
glyphname = asciitilde;
layers = (
{
layerId = "067991BB-F7E6-4D77-8E89-F1D1828DD7C4";
shapes = (
{
closed = 1;
nodes = (
(449,177,o),
(499,232,o),
(500,308,c),
(482,308,l),
(481,243,o),
(439,196,o),
(383,196,cs),
(342,196,o),
(316,221,o),
(290,253,cs),
(261,288,o),
(231,322,o),
(181,322,cs),
(117,322,o),
(66,269,o),
(63,191,c),
(82,191,l),
(84,255,o),
(125,304,o),
(181,304,cs),
(222,304,o),
(247,276,o),
(274,245,c),
(301,212,o),
(332,177,o),
(384,177,cs)
);
}
);
width = 565;
},
{
layerId = "8D1CD495-8E12-4F42-9971-C31B25734418";
shapes = (
{
closed = 1;
nodes = (
(445,161,o),
(499,227,o),
(493,313,c),
(442,313,l),
(445,252,o),
(411,212,o),
(365,212,cs),
(332,212,o),
(313,232,o),
(291,258,c),
(259,299,o),
(227,325,o),
(177,325,cs),
(98,325,o),
(43,262,o),
(47,171,c),
(99,171,l),
(98,229,o),
(129,274,o),
(177,274,cs),
(207,274,o),
(225,258,o),
(248,230,c),
(274,201,o),
(308,161,o),
(369,161,cs)
);
}
);
width = 542;
},
{
layerId = "EE06C6DC-CF8C-4948-A893-3A90CCE35999";
shapes = (
{
closed = 1;
nodes = (
(461,131,o),
(526,214,o),
(513,322,c),
(399,322,l),
(403,271,o),
(378,244,o),
(353,244,cs),
(335,244,o),
(325,256,o),
(319,267,c),
(286,312,o),
(255,331,o),
(198,331,cs),
(84,331,o),
(23,252,o),
(29,137,c),
(145,137,l),
(146,173,o),
(156,215,o),
(194,215,cs),
(199,215,o),
(208,215,o),
(222,202,c),
(243,186,o),
(284,131,o),
(363,131,cs)
);
}
);
width = 544;
}
);
unicode = 126;
},
{
glyphname = asterisk;
layers = (
{
layerId = "067991BB-F7E6-4D77-8E89-F1D1828DD7C4";
shapes = (
{
closed = 1;
nodes = (
(138,544,l),
(178,619,l),
(218,544,l),
(238,556,l),
(189,628,l),
(278,625,l),
(278,648,l),
(189,644,l),
(238,718,l),
(218,728,l),
(178,653,l),
(138,728,l),
(118,718,l),
(165,644,l),
(78,648,l),
(78,625,l),
(165,628,l),
(118,556,l)
);
}
);
width = 354;
},
{
layerId = "8D1CD495-8E12-4F42-9971-C31B25734418";
shapes = (
{
closed = 1;
nodes = (
(132,515,l),
(168.718,596,l),
(207,515,l),
(246.768,539,l),
(195.544,614,l),
(285.131,605,l),
(285.02,651,l),
(195.43,643,l),
(246.206,718,l),
(207.15,741,l),
(169.433,660,l),
(132.15,741,l),
(93.206,718,l),
(143.43,643,l),
(54.02,651,l),
(54.131,605,l),
(143.544,614,l),
(92.768,539,l)
);
}
);
width = 337;
},
{
layerId = "EE06C6DC-CF8C-4948-A893-3A90CCE35999";
shapes = (
{
closed = 1;
nodes = (
(159,461,l),
(198,555,l),
(235,461,l),
(311,505,l),
(249,585,l),
(348,569,l),
(348,656,l),
(249,643,l),
(311,720,l),
(235,766,l),
(198,670,l),
(159,766,l),
(85,720,l),
(146,643,l),
(46,656,l),
(46,569,l),
(146,585,l),
(85,505,l)
);
}
);
width = 394;
}
);
unicode = 42;
},
{
glyphname = at;
layers = (
{
layerId = "067991BB-F7E6-4D77-8E89-F1D1828DD7C4";
shapes = (
{
closed = 1;
nodes = (
(518,149,l),
(518,366,ls),
(518,469,o),
(439,549,o),
(338,549,cs),
(198,549,o),
(88,428,o),
(88,275,cs),
(88,121,o),
(213,0,o),
(373,0,cs),
(518,0,l),
(518,21,l),
(373,21,ls),
(225,21,o),
(108,133,o),
(108,275,cs),
(108,416,o),
(209,528,o),
(338,528,cs),
(426,528,o),
(498,456,o),
(498,366,cs),
(498,318,l),
(483,358,o),
(433,389,o),
(390,389,cs),
(316,389,o),
(258,334,o),
(258,264,cs),
(258,193,o),
(316,138,o),
(390,138,cs),
(428,138,o),
(476,166,o),
(498,203,c),
(498,149,l)
);
},
{
closed = 1;
nodes = (
(328,160,o),
(281,205,o),
(281,264,cs),
(281,323,o),
(328,368,o),
(389,368,cs),
(450,368,o),
(498,323,o),
(498,264,cs),
(498,205,o),
(450,160,o),
(389,160,cs)
);
}
);
width = 635;
},
{
layerId = "8D1CD495-8E12-4F42-9971-C31B25734418";
shapes = (
{
closed = 1;
nodes = (
(521,149,l),
(521,366,ls),
(521,469,o),
(435,549,o),
(326,549,cs),
(183,549,o),
(69,428,o),
(69,276,cs),
(69,121,o),
(194,0,o),
(354,0,cs),
(521,0,l),
(521,50,l),
(354,50,ls),
(224,50,o),
(119,149,o),
(119,276,cs),
(119,400,o),
(211,499,o),
(326,499,cs),
(406,499,o),
(470,440,o),
(470,366,cs),
(470,339,l),
(449,369,o),
(408,389,o),
(370,389,cs),
(300,389,o),
(244,334,o),
(244,264,cs),
(244,193,o),
(300,138,o),
(371,138,cs),
(405,138,o),
(448,158,o),
(470,186,c),
(470,149,l)
);
},
{
closed = 1;
nodes = (
(339,183,o),
(301,218,o),
(301,264,cs),
(301,310,o),
(339,345,o),
(388,345,cs),
(439,345,o),
(470,314,o),
(470,264,cs),
(470,214,o),
(439,183,o),
(388,183,cs)
);
}
);
width = 619;
},
{
layerId = "EE06C6DC-CF8C-4948-A893-3A90CCE35999";
shapes = (
{
closed = 1;
nodes = (
(546,149,l),
(546,366,ls),
(546,469,o),
(451,549,o),
(329,549,cs),
(178,549,o),
(56,428,o),
(56,276,cs),
(56,121,o),
(181,0,o),
(341,0,cs),
(546,0,l),
(546,104,l),
(341,104,ls),
(241,104,o),
(161,179,o),
(161,276,cs),
(161,370,o),
(236,445,o),
(329,445,cs),
(394,445,o),
(443,410,o),
(443,366,cs),
(443,360,l),
(420,378,o),
(388,389,o),
(359,389,cs),
(294,389,o),
(239,334,o),
(239,264,cs),
(239,193,o),
(294,138,o),
(360,138,cs),
(386,138,o),
(419,148,o),
(443,164,c),
(443,149,l)
);
},
{
closed = 1;
nodes = (
(380,223,o),
(360,240,o),
(360,264,cs),
(360,288,o),
(380,304,o),
(406,304,cs),
(426,304,o),
(443,293,o),
(443,264,cs),
(443,235,o),
(426,223,o),
(406,223,cs)
);
}
);
width = 633;
}
);
leftKerningGroup = public.kern2.C2;
rightKerningGroup = public.kern1.C;
unicode = 64;
},
{
glyphname = b;
layers = (
{
layerId = "D1832D54-307F-4077-BFA3-B4D1D022CEF5";
name = "#instance";
shapes = (
{
closed = 1;
nodes = (
(335.8,510,o),
(235.933,445.233,o),
(181,351.867,c),
(251.5,750,l),
(229.667,750,l),
(97.667,0,l),
(118.533,0,l),
(145,148.133,l),
(167.5,54.767,o),
(243.833,-10,o),
(345.667,-10,cs),
(482.7,-10,o),
(615.667,107.933,o),
(640.667,250,cs),
(665.667,393.033,o),
(574.667,510,o),
(437.633,510,cs)
);
},
{
closed = 1;
nodes = (
(223,11.933,o),
(139.7,119.033,o),
(162.533,250,cs),
(185.367,381.933,o),
(307.333,488.1,o),
(433.333,488.1,cs),
(560.333,488.1,o),
(642.667,381.933,o),
(619.833,250,cs),
(597,119.033,o),
(476,11.933,o),
(349,11.933,cs)
);
}
);
width = 662;
},
{
layerId = "067991BB-F7E6-4D77-8E89-F1D1828DD7C4";
shapes = (
{
closed = 1;
nodes = (
(337,510,o),
(236,444,o),
(181,349,c),
(252,750,l),
(232,750,l),
(100,0,l),
(119,0,l),
(146,151,l),
(168,56,o),
(245,-10,o),
(348,-10,cs),
(485,-10,o),
(618,108,o),
(643,250,cs),
(668,393,o),
(577,510,o),
(440,510,cs)
);
},
{
closed = 1;
nodes = (
(224,10,o),
(140,118,o),
(163,250,cs),
(186,383,o),
(309,490,o),
(436,490,cs),
(564,490,o),
(647,383,o),
(624,250,cs),
(601,118,o),
(479,10,o),
(351,10,cs)
);
}
);
width = 663;
},
{
layerId = "8D1CD495-8E12-4F42-9971-C31B25734418";
shapes = (
{
closed = 1;
nodes = (
(301,510,o),
(234,481,o),
(181,435,c),
(237,750,l),
(162,750,l),
(30,0,l),
(105,0,l),
(116,65,l),
(153,19,o),
(210,-10,o),
(278,-10,cs),
(416,-10,o),
(548,106,o),
(573,250,cs),
(598,394,o),
(507,510,o),
(369,510,cs)
);
},
{
closed = 1;
nodes = (
(194,68,o),
(131,149,o),
(149,250,cs),
(167,351,o),
(259,433,o),
(356,433,cs),
(454,433,o),
(517,351,o),
(499,250,cs),
(481,149,o),
(389,68,o),
(291,68,cs)
);
}
);
width = 633;
},
{
layerId = "EE06C6DC-CF8C-4948-A893-3A90CCE35999";
shapes = (
{
closed = 1;
nodes = (
(353,510,o),
(307,493,o),
(269,464,c),
(320,750,l),
(142,750,l),
(10,0,l),
(187,-1,l),
(194,36,l),
(222,8,o),
(261,-10,o),
(311,-10,cs),
(441,-10,o),
(563,104,o),
(589,250,cs),
(615,396,o),
(533,510,o),
(403,510,cs)
);
},
{
closed = 1;
nodes = (
(246,151,o),
(212,194,o),
(222,250,cs),
(232,306,o),
(281,349,o),
(334,349,cs),
(388,349,o),
(421,306,o),
(411,250,cs),
(401,194,o),
(353,151,o),
(299,151,cs)
);
}
);
width = 629;
}
);
rightKerningGroup = public.kern1.b;
unicode = 98;
},
{
glyphname = backslash;
layers = (
{
layerId = "067991BB-F7E6-4D77-8E89-F1D1828DD7C4";
shapes = (
{
closed = 1;
nodes = (
(522,-270,l),
(543,-270,l),
(-41,846,l),
(-62,846,l)
);
}
);
width = 587;
},
{
layerId = "8D1CD495-8E12-4F42-9971-C31B25734418";
shapes = (
{
closed = 1;
nodes = (
(462,-276,l),
(530,-276,l),
(148,846,l),
(81,846,l)
);
}
);
width = 615;
},
{
layerId = "EE06C6DC-CF8C-4948-A893-3A90CCE35999";
shapes = (
{
closed = 1;
nodes = (
(458,-276,l),
(616,-276,l),
(86,769,l),
(-71,769,l)
);
}
);
width = 651;
}
);
unicode = 92;
},
{
glyphname = bar;
layers = (
{
layerId = "067991BB-F7E6-4D77-8E89-F1D1828DD7C4";
shapes = (
{
closed = 1;
nodes = (
(141,-150,l),
(161,-150,l),
(161,750,l),
(141,750,l)
);
}
);
width = 303;
},
{
layerId = "8D1CD495-8E12-4F42-9971-C31B25734418";
shapes = (
{
closed = 1;
nodes = (
(111,-150,l),
(162,-150,l),
(162.306,750,l),
(111,750,l)
);
}
);
width = 275;
},
{
layerId = "EE06C6DC-CF8C-4948-A893-3A90CCE35999";
shapes = (
{
closed = 1;
nodes = (
(110,-150,l),
(223,-150,l),
(223,750,l),
(110,750,l)
);
}
);
width = 334;
}
);
unicode = 124;
},
{
glyphname = braceleft;
layers = (
{
layerId = "067991BB-F7E6-4D77-8E89-F1D1828DD7C4";
shapes = (
{
closed = 1;
nodes = (
(126,-260,l),
(130,-242,l),
(79,-242,o),
(61,-208,o),
(71,-150,cs),
(121,129,ls),
(132,191,o),
(137,251,o),
(76,293,c),
(152,336,o),
(168,397,o),
(179,458,cs),
(227,735,ls),
(237,794,o),
(263,827,o),
(318,827,c),
(322,846,l),
(301,846,ls),
(259,846,o),
(220,803,o),
(210,744,cs),
(162,472,ls),
(150,403,o),
(138,343,o),
(66,306,c),
(61,281,l),
(119,246,o),
(114,192,o),
(100,115,cs),
(51,-159,ls),
(41,-216,o),
(64,-260,o),
(106,-260,cs)
);
}
);
width = 291;
},
{
layerId = "8D1CD495-8E12-4F42-9971-C31B25734418";
shapes = (
{
closed = 1;
nodes = (
(152,-231,l),
(162,-177,l),
(105,-177,o),
(91,-154,o),
(100,-104,cs),
(144,144,ls),
(156,210,o),
(158,267,o),
(110,308,c),
(172,348,o),
(190,405,o),
(202,473,cs),
(245,715,ls),
(256,775,o),
(277,792,o),
(333,792,c),
(342,846,l),
(302,846,ls),
(251,846,o),
(204,794,o),
(192,725,cs),
(149,486,ls),
(135,405,o),
(122,365,o),
(55,332,c),
(46,283,l),
(100,253,o),
(102,215,o),
(87,130,cs),
(44,-110,ls),
(32,-179,o),
(61,-231,o),
(112,-231,cs)
);
}
);
width = 274;
},
{
layerId = "EE06C6DC-CF8C-4948-A893-3A90CCE35999";
shapes = (
{
closed = 1;
nodes = (
(195,-325,l),
(212,-231,l),
(143,-231,o),
(138,-228,o),
(144,-193,cs),
(189,60,ls),
(203,138,o),
(197,187,o),
(176,225,c),
(210,262,o),
(233,312,o),
(247,390,cs),
(290,636,ls),
(301,696,o),
(314,684,o),
(373,684,c),
(390,777,l),
(315,777,ls),
(244,777,o),
(178,707,o),
(163,621,cs),
(125,404,ls),
(106,298,o),
(92,294,o),
(34,273,c),
(17,177,l),
(68,155,o),
(80,150,o),
(62,46,cs),
(24,-170,ls),
(8,-258,o),
(50,-325,o),
(121,-325,cs)
);
}
);
width = 348;
}
);
unicode = 123;
},
{
glyphname = braceright;
layers = (
{
layerId = "067991BB-F7E6-4D77-8E89-F1D1828DD7C4";
shapes = (
{
closed = 1;
nodes = (
(-34,-260,l),
(-14,-260,ls),
(28,-260,o),
(67,-216,o),
(77,-159,cs),
(125,115,ls),
(139,192,o),
(152,246,o),
(222,281,c),
(226,306,l),
(167,343,o),
(176,403,o),
(188,472,cs),
(236,744,ls),
(246,803,o),
(223,846,o),
(181,846,cs),
(161,846,l),
(157,827,l),
(212,827,o),
(225,794,o),
(215,735,cs),
(166,458,ls),
(155,397,o),
(149,336,o),
(211,293,c),
(134,251,o),
(119,191,o),
(108,129,cs),
(59,-150,ls),
(49,-208,o),
(19,-242,o),
(-31,-242,c)
);
}
);
width = 291;
},
{
layerId = "8D1CD495-8E12-4F42-9971-C31B25734418";
shapes = (
{
closed = 1;
nodes = (
(-66,-231,l),
(-26,-231,ls),
(26,-231,o),
(73,-179,o),
(85,-110,cs),
(127,130,ls),
(142,215,o),
(157,253,o),
(222,283,c),
(231,332,l),
(176,365,o),
(176,405,o),
(190,486,cs),
(232,725,ls),
(244,794,o),
(216,846,o),
(164,846,cs),
(124,846,l),
(115,792,l),
(170,792,o),
(186,775,o),
(175,715,cs),
(132,473,ls),
(120,405,o),
(118,348,o),
(166,308,c),
(104,267,o),
(86,210,o),
(74,144,cs),
(30,-104,ls),
(21,-154,o),
(2,-177,o),
(-56,-177,c)
);
}
);
width = 274;
},
{
layerId = "EE06C6DC-CF8C-4948-A893-3A90CCE35999";
shapes = (
{
closed = 1;
nodes = (
(-68,-325,l),
(6,-325,ls),
(79,-325,o),
(143,-258,o),
(159,-170,cs),
(197,46,ls),
(215,150,o),
(229,155,o),
(288,177,c),
(304,273,l),
(255,294,o),
(241,298,o),
(260,404,cs),
(298,621,ls),
(313,707,o),
(273,777,o),
(200,777,cs),
(127,777,l),
(110,684,l),
(169,684,o),
(186,696,o),
(175,636,cs),
(132,390,ls),
(118,312,o),
(125,262,o),
(147,225,c),
(112,187,o),
(88,138,o),
(74,60,cs),
(29,-193,ls),
(23,-228,o),
(17,-231,o),
(-51,-231,c)
);
}
);
width = 348;
}
);
unicode = 125;
},
{
glyphname = bracketleft;
layers = (
{
layerId = "067991BB-F7E6-4D77-8E89-F1D1828DD7C4";
shapes = (
{
closed = 1;
nodes = (
(-2,-230,l),
(132,-230,l),
(135,-210,l),
(19,-210,l),
(201,827,l),
(318,827,l),
(321,846,l),
(188,846,l)
);
}
);
width = 318;
},
{
layerId = "8D1CD495-8E12-4F42-9971-C31B25734418";
shapes = (
{
closed = 1;
nodes = (
(-17,-230,l),
(161,-230,l),
(171,-175,l),
(54,-175,l),
(225,791,l),
(341,791,l),
(351,846,l),
(173,846,l)
);
}
);
width = 284;
},
{
layerId = "EE06C6DC-CF8C-4948-A893-3A90CCE35999";
shapes = (
{
closed = 1;
nodes = (
(-36,-230,l),
(225,-230,l),
(241,-141,l),
(124,-141,l),
(274,713,l),
(392,713,l),
(407,800,l),
(145,800,l)
);
}
);
width = 388;
}
);
unicode = 91;
},
{
glyphname = bracketright;
layers = (
{
layerId = "067991BB-F7E6-4D77-8E89-F1D1828DD7C4";
shapes = (
{
closed = 1;
nodes = (
(-2,-230,l),
(132,-230,l),
(321,846,l),
(188,846,l),
(185,827,l),
(301,827,l),
(119,-210,l),
(2,-210,l)
);
}
);
width = 318;
},
{
layerId = "8D1CD495-8E12-4F42-9971-C31B25734418";
shapes = (
{
closed = 1;
nodes = (
(-64,-230,l),
(114,-230,l),
(304,846,l),
(126,846,l),
(117,791,l),
(233,791,l),
(63,-175,l),
(-54,-175,l)
);
}
);
width = 284;
},
{
layerId = "EE06C6DC-CF8C-4948-A893-3A90CCE35999";
shapes = (
{
closed = 1;
nodes = (
(-24,-230,l),
(237,-230,l),
(419,800,l),
(157,800,l),
(142,713,l),
(258,713,l),
(107,-141,l),
(-9,-141,l)
);
}
);
width = 388;
}
);
unicode = 93;
},
{
glyphname = breve;
layers = (
{
layerId = "067991BB-F7E6-4D77-8E89-F1D1828DD7C4";
shapes = (
{
closed = 1;
nodes = (
(418,575,o),
(495,635,o),
(508,711,c),
(488,711,l),
(477,646,o),
(412,595,o),
(338,595,cs),
(265,595,o),
(218,646,o),
(229,711,c),
(210,711,l),
(197,635,o),
(252,575,o),
(335,575,cs)
);
}
);
width = 83;
},
{
layerId = "8D1CD495-8E12-4F42-9971-C31B25734418";
shapes = (
{
closed = 1;
nodes = (
(421,566,o),
(500,626,o),
(516,719,c),
(469,719,l),
(459,663,o),
(403,616,o),
(336,616,cs),
(271,616,o),
(232,663,o),
(242,719,c),
(195,719,l),
(179,626,o),
(237,566,o),
(328,566,cs)
);
}
);
width = 83;
},
{
layerId = "EE06C6DC-CF8C-4948-A893-3A90CCE35999";
shapes = (
{
closed = 1;
nodes = (
(448,551,o),
(532,609,o),
(554,735,c),
(453,735,l),
(446,695,o),
(410,654,o),
(356,654,cs),
(303,654,o),
(280,695,o),
(287,735,c),
(186,735,l),
(164,609,o),
(228,551,o),
(338,551,cs)
);
}
);
width = 95;
}
);
unicode = 728;
},
{
glyphname = brevebelowcomb;
layers = (
{
layerId = "067991BB-F7E6-4D77-8E89-F1D1828DD7C4";
shapes = (
{
closed = 1;
nodes = (
(-88,-285,o),
(-10,-225,o),
(3,-149,c),
(-17,-149,l),
(-28,-214,o),
(-93,-265,o),
(-167,-265,cs),
(-239,-265,o),
(-286,-214,o),
(-275,-149,c),
(-295,-149,l),
(-308,-225,o),
(-254,-285,o),
(-171,-285,cs)
);
}
);
width = 21;
},
{
layerId = "8D1CD495-8E12-4F42-9971-C31B25734418";
shapes = (
{
closed = 1;
nodes = (
(-82,-277,o),
(-2,-217,o),
(14,-124,c),
(-34,-124,l),
(-44,-180,o),
(-100,-227,o),
(-166,-227,cs),
(-232,-227,o),
(-271,-180,o),
(-261,-124,c),
(-309,-124,l),
(-325,-217,o),
(-267,-277,o),
(-175,-277,cs)
);
}
);
width = 23;
},
{
layerId = "EE06C6DC-CF8C-4948-A893-3A90CCE35999";
shapes = (
{
closed = 1;
nodes = (
(-88,-257,o),
(-3,-199,o),
(19,-73,c),
(-83,-73,l),
(-90,-113,o),
(-127,-154,o),
(-181,-154,cs),
(-233,-154,o),
(-257,-113,o),
(-250,-73,c),
(-350,-73,l),
(-372,-199,o),
(-308,-257,o),
(-199,-257,cs)
);
}
);
width = 26;
}
);
unicode = 814;
},
{
glyphname = brevecomb;
layers = (
{
layerId = "067991BB-F7E6-4D77-8E89-F1D1828DD7C4";
shapes = (
{
closed = 1;
nodes = (
(-209,575,o),
(-131,635,o),
(-118,711,c),
(-138,711,l),
(-149,646,o),
(-215,595,o),
(-289,595,cs),
(-361,595,o),
(-408,646,o),
(-397,711,c),
(-416,711,l),
(-429,635,o),
(-375,575,o),
(-292,575,cs)
);
}
);
width = 21;
},
{
layerId = "8D1CD495-8E12-4F42-9971-C31B25734418";
shapes = (
{
closed = 1;
nodes = (
(-194,566,o),
(-114,626,o),
(-98,719,c),
(-146,719,l),
(-156,663,o),
(-212,616,o),
(-278,616,cs),
(-344,616,o),
(-382,663,o),
(-372,719,c),
(-420,719,l),
(-436,626,o),
(-379,566,o),
(-287,566,cs)
);
}
);
width = 23;
},
{
layerId = "EE06C6DC-CF8C-4948-A893-3A90CCE35999";
shapes = (
{
closed = 1;
nodes = (
(-198,551,o),
(-113,609,o),
(-91,735,c),
(-193,735,l),
(-200,695,o),
(-236,654,o),
(-290,654,cs),
(-342,654,o),
(-366,695,o),
(-359,735,c),
(-459,735,l),
(-481,609,o),
(-418,551,o),
(-309,551,cs)
);
}
);
width = 26;
}
);
unicode = 774;
},
{
glyphname = breveinvertedcomb;
layers = (
{
layerId = "067991BB-F7E6-4D77-8E89-F1D1828DD7C4";
shapes = (
{
closed = 1;
nodes = (
(-9,711,o),
(-87,651,o),
(-100,575,c),
(-80,575,l),
(-69,640,o),
(-4,691,o),
(70,691,cs),
(142,691,o),
(189,640,o),
(178,575,c),
(198,575,l),
(211,651,o),
(157,711,o),
(74,711,cs)
);
}
);
width = 21;
},
{
layerId = "8D1CD495-8E12-4F42-9971-C31B25734418";
shapes = (
{
closed = 1;
nodes = (
(-17,719,o),
(-96,659,o),
(-112,566,c),
(-64,566,l),
(-54,622,o),
(1,669,o),
(67,669,cs),
(133,669,o),
(172,622,o),
(162,566,c),
(210,566,l),
(226,659,o),
(168,719,o),
(76,719,cs)
);
}
);
width = 23;
},
{
layerId = "EE06C6DC-CF8C-4948-A893-3A90CCE35999";
shapes = (
{
closed = 1;
nodes = (
(-60,735,o),
(-145,677,o),
(-167,551,c),
(-65,551,l),
(-58,591,o),
(-21,632,o),
(33,632,cs),
(85,632,o),
(109,591,o),
(102,551,c),
(202,551,l),
(224,677,o),
(160,735,o),
(51,735,cs)
);
}
);
width = 26;
}
);
unicode = 785;
},
{
glyphname = brokenbar;
layers = (
{
layerId = "067991BB-F7E6-4D77-8E89-F1D1828DD7C4";
shapes = (
{
closed = 1;
nodes = (
(141,390,l),
(161,390,l),
(161,750,l),
(141,750,l)
);
},
{
closed = 1;
nodes = (
(141,-150,l),
(161,-150,l),
(161,210,l),
(141,210,l)
);
}
);
width = 303;
},
{
layerId = "8D1CD495-8E12-4F42-9971-C31B25734418";
shapes = (
{
closed = 1;
nodes = (
(112.232,390,l),
(163.232,390,l),
(162.755,750,l),
(111.755,750,l)
);
},
{
closed = 1;
nodes = (
(111.449,-150,l),
(162.449,-150,l),
(162.971,210,l),
(111.971,210,l)
);
}
);
width = 275;
},
{
layerId = "EE06C6DC-CF8C-4948-A893-3A90CCE35999";
shapes = (
{
closed = 1;
nodes = (
(110,390,l),
(223,390,l),
(223,750,l),
(110,750,l)
);
},
{
closed = 1;
nodes = (
(110,-150,l),
(223,-150,l),
(223,210,l),
(110,210,l)
);
}
);
width = 334;
}
);
unicode = 166;
},
{
glyphname = bullet;
layers = (
{
layerId = "067991BB-F7E6-4D77-8E89-F1D1828DD7C4";
shapes = (
{
closed = 1;
nodes = (
(333,198,o),
(393,253,o),
(393,325,cs),
(393,394,o),
(333,453,o),
(265,453,cs),
(196,453,o),
(138,394,o),
(138,325,cs),
(138,253,o),
(196,198,o),
(265,198,cs)
);
}
);
width = 529;
},
{
layerId = "8D1CD495-8E12-4F42-9971-C31B25734418";
shapes = (
{
closed = 1;
nodes = (
(364.964,159,o),
(442.563,235,o),
(442.812,330,cs),
(442.414,423,o),
(364.66,501,o),
(275.66,501,cs),
(185.66,501,o),
(107.414,423,o),
(107.812,330,cs),
(107.563,235,o),
(185.964,159,o),
(275.964,159,cs)
);
}
);
width = 550;
},
{
layerId = "EE06C6DC-CF8C-4948-A893-3A90CCE35999";
shapes = (
{
closed = 1;
nodes = (
(436,121,o),
(535,215,o),
(535,335,cs),
(535,451,o),
(436,550,o),
(321,550,cs),
(205,550,o),
(106,451,o),
(106,335,cs),
(106,215,o),
(205,121,o),
(321,121,cs)
);
}
);
width = 643;
}
);
unicode = 8226;
},
{
glyphname = c;
layers = (
{
anchors = (
{
name = b.uni0326;
position = "{275, 0}";
},
{
name = b.uni0328_1;
position = "{-53, 0}";
},
{
name = t.uni0308_2;
position = "{277, 500}";
},
{
name = m.uni0335_3;
position = "{-53, 0}";
}
);
layerId = "D1832D54-307F-4077-BFA3-B4D1D022CEF5";
name = "#instance";
shapes = (
{
closed = 1;
nodes = (
(363.8,-10,o),
(466.933,59.2,o),
(520.833,155.5,c),
(499.8,155.5,l),
(448.2,70.333,o),
(355.133,11.933,o),
(261.933,11.933,cs),
(136.9,11.933,o),
(49.7,115.133,o),
(75.433,250,c),
(97.3,384.9,o),
(221.2,488.1,o),
(346.233,488.1,cs),
(439.433,488.1,o),
(511.733,429.667,o),
(532.633,344.5,c),
(553.667,344.5,l),
(532.9,440.8,o),
(454.8,510,o),
(349.567,510,cs),
(213.533,510,o),
(79.567,393.033,o),
(54.567,250,cs),
(29.567,107.933,o),
(122.533,-10,o),
(258.567,-10,cs)
);
}
);
width = 597;
},
{
anchors = (
{
name = b.uni0326;
position = "{275, 0}";
},
{
name = b.uni0328_1;
position = "{-53, 0}";
},
{
name = t.uni0308_2;
position = "{277, 500}";
},
{
name = m.uni0335_3;
position = "{-53, 0}";
}
);
layerId = "067991BB-F7E6-4D77-8E89-F1D1828DD7C4";
shapes = (
{
closed = 1;
nodes = (
(364,-10,o),
(467,59,o),
(521,155,c),
(502,155,l),
(450,69,o),
(356,10,o),
(262,10,cs),
(136,10,o),
(48,114,o),
(74,250,c),
(96,386,o),
(221,490,o),
(347,490,cs),
(441,490,o),
(514,431,o),
(535,345,c),
(554,345,l),
(533,441,o),
(455,510,o),
(350,510,cs),
(214,510,o),
(80,393,o),
(55,250,cs),
(30,108,o),
(123,-10,o),
(259,-10,cs)
);
}
);
width = 598;
},
{
anchors = (
{
name = b.uni0326;
position = "{270, 0}";
},
{
name = b.uni0328_1;
position = "{-53, 0}";
},
{
name = t.uni0308_2;
position = "{268, 504}";
},
{
name = m.uni0335_3;
position = "{-53, 0}";
}
);
layerId = "8D1CD495-8E12-4F42-9971-C31B25734418";
shapes = (
{
closed = 1;
nodes = (
(358,-10,o),
(465,65,o),
(516,170,c),
(436,170,l),
(396,109,o),
(330,68,o),
(260,68,cs),
(163,68,o),
(99,148,o),
(117,250,cs),
(135,353,o),
(227,433,o),
(324,433,cs),
(394,433,o),
(446,391,o),
(464,330,c),
(544,330,l),
(530,435,o),
(449,510,o),
(337,510,cs),
(200,510,o),
(67,394,o),
(42,250,cs),
(17,106,o),
(109,-10,o),
(246,-10,cs)
);
}
);
width = 567;
},
{
anchors = (
{
name = b.uni0326;
position = "{241, -1}";
},
{
name = b.uni0328_1;
position = "{-53, 0}";
},
{
name = t.uni0308_2;
position = "{228, 500}";
},
{
name = m.uni0335_3;
position = "{-53, 0}";
}
);
layerId = "EE06C6DC-CF8C-4948-A893-3A90CCE35999";
shapes = (
{
closed = 1;
nodes = (
(404,-10,o),
(520,81,o),
(559,213,c),
(377,213,l),
(358,176,o),
(321,153,o),
(278,151,c),
(222,153,o),
(190,194,o),
(200,250,cs),
(210,306,o),
(256,348,o),
(313,349,c),
(355,348,o),
(385,324,o),
(391,288,c),
(572,288,l),
(580,419,o),
(495,510,o),
(341,510,cs),
(172,510,o),
(49,401,o),
(22,250,cs),
(-5,99,o),
(81,-10,o),
(250,-10,cs)
);
}
);
width = 600;
}
);
leftKerningGroup = public.kern2.a2;
rightKerningGroup = public.kern1.b;
unicode = 99;
},
{
glyphname = caron;
layers = (
{
layerId = "067991BB-F7E6-4D77-8E89-F1D1828DD7C4";
shapes = (
{
closed = 1;
nodes = (
(183,569,l),
(208,569,l),
(335,750,l),
(304,750,l),
(201,593,l),
(150,750,l),
(121,750,l)
);
}
);
width = 51;
},
{
layerId = "8D1CD495-8E12-4F42-9971-C31B25734418";
shapes = (
{
closed = 1;
nodes = (
(199,565,l),
(278,565,l),
(408,750,l),
(348,750,l),
(248,618,l),
(196,750,l),
(137,750,l)
);
}
);
width = 77;
},
{
layerId = "EE06C6DC-CF8C-4948-A893-3A90CCE35999";
shapes = (
{
closed = 1;
nodes = (
(240,563,l),
(338,563,l),
(500,750,l),
(390,750,l),
(307,664,l),
(254,750,l),
(144,750,l)
);
}
);
width = 141;
}
);
unicode = 711;
},
{
glyphname = caroncomb;
layers = (
{
layerId = "067991BB-F7E6-4D77-8E89-F1D1828DD7C4";
shapes = (
{
closed = 1;
nodes = (
(-162,569,l),
(-137,569,l),
(-9,750,l),
(-41,750,l),
(-144,593,l),
(-195,750,l),
(-224,750,l)
);
}
);
width = 15;
},
{
layerId = "8D1CD495-8E12-4F42-9971-C31B25734418";
shapes = (
{
closed = 1;
nodes = (
(-213,565,l),
(-135,565,l),
(-5,750,l),
(-66,750,l),
(-165,618,l),
(-218,750,l),
(-277,750,l)
);
}
);
width = 19;
},
{
layerId = "EE06C6DC-CF8C-4948-A893-3A90CCE35999";
shapes = (
{
closed = 1;
nodes = (
(-270,563,l),
(-172,563,l),
(-8,750,l),
(-119,750,l),
(-203,664,l),
(-255,750,l),
(-365,750,l)
);
}
);
width = 25;
}
);
unicode = 780;
},
{
glyphname = ccedilla;
leftMetricsKey = c;
widthMetricsKey = c;
layers = (
{
layerId = "067991BB-F7E6-4D77-8E89-F1D1828DD7C4";
shapes = (
{
closed = 1;
nodes = (
(136,10,o),
(48,114,o),
(74,250,c),
(96,386,o),
(221,490,o),
(347,490,cs),
(441,490,o),
(514,431,o),
(535,345,c),
(554,345,l),
(533,441,o),
(455,510,o),
(350,510,cs),
(214,510,o),
(80,393,o),
(55,250,cs),
(31,114,o),
(115,-1,o),
(243,-10,c),
(198,-83,l),
(212,-99,l),
(281,-79,o),
(327,-108,o),
(317,-165,cs),
(309,-208,o),
(273,-240,o),
(232,-240,cs),
(199,-240,o),
(162,-221,o),
(147,-198,c),
(130,-210,l),
(147,-238,o),
(192,-260,o),
(229,-260,cs),
(280,-260,o),
(327,-218,o),
(336,-165,cs),
(348,-99,o),
(298,-60,o),
(223,-76,c),
(262,-10,l),
(365,-9,o),
(467,60,o),
(521,155,c),
(502,155,l),
(450,69,o),
(356,10,o),
(262,10,cs)
);
}
);
width = 598;
},
{
layerId = "8D1CD495-8E12-4F42-9971-C31B25734418";
shapes = (
{
closed = 1;
nodes = (
(163,68,o),
(99,148,o),
(117,250,cs),
(135,353,o),
(227,433,o),
(324,433,cs),
(394,433,o),
(446,391,o),
(464,330,c),
(544,330,l),
(530,435,o),
(449,510,o),
(337,510,cs),
(200,510,o),
(67,394,o),
(42,250,cs),
(18,114,o),
(99,3,o),
(225,-9,c),
(173,-88,l),
(206,-113,l),
(263,-91,o),
(300,-111,o),
(292,-156,cs),
(286,-189,o),
(258,-214,o),
(228,-214,cs),
(204,-214,o),
(176,-198,o),
(165,-178,c),
(121,-195,l),
(133,-231,o),
(177,-260,o),
(220,-260,cs),
(277,-260,o),
(327,-214,o),
(337,-156,cs),
(348,-94,o),
(303,-53,o),
(234,-66,c),
(272,-9,l),
(373,1,o),
(469,73,o),
(516,170,c),
(436,170,l),
(396,109,o),
(330,68,o),
(260,68,cs)
);
}
);
width = 567;
},
{
layerId = "EE06C6DC-CF8C-4948-A893-3A90CCE35999";
shapes = (
{
closed = 1;
nodes = (
(222,153,o),
(190,194,o),
(200,250,cs),
(210,306,o),
(256,348,o),
(313,349,c),
(355,348,o),
(385,324,o),
(391,288,c),
(572,288,l),
(580,419,o),
(495,510,o),
(341,510,cs),
(172,510,o),
(49,401,o),
(22,250,cs),
(-1,119,o),
(60,20,o),
(186,-4,c),
(121,-95,l),
(173,-130,l),
(215,-108,o),
(245,-116,o),
(239,-148,cs),
(236,-166,o),
(218,-181,o),
(201,-181,cs),
(186,-181,o),
(171,-170,o),
(167,-155,c),
(87,-180,l),
(92,-225,o),
(135,-261,o),
(187,-261,cs),
(247,-261,o),
(305,-211,o),
(316,-148,cs),
(327,-88,o),
(286,-46,o),
(224,-56,c),
(261,-10,l),
(409,-5,o),
(521,85,o),
(559,213,c),
(377,213,l),
(358,176,o),
(321,153,o),
(278,151,c)
);
}
);
width = 600;
}
);
unicode = 231;
},
{
glyphname = cedilla;
layers = (
{
layerId = "067991BB-F7E6-4D77-8E89-F1D1828DD7C4";
shapes = (
{
closed = 1;
nodes = (
(116,-260,o),
(164,-218,o),
(173,-165,cs),
(185,-99,o),
(133,-60,o),
(57,-76,c),
(103,0,l),
(83,0,l),
(31,-83,l),
(46,-99,l),
(116,-79,o),
(163,-108,o),
(153,-165,cs),
(145,-208,o),
(109,-240,o),
(67,-240,cs),
(34,-240,o),
(-4,-221,o),
(-20,-198,c),
(-37,-210,l),
(-19,-238,o),
(26,-260,o),
(64,-260,cs)
);
}
);
width = 99;
},
{
layerId = "8D1CD495-8E12-4F42-9971-C31B25734418";
shapes = (
{
closed = 1;
nodes = (
(107,-260,o),
(158,-214,o),
(168,-156,cs),
(179,-94,o),
(132,-53,o),
(63,-66,c),
(106,0,l),
(60,0,l),
(1,-88,l),
(33,-113,l),
(91,-91,o),
(131,-111,o),
(123,-156,cs),
(117,-189,o),
(87,-214,o),
(57,-214,cs),
(33,-214,o),
(3,-198,o),
(-8,-178,c),
(-52,-195,l),
(-40,-231,o),
(5,-260,o),
(49,-260,cs)
);
}
);
width = 77;
},
{
layerId = "EE06C6DC-CF8C-4948-A893-3A90CCE35999";
shapes = (
{
closed = 1;
nodes = (
(103,-260,o),
(161,-210,o),
(172,-146,cs),
(183,-86,o),
(143,-45,o),
(79,-55,c),
(123,0,l),
(41,0,l),
(-27,-94,l),
(26,-129,l),
(69,-106,o),
(99,-115,o),
(94,-146,cs),
(91,-165,o),
(74,-180,o),
(56,-180,cs),
(40,-180,o),
(24,-169,o),
(20,-154,c),
(-61,-179,l),
(-56,-224,o),
(-12,-260,o),
(41,-260,cs)
);
}
);
width = 66;
}
);
unicode = 184;
},
{
glyphname = cedillacomb;
layers = (
{
layerId = "067991BB-F7E6-4D77-8E89-F1D1828DD7C4";
shapes = (
{
closed = 1;
nodes = (
(-177,-260,o),
(-129,-218,o),
(-120,-165,cs),
(-108,-99,o),
(-159,-60,o),
(-235,-76,c),
(-190,0,l),
(-210,0,l),
(-261,-83,l),
(-247,-99,l),
(-176,-79,o),
(-130,-108,o),
(-140,-165,cs),
(-148,-208,o),
(-184,-240,o),
(-225,-240,cs),
(-258,-240,o),
(-297,-221,o),
(-313,-198,c),
(-330,-210,l),
(-311,-238,o),
(-266,-260,o),
(-228,-260,cs)
);
}
);
width = 14;
},
{
layerId = "8D1CD495-8E12-4F42-9971-C31B25734418";
shapes = (
{
closed = 1;
nodes = (
(-162,-260,o),
(-111,-214,o),
(-101,-156,cs),
(-90,-94,o),
(-136,-53,o),
(-206,-66,c),
(-162,0,l),
(-210,0,l),
(-267,-88,l),
(-235,-113,l),
(-177,-91,o),
(-138,-111,o),
(-146,-156,cs),
(-152,-189,o),
(-181,-214,o),
(-211,-214,cs),
(-235,-214,o),
(-265,-198,o),
(-276,-178,c),
(-320,-195,l),
(-309,-231,o),
(-263,-260,o),
(-219,-260,cs)
);
}
);
width = 15;
},
{
layerId = "EE06C6DC-CF8C-4948-A893-3A90CCE35999";
shapes = (
{
closed = 1;
nodes = (
(-157,-260,o),
(-99,-210,o),
(-88,-146,cs),
(-77,-86,o),
(-117,-45,o),
(-181,-55,c),
(-137,0,l),
(-219,0,l),
(-287,-94,l),
(-233,-129,l),
(-190,-106,o),
(-161,-115,o),
(-166,-146,cs),
(-169,-165,o),
(-187,-180,o),
(-204,-180,cs),
(-220,-180,o),
(-235,-169,o),
(-239,-154,c),
(-320,-179,l),
(-315,-224,o),
(-271,-260,o),
(-218,-260,cs)
);
}
);
width = 16;
}
);
unicode = 807;
},
{
glyphname = cent;
layers = (
{
layerId = "067991BB-F7E6-4D77-8E89-F1D1828DD7C4";
shapes = (
{
closed = 1;
nodes = (
(443,590,o),
(495,566,o),
(529,528,c),
(534,553,l),
(499,586,o),
(451,608,o),
(395,610,c),
(411,703,l),
(391,703,l),
(375,610,l),
(239,605,o),
(109,489,o),
(84,350,cs),
(59,211,o),
(149,95,o),
(283,90,c),
(268,0,l),
(287,0,l),
(303,90,l),
(359,93,o),
(416,114,o),
(462,148,c),
(467,173,l),
(419,133,o),
(359,110,o),
(297,110,cs),
(167,110,o),
(81,218,o),
(104,350,cs),
(127,483,o),
(251,590,o),
(381,590,cs)
);
}
);
width = 578;
},
{
layerId = "8D1CD495-8E12-4F42-9971-C31B25734418";
shapes = (
{
closed = 1;
nodes = (
(414,541,o),
(458,524,o),
(488,491,c),
(502,570,l),
(469,594,o),
(430,608,o),
(384,610,c),
(401,701,l),
(351,701,l),
(334,608,l),
(203,589,o),
(87,480,o),
(64,350,cs),
(41,220,o),
(119,111,o),
(243,93,c),
(227,-1,l),
(277,-1,l),
(293,90,l),
(341,93,o),
(384,106,o),
(424,130,c),
(438,209,l),
(398,176,o),
(346,159,o),
(294,159,cs),
(190,159,o),
(122,244,o),
(141,350,cs),
(160,456,o),
(258,541,o),
(362,541,cs)
);
}
);
width = 525;
},
{
layerId = "EE06C6DC-CF8C-4948-A893-3A90CCE35999";
shapes = (
{
closed = 1;
nodes = (
(374,449,o),
(410,444,o),
(431,425,c),
(461,600,l),
(435,605,o),
(409,609,o),
(383,610,c),
(399,701,l),
(297,701,l),
(278,596,l),
(161,563,o),
(68,466,o),
(48,350,cs),
(28,234,o),
(87,138,o),
(192,104,c),
(173,-1,l),
(275,-1,l),
(291,90,l),
(318,91,o),
(346,95,o),
(373,100,c),
(404,276,l),
(376,256,o),
(339,251,o),
(308,251,cs),
(253,251,o),
(219,295,o),
(229,350,cs),
(239,405,o),
(288,449,o),
(343,449,cs)
);
}
);
width = 468;
}
);
leftKerningGroup = public.kern2.C2;
rightKerningGroup = public.kern1.C;
unicode = 162;
},
{
glyphname = circumflex;
layers = (
{
layerId = "067991BB-F7E6-4D77-8E89-F1D1828DD7C4";
shapes = (
{
closed = 1;
nodes = (
(90,569,l),
(196,728,l),
(243,569,l),
(274,569,l),
(211,750,l),
(186,750,l),
(60,569,l)
);
}
);
width = 51;
},
{
layerId = "8D1CD495-8E12-4F42-9971-C31B25734418";
shapes = (
{
closed = 1;
nodes = (
(118,565,l),
(217,699,l),
(270,565,l),
(330,565,l),
(265,750,l),
(187,750,l),
(59,565,l)
);
}
);
width = 77;
},
{
layerId = "EE06C6DC-CF8C-4948-A893-3A90CCE35999";
shapes = (
{
closed = 1;
nodes = (
(144,563,l),
(227,650,l),
(280,563,l),
(390,563,l),
(294,750,l),
(196,750,l),
(35,563,l)
);
}
);
width = 141;
}
);
unicode = 710;
},
{
glyphname = circumflexcomb;
layers = (
{
layerId = "067991BB-F7E6-4D77-8E89-F1D1828DD7C4";
shapes = (
{
closed = 1;
nodes = (
(-174,569,l),
(-67,728,l),
(-20,569,l),
(12,569,l),
(-52,750,l),
(-77,750,l),
(-203,569,l)
);
}
);
width = 15;
},
{
layerId = "8D1CD495-8E12-4F42-9971-C31B25734418";
shapes = (
{
closed = 1;
nodes = (
(-198,565,l),
(-98,699,l),
(-46,565,l),
(15,565,l),
(-49,750,l),
(-128,750,l),
(-256,565,l)
);
}
);
width = 19;
},
{
layerId = "EE06C6DC-CF8C-4948-A893-3A90CCE35999";
shapes = (
{
closed = 1;
nodes = (
(-222,563,l),
(-139,650,l),
(-85,563,l),
(25,563,l),
(-72,750,l),
(-170,750,l),
(-331,563,l)
);
}
);
width = 25;
}
);
unicode = 770;
},
{
glyphname = colon;
layers = (
{
layerId = "067991BB-F7E6-4D77-8E89-F1D1828DD7C4";
shapes = (
{
closed = 1;
nodes = (
(181,450,o),
(197,463,o),
(200,480,cs),
(203,496,o),
(192,510,o),
(176,510,cs),
(160,510,o),
(144,496,o),
(141,480,cs),
(138,463,o),
(149,450,o),
(165,450,cs)
);
},
{
closed = 1;
nodes = (
(100,-10,o),
(116,3,o),
(119,20,cs),
(122,36,o),
(110,50,o),
(94,50,cs),
(78,50,o),
(63,36,o),
(60,20,cs),
(57,3,o),
(68,-10,o),
(84,-10,cs)
);
}
);
width = 277;
},
{
layerId = "8D1CD495-8E12-4F42-9971-C31B25734418";
shapes = (
{
closed = 1;
nodes = (
(192,403,o),
(221,426,o),
(226,456,cs),
(231,485,o),
(211,510,o),
(182,510,cs),
(154,510,o),
(124,485,o),
(119,456,cs),
(114,426,o),
(135,403,o),
(163,403,cs)
);
},
{
closed = 1;
nodes = (
(119,-10,o),
(148,14,o),
(153,44,cs),
(158,73,o),
(138,98,o),
(109,98,cs),
(81,98,o),
(52,73,o),
(47,44,cs),
(42,14,o),
(62,-10,o),
(90,-10,cs)
);
}
);
width = 290;
},
{
layerId = "EE06C6DC-CF8C-4948-A893-3A90CCE35999";
shapes = (
{
closed = 1;
nodes = (
(232,313,o),
(284,358,o),
(294,413,cs),
(303,465,o),
(267,510,o),
(215,510,cs),
(163,510,o),
(111,465,o),
(102,413,cs),
(92,358,o),
(128,313,o),
(180,313,cs)
);
},
{
closed = 1;
nodes = (
(175,-10,o),
(227,35,o),
(236,88,cs),
(246,143,o),
(210,188,o),
(158,188,cs),
(106,188,o),
(54,143,o),
(44,88,cs),
(35,35,o),
(71,-10,o),
(123,-10,cs)
);
}
);
width = 355;
}
);
unicode = 58;
},
{
glyphname = colon.tf;
layers = (
{
layerId = "067991BB-F7E6-4D77-8E89-F1D1828DD7C4";
shapes = (
{
closed = 1;
nodes = (
(193,450,o),
(209,463,o),
(212,480,cs),
(215,496,o),
(204,510,o),
(188,510,cs),
(172,510,o),
(156,496,o),
(153,480,cs),
(150,463,o),
(161,450,o),
(177,450,cs)
);
},
{
closed = 1;
nodes = (
(112,-10,o),
(128,3,o),
(131,20,cs),
(134,36,o),
(122,50,o),
(106,50,cs),
(90,50,o),
(75,36,o),
(72,20,cs),
(69,3,o),
(80,-10,o),
(96,-10,cs)
);
}
);
width = 300;
},
{
layerId = "8D1CD495-8E12-4F42-9971-C31B25734418";
shapes = (
{
closed = 1;
nodes = (
(196,403,o),
(226,426,o),
(231,456,cs),
(236,485,o),
(215,510,o),
(186,510,cs),
(158,510,o),
(129,485,o),
(124,456,cs),
(119,426,o),
(139,403,o),
(167,403,cs)
);
},
{
closed = 1;
nodes = (
(124,-10,o),
(153,14,o),
(158,44,cs),
(163,73,o),
(143,98,o),
(114,98,cs),
(86,98,o),
(56,73,o),
(51,44,cs),
(46,14,o),
(67,-10,o),
(95,-10,cs)
);
}
);
width = 300;
},
{
layerId = "EE06C6DC-CF8C-4948-A893-3A90CCE35999";
shapes = (
{
closed = 1;
nodes = (
(205,313,o),
(256,358,o),
(266,413,cs),
(275,465,o),
(239,510,o),
(187,510,cs),
(135,510,o),
(83,465,o),
(74,413,cs),
(64,358,o),
(101,313,o),
(153,313,cs)
);
},
{
closed = 1;
nodes = (
(148,-10,o),
(200,35,o),
(209,88,cs),
(219,143,o),
(183,188,o),
(131,188,cs),
(79,188,o),
(27,143,o),
(17,88,cs),
(8,35,o),
(44,-10,o),
(96,-10,cs)
);
}
);
width = 300;
}
);
},
{
glyphname = comma;
layers = (
{
layerId = "067991BB-F7E6-4D77-8E89-F1D1828DD7C4";
shapes = (
{
closed = 1;
nodes = (
(-54,-183,l),
(136,129,l),
(114,129,l),
(-75,-183,l)
);
}
);
width = 206;
},
{
layerId = "8D1CD495-8E12-4F42-9971-C31B25734418";
shapes = (
{
closed = 1;
nodes = (
(-11,-155,l),
(189,126,l),
(104,126,l),
(-75,-155,l)
);
}
);
width = 206;
},
{
layerId = "EE06C6DC-CF8C-4948-A893-3A90CCE35999";
shapes = (
{
closed = 1;
nodes = (
(23,-186,l),
(258,134,l),
(86,134,l),
(-83,-186,l)
);
}
);
width = 329;
}
);
leftKerningGroup = public.kern2.a2;
rightKerningGroup = public.kern1.b;
unicode = 44;
},
{
glyphname = comma.tf;
layers = (
{
layerId = "067991BB-F7E6-4D77-8E89-F1D1828DD7C4";
shapes = (
{
closed = 1;
nodes = (
(-7,-183,l),
(182,129,l),
(160,129,l),
(-29,-183,l)
);
}
);
width = 300;
},
{
layerId = "8D1CD495-8E12-4F42-9971-C31B25734418";
shapes = (
{
closed = 1;
nodes = (
(10,-155,l),
(255,126,l),
(172,126,l),
(-53,-155,l)
);
}
);
width = 300;
},
{
layerId = "EE06C6DC-CF8C-4948-A893-3A90CCE35999";
shapes = (
{
closed = 1;
nodes = (
(8,-186,l),
(242,134,l),
(71,134,l),
(-98,-186,l)
);
}
);
width = 300;
}
);
},
{
glyphname = commaaccentcomb;
layers = (
{
layerId = "067991BB-F7E6-4D77-8E89-F1D1828DD7C4";
shapes = (
{
closed = 1;
nodes = (
(-217,-148,l),
(-102,43,l),
(-124,43,l),
(-238,-148,l)
);
}
);
width = 7;
},
{
layerId = "8D1CD495-8E12-4F42-9971-C31B25734418";
shapes = (
{
closed = 1;
nodes = (
(-233,-126,l),
(-57,50,l),
(-151,50,l),
(-285,-126,l)
);
}
);
width = 24;
},
{
layerId = "EE06C6DC-CF8C-4948-A893-3A90CCE35999";
shapes = (
{
closed = 1;
nodes = (
(-217,-91,l),
(-51,103,l),
(-198,103,l),
(-297,-91,l)
);
}
);
width = 15;
}
);
leftKerningGroup = public.kern2.a2;
rightKerningGroup = public.kern1.b;
unicode = 806;
},
{
glyphname = commaturnedabovecomb;
layers = (
{
layerId = "067991BB-F7E6-4D77-8E89-F1D1828DD7C4";
shapes = (
{
closed = 1;
nodes = (
(21,850,l),
(-92,660,l),
(-71,660,l),
(44,850,l)
);
}
);
width = 7;
},
{
layerId = "8D1CD495-8E12-4F42-9971-C31B25734418";
shapes = (
{
closed = 1;
nodes = (
(21,829,l),
(-153,653,l),
(-59,653,l),
(74,829,l)
);
}
);
width = 24;
},
{
layerId = "EE06C6DC-CF8C-4948-A893-3A90CCE35999";
shapes = (
{
closed = 1;
nodes = (
(-30,784,l),
(-196,590,l),
(-49,590,l),
(50,784,l)
);
}
);
width = 15;
}
);
unicode = 786;
},
{
glyphname = copyright;
layers = (
{
layerId = "067991BB-F7E6-4D77-8E89-F1D1828DD7C4";
shapes = (
{
closed = 1;
nodes = (
(573,-9,o),
(731,150,o),
(731,345,cs),
(731,541,o),
(573,699,o),
(377,699,cs),
(183,699,o),
(23,541,o),
(23,345,cs),
(23,150,o),
(183,-9,o),
(377,-9,cs)
);
},
{
closed = 1;
nodes = (
(192,9,o),
(41,159,o),
(41,345,cs),
(41,531,o),
(192,681,o),
(377,681,cs),
(563,681,o),
(713,531,o),
(713,345,cs),
(713,159,o),
(563,9,o),
(377,9,cs)
);
},
{
closed = 1;
nodes = (
(483,115,o),
(567,176,o),
(600,260,c),
(583,260,l),
(550,184,o),
(474,133,o),
(387,133,cs),
(272,133,o),
(176,224,o),
(178,343,c),
(176,462,o),
(272,553,o),
(387,553,cs),
(474,553,o),
(550,501,o),
(583,427,c),
(600,427,l),
(567,511,o),
(483,570,o),
(387,570,cs),
(263,570,o),
(160,468,o),
(160,343,cs),
(160,219,o),
(263,115,o),
(387,115,cs)
);
}
);
width = 861;
},
{
layerId = "8D1CD495-8E12-4F42-9971-C31B25734418";
shapes = (
{
closed = 1;
nodes = (
(553,-9,o),
(712,150,o),
(712,345,cs),
(712,541,o),
(553,699,o),
(358,699,cs),
(163,699,o),
(3,541,o),
(3,345,cs),
(3,150,o),
(163,-9,o),
(358,-9,cs)
);
},
{
closed = 1;
nodes = (
(185,33,o),
(47,171,o),
(47,345,cs),
(47,519,o),
(185,657,o),
(358,657,cs),
(532,657,o),
(670,519,o),
(670,345,cs),
(670,171,o),
(532,33,o),
(358,33,cs)
);
},
{
closed = 1;
nodes = (
(454,144,o),
(529,201,o),
(555,282,c),
(492,282,l),
(469,235,o),
(421,204,o),
(366,204,cs),
(287,204,o),
(225,265,o),
(225,344,cs),
(225,422,o),
(287,483,o),
(366,483,cs),
(421,483,o),
(469,452,o),
(492,405,c),
(555,405,l),
(529,485,o),
(454,543,o),
(366,543,cs),
(255,543,o),
(166,453,o),
(166,344,cs),
(166,233,o),
(255,144,o),
(366,144,cs)
);
}
);
width = 822;
},
{
layerId = "EE06C6DC-CF8C-4948-A893-3A90CCE35999";
shapes = (
{
closed = 1;
nodes = (
(535,-9,o),
(695,150,o),
(695,345,cs),
(695,541,o),
(535,699,o),
(340,699,cs),
(145,699,o),
(-14,541,o),
(-14,345,cs),
(-14,150,o),
(145,-9,o),
(340,-9,cs)
);
},
{
closed = 1;
nodes = (
(190,78,o),
(74,196,o),
(74,345,cs),
(74,495,o),
(190,612,o),
(340,612,cs),
(490,612,o),
(606,495,o),
(606,345,cs),
(606,196,o),
(490,78,o),
(340,78,cs)
);
},
{
closed = 1;
nodes = (
(429,191,o),
(488,245,o),
(497,323,c),
(391,323,l),
(383,301,o),
(363,288,o),
(338,286,c),
(305,288,o),
(282,312,o),
(282,345,cs),
(282,378,o),
(305,403,o),
(338,404,c),
(363,403,o),
(383,389,o),
(391,367,c),
(497,367,l),
(488,445,o),
(429,499,o),
(338,499,cs),
(239,499,o),
(178,435,o),
(178,345,cs),
(178,255,o),
(239,191,o),
(338,191,cs)
);
}
);
width = 786;
}
);
leftKerningGroup = public.kern2.C2;
rightKerningGroup = public.kern1.C;
unicode = 169;
},
{
glyphname = currency;
layers = (
{
layerId = "067991BB-F7E6-4D77-8E89-F1D1828DD7C4";
shapes = (
{
closed = 1;
nodes = (
(63,168,l),
(111,218,l),
(186,149,o),
(301,149,o),
(376,218,c),
(425,168,l),
(438,183,l),
(390,231,l),
(458,306,o),
(458,420,o),
(390,495,c),
(438,543,l),
(425,558,l),
(376,509,l),
(301,578,o),
(187,576,o),
(112,508,c),
(65,558,l),
(50,543,l),
(98,494,l),
(30,420,o),
(30,305,o),
(97,231,c),
(50,183,l)
);
},
{
closed = 1;
nodes = (
(50,306,o),
(50,418,o),
(120,488,cs),
(188,556,o),
(300,558,o),
(370,488,cs),
(438,419,o),
(438,308,o),
(370,238,cs),
(300,168,o),
(188,168,o),
(118,238,cs)
);
}
);
width = 594;
},
{
layerId = "8D1CD495-8E12-4F42-9971-C31B25734418";
shapes = (
{
closed = 1;
nodes = (
(87,139,l),
(146,190,l),
(210,130,o),
(317,130,o),
(401,190,c),
(442,139,l),
(492,184,l),
(452,233,l),
(523,309,o),
(542,418,o),
(498,494,c),
(555,543,l),
(520,585,l),
(462,536,l),
(399,595,o),
(294,595,o),
(208,535,c),
(167,586,l),
(118,541,l),
(159,493,l),
(88,418,o),
(68,309,o),
(113,234,c),
(53,184,l)
);
},
{
closed = 1;
nodes = (
(128,313,o),
(147,413,o),
(215,473,cs),
(287,534,o),
(383,534,o),
(432,474,cs),
(483,413,o),
(466,314,o),
(394,253,cs),
(323,190,o),
(226,191,o),
(176,253,cs)
);
}
);
width = 586;
},
{
layerId = "EE06C6DC-CF8C-4948-A893-3A90CCE35999";
shapes = (
{
closed = 1;
nodes = (
(112,84,l),
(168,140,l),
(246,98,o),
(342,98,o),
(418,140,c),
(475,84,l),
(571,184,l),
(517,238,l),
(560,315,o),
(560,411,o),
(517,489,c),
(572,543,l),
(475,641,l),
(418,585,l),
(342,629,o),
(246,628,o),
(170,585,c),
(113,641,l),
(17,541,l),
(71,488,l),
(28,411,o),
(27,315,o),
(71,239,c),
(17,184,l)
);
},
{
closed = 1;
nodes = (
(165,324,o),
(165,399,o),
(211,446,cs),
(257,493,o),
(332,493,o),
(378,446,c),
(425,401,o),
(423,325,o),
(378,279,cs),
(332,233,o),
(257,233,o),
(210,279,cs)
);
}
);
width = 694;
}
);
leftKerningGroup = public.kern2.a2;
rightKerningGroup = public.kern1.b;
unicode = 164;
},
{
glyphname = d;
layers = (
{
layerId = "D1832D54-307F-4077-BFA3-B4D1D022CEF5";
name = "#instance";
shapes = (
{
closed = 1;
nodes = (
(620.733,750,l),
(550.267,351.867,l),
(527.733,445.233,o),
(452.4,510,o),
(349.567,510,cs),
(213.533,510,o),
(79.567,393.033,o),
(54.567,250,cs),
(29.567,107.933,o),
(122.533,-10,o),
(258.567,-10,cs),
(361.4,-10,o),
(459.3,54.767,o),
(514.267,148.133,c),
(488.733,0,l),
(509.567,0,l),
(641.567,750,l)
);
},
{
closed = 1;
nodes = (
(135.933,11.933,o),
(52.6,119.033,o),
(75.433,250,cs),
(98.267,381.933,o),
(220.233,488.1,o),
(346.233,488.1,cs),
(473.167,488.1,o),
(555.567,381.933,o),
(532.733,250,cs),
(509.9,119.033,o),
(388.867,11.933,o),
(261.933,11.933,cs)
);
}
);
width = 662;
},
{
layerId = "067991BB-F7E6-4D77-8E89-F1D1828DD7C4";
shapes = (
{
closed = 1;
nodes = (
(623,750,l),
(552,349,l),
(530,444,o),
(454,510,o),
(350,510,cs),
(214,510,o),
(80,393,o),
(55,250,cs),
(30,108,o),
(123,-10,o),
(259,-10,cs),
(363,-10,o),
(462,56,o),
(517,151,c),
(491,0,l),
(510,0,l),
(642,750,l)
);
},
{
closed = 1;
nodes = (
(135,10,o),
(51,118,o),
(74,250,cs),
(97,383,o),
(220,490,o),
(347,490,cs),
(475,490,o),
(558,383,o),
(535,250,cs),
(512,118,o),
(390,10,o),
(262,10,cs)
);
}
);
width = 663;
},
{
layerId = "8D1CD495-8E12-4F42-9971-C31B25734418";
shapes = (
{
closed = 1;
nodes = (
(555,750,l),
(500,435,l),
(462,481,o),
(406,510,o),
(337,510,cs),
(200,510,o),
(67,394,o),
(42,250,cs),
(17,106,o),
(109,-10,o),
(246,-10,cs),
(315,-10,o),
(381,19,o),
(435,65,c),
(423,0,l),
(497,0,l),
(629,750,l)
);
},
{
closed = 1;
nodes = (
(163,68,o),
(99,149,o),
(117,250,cs),
(135,351,o),
(227,433,o),
(324,433,cs),
(420,433,o),
(485,351,o),
(467,250,cs),
(449,149,o),
(356,68,o),
(260,68,cs)
);
}
);
width = 633;
},
{
layerId = "EE06C6DC-CF8C-4948-A893-3A90CCE35999";
shapes = (
{
closed = 1;
nodes = (
(467,750,l),
(417,464,l),
(390,493,o),
(351,510,o),
(300,510,cs),
(169,510,o),
(48,396,o),
(22,250,cs),
(-4,104,o),
(77,-10,o),
(208,-10,cs),
(259,-10,o),
(304,8,o),
(341,36,c),
(335,-1,l),
(513,0,l),
(645,750,l)
);
},
{
closed = 1;
nodes = (
(224,151,o),
(190,194,o),
(200,250,cs),
(210,306,o),
(259,349,o),
(313,349,cs),
(365,349,o),
(401,306,o),
(391,250,cs),
(381,194,o),
(330,151,o),
(278,151,cs)
);
}
);
width = 629;
}
);
leftKerningGroup = public.kern2.a2;
unicode = 100;
},
{
glyphname = dagger;
layers = (
{
layerId = "067991BB-F7E6-4D77-8E89-F1D1828DD7C4";
shapes = (
{
closed = 1;
nodes = (
(598,450,l),
(417,450,l),
(456,670,l),
(436,670,l),
(398,450,l),
(223,450,l),
(220,430,l),
(394,430,l),
(288,-170,l),
(308,-170,l),
(414,430,l),
(595,430,l)
);
}
);
width = 662;
},
{
layerId = "8D1CD495-8E12-4F42-9971-C31B25734418";
shapes = (
{
closed = 1;
nodes = (
(575.95,471,l),
(406.95,471,l),
(441.861,670,l),
(389.861,670,l),
(355.95,471,l),
(191.95,471,l),
(182.295,418,l),
(346.295,418,l),
(244.976,-170,l),
(296.976,-170,l),
(398.295,418,l),
(566.295,418,l)
);
}
);
width = 615;
},
{
layerId = "EE06C6DC-CF8C-4948-A893-3A90CCE35999";
shapes = (
{
closed = 1;
nodes = (
(628,509,l),
(471,509,l),
(499,670,l),
(387,670,l),
(358,509,l),
(204,509,l),
(184,395,l),
(338,395,l),
(239,-170,l),
(351,-170,l),
(451,395,l),
(608,395,l)
);
}
);
width = 653;
}
);
unicode = 8224;
},
{
glyphname = daggerdbl;
layers = (
{
layerId = "067991BB-F7E6-4D77-8E89-F1D1828DD7C4";
shapes = (
{
closed = 1;
nodes = (
(595,430,l),
(598,450,l),
(417,450,l),
(456,670,l),
(436,670,l),
(398,450,l),
(223,450,l),
(220,430,l),
(394,430,l),
(331,70,l),
(156,70,l),
(153,50,l),
(327,50,l),
(288,-170,l),
(308,-170,l),
(347,50,l),
(528,50,l),
(531,70,l),
(350,70,l),
(414,430,l)
);
}
);
width = 662;
},
{
layerId = "8D1CD495-8E12-4F42-9971-C31B25734418";
shapes = (
{
closed = 1;
nodes = (
(571.295,418,l),
(580.95,471,l),
(411.95,471,l),
(446.861,670,l),
(394.861,670,l),
(359.95,471,l),
(196.95,471,l),
(186.295,418,l),
(351.295,418,l),
(293.836,86,l),
(129.836,86,l),
(120.005,34,l),
(285.005,34,l),
(249.976,-170,l),
(300.976,-170,l),
(337.005,34,l),
(504.005,34,l),
(513.836,86,l),
(345.836,86,l),
(403.295,418,l)
);
}
);
width = 619;
},
{
layerId = "EE06C6DC-CF8C-4948-A893-3A90CCE35999";
shapes = (
{
closed = 1;
nodes = (
(608,395,l),
(628,509,l),
(471,509,l),
(499,670,l),
(387,670,l),
(358,509,l),
(204,509,l),
(184,395,l),
(338,395,l),
(289,115,l),
(135,115,l),
(115,1,l),
(269,1,l),
(239,-170,l),
(351,-170,l),
(381,1,l),
(538,1,l),
(558,115,l),
(401,115,l),
(451,395,l)
);
}
);
width = 653;
}
);
unicode = 8225;
},
{
glyphname = dblgravecomb;
layers = (
{
layerId = "067991BB-F7E6-4D77-8E89-F1D1828DD7C4";
shapes = (
{
closed = 1;
nodes = (
(202,569,l),
(137,750,l),
(104,750,l),
(177,569,l)
);
},
{
closed = 1;
nodes = (
(42,569,l),
(-23,750,l),
(-55,750,l),
(17,569,l)
);
}
);
width = 20;
},
{
layerId = "8D1CD495-8E12-4F42-9971-C31B25734418";
shapes = (
{
closed = 1;
nodes = (
(237,565,l),
(162,750,l),
(74,750,l),
(185,565,l)
);
},
{
closed = 1;
nodes = (
(77,565,l),
(3,750,l),
(-85,750,l),
(25,565,l)
);
}
);
width = 25;
},
{
layerId = "EE06C6DC-CF8C-4948-A893-3A90CCE35999";
shapes = (
{
closed = 1;
nodes = (
(305,563,l),
(231,750,l),
(67,750,l),
(187,563,l)
);
},
{
closed = 1;
nodes = (
(94,563,l),
(20,750,l),
(-145,750,l),
(-24,563,l)
);
}
);
width = 34;
}
);
unicode = 783;
},
{
glyphname = dcaron;
layers = (
{
layerId = "067991BB-F7E6-4D77-8E89-F1D1828DD7C4";
shapes = (
{
closed = 1;
nodes = (
(552,349,l),
(530,444,o),
(454,510,o),
(350,510,cs),
(214,510,o),
(80,393,o),
(55,250,cs),
(30,108,o),
(123,-10,o),
(259,-10,cs),
(363,-10,o),
(462,56,o),
(517,151,c),
(491,0,l),
(510,0,l),
(642,750,l),
(623,750,l)
);
},
{
closed = 1;
nodes = (
(799,750,l),
(656,448,l),
(676,448,l),
(820,750,l)
);
},
{
closed = 1;
nodes = (
(135,10,o),
(51,118,o),
(74,250,cs),
(97,383,o),
(220,490,o),
(347,490,cs),
(475,490,o),
(558,383,o),
(535,250,cs),
(512,118,o),
(390,10,o),
(262,10,cs)
);
}
);
width = 748;
},
{
layerId = "8D1CD495-8E12-4F42-9971-C31B25734418";
shapes = (
{
closed = 1;
nodes = (
(500,435,l),
(462,481,o),
(406,510,o),
(337,510,cs),
(200,510,o),
(67,394,o),
(42,250,cs),
(17,106,o),
(109,-10,o),
(246,-10,cs),
(315,-10,o),
(381,19,o),
(435,65,c),
(423,0,l),
(497,0,l),
(629,750,l),
(555,750,l)
);
},
{
closed = 1;
nodes = (
(766,750,l),
(634,449,l),
(689,449,l),
(850,750,l)
);
},
{
closed = 1;
nodes = (
(163,68,o),
(99,149,o),
(117,250,cs),
(135,351,o),
(227,433,o),
(324,433,cs),
(420,433,o),
(485,351,o),
(467,250,cs),
(449,149,o),
(356,68,o),
(260,68,cs)
);
}
);
width = 763;
},
{
layerId = "EE06C6DC-CF8C-4948-A893-3A90CCE35999";
shapes = (
{
closed = 1;
nodes = (
(417,464,l),
(390,493,o),
(351,510,o),
(300,510,cs),
(169,510,o),
(48,396,o),
(22,250,cs),
(-4,104,o),
(77,-10,o),
(208,-10,cs),
(259,-10,o),
(304,8,o),
(341,36,c),
(335,-1,l),
(513,0,l),
(644,750,l),
(466,750,l)
);
},
{
closed = 1;
nodes = (
(788,750,l),
(652,448,l),
(739,448,l),
(927,750,l)
);
},
{
closed = 1;
nodes = (
(224,151,o),
(190,194,o),
(200,250,cs),
(210,306,o),
(259,349,o),
(313,349,cs),
(365,349,o),
(401,306,o),
(391,250,cs),
(381,194,o),
(330,151,o),
(278,151,cs)
);
}
);
width = 823;
}
);
leftKerningGroup = public.kern2.a2;
unicode = 271;
},
{
glyphname = dcroat;
layers = (
{
layerId = "067991BB-F7E6-4D77-8E89-F1D1828DD7C4";
shapes = (
{
closed = 1;
nodes = (
(703,658,l),
(626,658,l),
(642,750,l),
(623,750,l),
(607,658,l),
(463,658,l),
(459,638,l),
(603,638,l),
(552,349,l),
(530,444,o),
(454,510,o),
(350,510,cs),
(214,510,o),
(80,393,o),
(55,250,cs),
(30,108,o),
(123,-10,o),
(259,-10,cs),
(363,-10,o),
(462,56,o),
(517,151,c),
(491,0,l),
(510,0,l),
(622,638,l),
(699,638,l)
);
},
{
closed = 1;
nodes = (
(135,10,o),
(51,118,o),
(74,250,cs),
(97,383,o),
(220,490,o),
(347,490,cs),
(475,490,o),
(558,383,o),
(535,250,cs),
(512,118,o),
(390,10,o),
(262,10,cs)
);
}
);
width = 667;
},
{
layerId = "8D1CD495-8E12-4F42-9971-C31B25734418";
shapes = (
{
closed = 1;
nodes = (
(679,659,l),
(613,659,l),
(629,750,l),
(555,750,l),
(539,659,l),
(400,659,l),
(387,584,l),
(526,584,l),
(500,435,l),
(462,481,o),
(406,510,o),
(337,510,cs),
(200,510,o),
(67,394,o),
(42,250,cs),
(17,106,o),
(109,-10,o),
(246,-10,cs),
(315,-10,o),
(381,19,o),
(435,65,c),
(423,0,l),
(497,0,l),
(600,584,l),
(665,584,l)
);
},
{
closed = 1;
nodes = (
(163,68,o),
(99,149,o),
(117,250,cs),
(135,351,o),
(227,433,o),
(324,433,cs),
(420,433,o),
(485,351,o),
(467,250,cs),
(449,149,o),
(356,68,o),
(260,68,cs)
);
}
);
width = 637;
},
{
layerId = "EE06C6DC-CF8C-4948-A893-3A90CCE35999";
shapes = (
{
closed = 1;
nodes = (
(694,685,l),
(633,685,l),
(645,750,l),
(467,750,l),
(456,685,l),
(341,685,l),
(325,598,l),
(441,598,l),
(417,464,l),
(390,493,o),
(351,510,o),
(300,510,cs),
(169,510,o),
(48,396,o),
(22,250,cs),
(-4,104,o),
(77,-10,o),
(208,-10,cs),
(259,-10,o),
(304,8,o),
(341,36,c),
(335,-1,l),
(513,0,l),
(618,598,l),
(679,598,l)
);
},
{
closed = 1;
nodes = (
(224,151,o),
(190,194,o),
(200,250,cs),
(210,306,o),
(259,349,o),
(313,349,cs),
(365,349,o),
(401,306,o),
(391,250,cs),
(381,194,o),
(330,151,o),
(278,151,cs)
);
}
);
width = 632;
}
);
unicode = 273;
},
{
glyphname = degree;
layers = (
{
layerId = "067991BB-F7E6-4D77-8E89-F1D1828DD7C4";
shapes = (
{
closed = 1;
nodes = (
(362,493,o),
(432,553,o),
(445,626,cs),
(458,699,o),
(409,760,o),
(337,760,cs),
(265,760,o),
(196,699,o),
(183,626,cs),
(170,553,o),
(218,493,o),
(290,493,cs)
);
},
{
closed = 1;
nodes = (
(231,513,o),
(192,563,o),
(203,626,cs),
(214,689,o),
(271,740,o),
(333,740,cs),
(395,740,o),
(436,689,o),
(425,626,cs),
(414,563,o),
(355,513,o),
(293,513,cs)
);
}
);
width = 512;
},
{
layerId = "8D1CD495-8E12-4F42-9971-C31B25734418";
shapes = (
{
closed = 1;
nodes = (
(346,493,o),
(414,553,o),
(427,626,cs),
(440,700,o),
(393,760,o),
(321,760,cs),
(248,760,o),
(179,700,o),
(166,626,cs),
(153,553,o),
(201,493,o),
(274,493,cs)
);
},
{
closed = 1;
nodes = (
(230,535,o),
(198,575,o),
(207,626,cs),
(216,678,o),
(262,718,o),
(313,718,cs),
(363,718,o),
(395,678,o),
(386,626,cs),
(377,575,o),
(331,535,o),
(281,535,cs)
);
}
);
width = 478;
},
{
layerId = "EE06C6DC-CF8C-4948-A893-3A90CCE35999";
shapes = (
{
closed = 1;
nodes = (
(336,493,o),
(404,551,o),
(417,626,cs),
(430,701,o),
(383,760,o),
(309,760,cs),
(235,760,o),
(167,701,o),
(154,626,cs),
(141,551,o),
(188,493,o),
(262,493,cs)
);
},
{
closed = 1;
nodes = (
(251,578,o),
(232,598,o),
(237,626,cs),
(242,654,o),
(268,675,o),
(294,675,cs),
(322,675,o),
(339,654,o),
(334,626,cs),
(329,598,o),
(305,578,o),
(277,578,cs)
);
}
);
width = 456;
}
);
leftKerningGroup = public.kern2.C2;
rightKerningGroup = public.kern1.C;
unicode = 176;
},
{
glyphname = dieresis;
layers = (
{
layerId = "067991BB-F7E6-4D77-8E89-F1D1828DD7C4";
shapes = (
{
closed = 1;
nodes = (
(179,600,o),
(194.912,613.016,o),
(198,630,cs),
(200.912,646.016,o),
(190,660,o),
(174,660,cs),
(158,660,o),
(141.912,646.016,o),
(139,630,cs),
(135.912,613.016,o),
(147,600,o),
(163,600,cs)
);
},
{
closed = 1;
nodes = (
(326,600,o),
(341.912,613.016,o),
(345,630,cs),
(347.912,646.016,o),
(337,660,o),
(321,660,cs),
(305,660,o),
(288.912,646.016,o),
(286,630,cs),
(282.912,613.016,o),
(294,600,o),
(310,600,cs)
);
}
);
width = 51;
},
{
layerId = "8D1CD495-8E12-4F42-9971-C31B25734418";
shapes = (
{
closed = 1;
nodes = (
(197,594,o),
(225.871,618.023,o),
(231,646,cs),
(236.871,678.024,o),
(216,700,o),
(188,700,cs),
(159,700,o),
(130.871,678.024,o),
(125,646,cs),
(119.871,618.023,o),
(140,594,o),
(169,594,cs)
);
},
{
closed = 1;
nodes = (
(376,594,o),
(403.871,618.023,o),
(409,646,cs),
(414.871,678.024,o),
(394,700,o),
(365,700,cs),
(338,700,o),
(309.871,678.024,o),
(304,646,cs),
(298.871,618.023,o),
(320,594,o),
(347,594,cs)
);
}
);
width = 78;
},
{
layerId = "EE06C6DC-CF8C-4948-A893-3A90CCE35999";
shapes = (
{
closed = 1;
nodes = (
(227,586,o),
(271.087,623.984,o),
(279,668,cs),
(287.087,712.984,o),
(256,749,o),
(213,749,cs),
(169,749,o),
(126.087,712.984,o),
(118,668,cs),
(110.087,623.984,o),
(140,586,o),
(184,586,cs)
);
},
{
closed = 1;
nodes = (
(442,586,o),
(485.087,623.984,o),
(493,668,cs),
(501.087,712.984,o),
(471,749,o),
(427,749,cs),
(384,749,o),
(341.087,712.984,o),
(333,668,cs),
(325.087,623.984,o),
(355,586,o),
(398,586,cs)
);
}
);
width = 157;
}
);
unicode = 168;
},
{
glyphname = dieresiscomb;
layers = (
{
layerId = "067991BB-F7E6-4D77-8E89-F1D1828DD7C4";
shapes = (
{
closed = 1;
nodes = (
(-174,600,o),
(-158,613,o),
(-155,630,cs),
(-152,646,o),
(-163,660,o),
(-179,660,cs),
(-195,660,o),
(-211,646,o),
(-214,630,cs),
(-217,613,o),
(-206,600,o),
(-190,600,cs)
);
},
{
closed = 1;
nodes = (
(-27,600,o),
(-11,613,o),
(-8,630,cs),
(-5,646,o),
(-16,660,o),
(-32,660,cs),
(-48,660,o),
(-64,646,o),
(-67,630,cs),
(-70,613,o),
(-59,600,o),
(-43,600,cs)
);
}
);
width = 14;
},
{
layerId = "8D1CD495-8E12-4F42-9971-C31B25734418";
shapes = (
{
closed = 1;
nodes = (
(-194,594,o),
(-165,618,o),
(-160,646,cs),
(-154,678,o),
(-175,700,o),
(-203,700,cs),
(-232,700,o),
(-261,678,o),
(-267,646,cs),
(-272,618,o),
(-251,594,o),
(-222,594,cs)
);
},
{
closed = 1;
nodes = (
(-16,594,o),
(13,618,o),
(18,646,cs),
(24,678,o),
(3,700,o),
(-26,700,cs),
(-54,700,o),
(-82,678,o),
(-88,646,cs),
(-93,618,o),
(-73,594,o),
(-45,594,cs)
);
}
);
width = 20;
},
{
layerId = "EE06C6DC-CF8C-4948-A893-3A90CCE35999";
shapes = (
{
closed = 1;
nodes = (
(-227,586,o),
(-183,624,o),
(-175,668,cs),
(-167,713,o),
(-198,749,o),
(-241,749,cs),
(-285,749,o),
(-328,713,o),
(-336,668,cs),
(-344,624,o),
(-314,586,o),
(-270,586,cs)
);
},
{
closed = 1;
nodes = (
(-12,586,o),
(31,624,o),
(39,668,cs),
(47,713,o),
(17,749,o),
(-27,749,cs),
(-70,749,o),
(-113,713,o),
(-121,668,cs),
(-129,624,o),
(-99,586,o),
(-56,586,cs)
);
}
);
width = 26;
}
);
unicode = 776;
},
{
glyphname = divide;
layers = (
{
layerId = "067991BB-F7E6-4D77-8E89-F1D1828DD7C4";
shapes = (
{
closed = 1;
nodes = (
(403,415,o),
(418,428,o),
(418,445,cs),
(418,461,o),
(403,475,o),
(388,475,cs),
(371,475,o),
(358,461,o),
(358,445,cs),
(358,428,o),
(371,415,o),
(388,415,cs)
);
},
{
closed = 1;
nodes = (
(88,265,l),
(688,265,l),
(688,285,l),
(88,285,l)
);
},
{
closed = 1;
nodes = (
(403,75,o),
(418,88,o),
(418,105,cs),
(418,121,o),
(403,135,o),
(388,135,cs),
(371,135,o),
(358,121,o),
(358,105,cs),
(358,88,o),
(371,75,o),
(388,75,cs)
);
}
);
width = 774;
},
{
layerId = "8D1CD495-8E12-4F42-9971-C31B25734418";
shapes = (
{
closed = 1;
nodes = (
(395,395,o),
(419,418,o),
(419,445,cs),
(419,473,o),
(395,495,o),
(369,495,cs),
(343,495,o),
(319,473,o),
(319,445,cs),
(319,418,o),
(343,395,o),
(369,395,cs)
);
},
{
closed = 1;
nodes = (
(69,253,l),
(669,253,l),
(669,298,l),
(69,298,l)
);
},
{
closed = 1;
nodes = (
(395,55,o),
(419,78,o),
(419,105,cs),
(419,133,o),
(395,155,o),
(369,155,cs),
(343,155,o),
(319,133,o),
(319,105,cs),
(319,78,o),
(343,55,o),
(369,55,cs)
);
}
);
width = 738;
},
{
layerId = "EE06C6DC-CF8C-4948-A893-3A90CCE35999";
shapes = (
{
closed = 1;
nodes = (
(403,400,o),
(444,438,o),
(444,488,cs),
(444,533,o),
(403,574,o),
(356,574,cs),
(310,574,o),
(270,533,o),
(270,488,cs),
(270,438,o),
(310,400,o),
(356,400,cs)
);
},
{
closed = 1;
nodes = (
(56,230,l),
(656,230,l),
(656,320,l),
(56,320,l)
);
},
{
closed = 1;
nodes = (
(403,-24,o),
(444,14,o),
(444,63,cs),
(444,109,o),
(403,150,o),
(356,150,cs),
(310,150,o),
(270,109,o),
(270,63,cs),
(270,14,o),
(310,-24,o),
(356,-24,cs)
);
}
);
width = 713;
}
);
unicode = 247;
},
{
glyphname = dollar;
layers = (
{
layerId = "067991BB-F7E6-4D77-8E89-F1D1828DD7C4";
shapes = (
{
closed = 1;
nodes = (
(471,381,o),
(107,330,o),
(143,534,cs),
(160,633,o),
(251,679,o),
(327,679,cs),
(394,679,o),
(441,644,o),
(461,608,c),
(478,619,l),
(456,659,o),
(406,695,o),
(338,697,c),
(352,778,l),
(334,778,l),
(320,697,l),
(239,693,o),
(145,643,o),
(126,534,cs),
(87,313,o),
(450,364,o),
(414,161,cs),
(396,61,o),
(300,7,o),
(205,7,cs),
(109,7,o),
(49,61,o),
(36,125,c),
(18,119,l),
(33,47,o),
(98,-9,o),
(195,-11,c),
(182,-87,l),
(199,-87,l),
(213,-11,l),
(308,-7,o),
(412,46,o),
(432,161,cs)
);
}
);
width = 506;
},
{
layerId = "8D1CD495-8E12-4F42-9971-C31B25734418";
shapes = (
{
closed = 1;
nodes = (
(478,413,o),
(140,356,o),
(169,520,cs),
(181,589,o),
(241,623,o),
(304,623,cs),
(356,623,o),
(395,601,o),
(416,562,c),
(481,610,l),
(457,649,o),
(415,681,o),
(358,693,c),
(371,769,l),
(303,769,l),
(290,695,l),
(196,685,o),
(113,618,o),
(95,515,cs),
(56,293,o),
(395,348,o),
(365,176,cs),
(352,103,o),
(284,61,o),
(209,61,cs),
(133,61,o),
(84,104,o),
(72,167,c),
(0,128,l),
(19,52,o),
(79,-1,o),
(165,-10,c),
(153,-82,l),
(221,-82,l),
(234,-10,l),
(333,4,o),
(418,72,o),
(437,179,cs)
);
}
);
width = 489;
},
{
layerId = "EE06C6DC-CF8C-4948-A893-3A90CCE35999";
shapes = (
{
closed = 1;
nodes = (
(552,462,o),
(234,397,o),
(252,501,cs),
(257,531,o),
(283,545,o),
(310,545,cs),
(343,545,o),
(377,524,o),
(406,485,c),
(538,597,l),
(509,641,o),
(464,673,o),
(412,689,c),
(425,761,l),
(281,761,l),
(269,690,l),
(182,668,o),
(96,605,o),
(76,489,cs),
(34,250,o),
(352,307,o),
(333,202,cs),
(328,175,o),
(302,155,o),
(258,155,cs),
(199,155,o),
(158,187,o),
(144,239,c),
(-13,150,l),
(10,83,o),
(66,25,o),
(147,1,c),
(134,-71,l),
(278,-71,l),
(290,-3,l),
(394,17,o),
(487,90,o),
(506,200,cs)
);
}
);
width = 545;
}
);
unicode = 36;
},
{
glyphname = dotaccent;
layers = (
{
layerId = "067991BB-F7E6-4D77-8E89-F1D1828DD7C4";
shapes = (
{
closed = 1;
nodes = (
(205,600,o),
(221,613,o),
(224,630,cs),
(227,646,o),
(215,660,o),
(200,660,cs),
(183,660,o),
(168,646,o),
(165,630,cs),
(162,613,o),
(173,600,o),
(190,600,cs)
);
}
);
width = 40;
},
{
layerId = "8D1CD495-8E12-4F42-9971-C31B25734418";
shapes = (
{
closed = 1;
nodes = (
(218,575,o),
(248,599,o),
(253,629,cs),
(258,659,o),
(237,683,o),
(210,683,cs),
(182,683,o),
(153,659,o),
(148,629,cs),
(143,599,o),
(163,575,o),
(191,575,cs)
);
}
);
width = 65;
},
{
layerId = "EE06C6DC-CF8C-4948-A893-3A90CCE35999";
shapes = (
{
closed = 1;
nodes = (
(274,561,o),
(326,606,o),
(336,660,cs),
(346,714,o),
(309,758,o),
(256,758,cs),
(203,758,o),
(152,714,o),
(142,660,cs),
(132,606,o),
(168,561,o),
(221,561,cs)
);
}
);
width = 109;
}
);
unicode = 729;
},
{
glyphname = dotaccentcomb;
layers = (
{
layerId = "067991BB-F7E6-4D77-8E89-F1D1828DD7C4";
shapes = (
{
closed = 1;
nodes = (
(-63,600,o),
(-46,613,o),
(-43,630,cs),
(-40,646,o),
(-52,660,o),
(-67,660,cs),
(-84,660,o),
(-99,646,o),
(-102,630,cs),
(-105,613,o),
(-95,600,o),
(-78,600,cs)
);
}
);
width = 4;
},
{
layerId = "8D1CD495-8E12-4F42-9971-C31B25734418";
shapes = (
{
closed = 1;
nodes = (
(-59,575,o),
(-30,599,o),
(-25,629,cs),
(-20,659,o),
(-40,683,o),
(-68,683,cs),
(-95,683,o),
(-125,659,o),
(-130,629,cs),
(-135,599,o),
(-114,575,o),
(-87,575,cs)
);
}
);
width = 7;
},
{
layerId = "EE06C6DC-CF8C-4948-A893-3A90CCE35999";
shapes = (
{
closed = 1;
nodes = (
(-62,561,o),
(-11,606,o),
(-1,660,cs),
(9,714,o),
(-28,758,o),
(-81,758,cs),
(-134,758,o),
(-185,714,o),
(-195,660,cs),
(-205,606,o),
(-168,561,o),
(-115,561,cs)
);
}
);
width = 13;
}
);
unicode = 775;
},
{
glyphname = dotbelowcomb;
layers = (
{
layerId = "067991BB-F7E6-4D77-8E89-F1D1828DD7C4";
shapes = (
{
closed = 1;
nodes = (
(-158,-250,o),
(-142,-238,o),
(-139,-220,cs),
(-136,-204,o),
(-148,-190,o),
(-163,-190,cs),
(-180,-190,o),
(-194,-204,o),
(-197,-220,cs),
(-200,-238,o),
(-190,-250,o),
(-173,-250,cs)
);
}
);
width = 4;
},
{
layerId = "8D1CD495-8E12-4F42-9971-C31B25734418";
shapes = (
{
closed = 1;
nodes = (
(-150,-250,o),
(-121,-226,o),
(-116,-196,cs),
(-111,-168,o),
(-131,-143,o),
(-159,-143,cs),
(-186,-143,o),
(-215,-168,o),
(-220,-196,cs),
(-225,-226,o),
(-205,-250,o),
(-178,-250,cs)
);
}
);
width = 7;
},
{
layerId = "EE06C6DC-CF8C-4948-A893-3A90CCE35999";
shapes = (
{
closed = 1;
nodes = (
(-151,-250,o),
(-99,-205,o),
(-90,-153,cs),
(-80,-98,o),
(-116,-53,o),
(-169,-53,cs),
(-222,-53,o),
(-274,-98,o),
(-284,-153,cs),
(-293,-205,o),
(-257,-250,o),
(-204,-250,cs)
);
}
);
width = 13;
}
);
unicode = 803;
},
{
glyphname = dotlessi;
layers = (
{
layerId = "067991BB-F7E6-4D77-8E89-F1D1828DD7C4";
shapes = (
{
closed = 1;
nodes = (
(53,0,l),
(72,0,l),
(160,500,l),
(141,500,l)
);
}
);
width = 231;
},
{
layerId = "8D1CD495-8E12-4F42-9971-C31B25734418";
shapes = (
{
closed = 1;
nodes = (
(37,0,l),
(111,0,l),
(199,500,l),
(125,500,l)
);
}
);
width = 253;
},
{
layerId = "EE06C6DC-CF8C-4948-A893-3A90CCE35999";
shapes = (
{
closed = 1;
nodes = (
(15,0,l),
(193,0,l),
(281,500,l),
(103,500,l)
);
}
);
width = 314;
}
);
leftKerningGroup = public.kern2.i;
rightKerningGroup = public.kern1.a;
unicode = 305;
},
{
glyphname = dotlessj;
layers = (
{
layerId = "067991BB-F7E6-4D77-8E89-F1D1828DD7C4";
shapes = (
{
closed = 1;
nodes = (
(-22,-300,o),
(32,-251,o),
(43,-191,cs),
(165,500,l),
(146,500,l),
(24,-191,ls),
(15,-241,o),
(-29,-280,o),
(-77,-280,c),
(-128,-271,l),
(-130,-284,l),
(-120,-293,o),
(-96,-300,o),
(-80,-300,cs)
);
}
);
width = 230;
},
{
layerId = "8D1CD495-8E12-4F42-9971-C31B25734418";
shapes = (
{
closed = 1;
nodes = (
(-3,-300,o),
(70,-238,o),
(84,-159,cs),
(200,500,l),
(126,500,l),
(12,-149,ls),
(4,-195,o),
(-35,-225,o),
(-73,-225,c),
(-128,-224,l),
(-139,-284,l),
(-128,-293,o),
(-103,-300,o),
(-79,-300,cs)
);
}
);
width = 247;
},
{
layerId = "EE06C6DC-CF8C-4948-A893-3A90CCE35999";
shapes = (
{
closed = 1;
nodes = (
(46,-300,o),
(156,-211,o),
(176,-98,cs),
(281,500,l),
(104,500,l),
(2,-75,ls),
(-5,-115,o),
(-27,-140,o),
(-58,-140,cs),
(-118,-140,l),
(-143,-284,l),
(-131,-293,o),
(-99,-300,o),
(-64,-300,cs)
);
}
);
width = 308;
}
);
leftKerningGroup = public.kern2.i;
rightKerningGroup = public.kern1.a;
unicode = 567;
},
{
glyphname = e;
layers = (
{
anchors = (
{
name = b.uni0326;
position = "{275, 0}";
},
{
name = b.uni0328_1;
position = "{467, 76}";
},
{
name = t.uni0308_2;
position = "{277, 510}";
},
{
name = m.uni0335_3;
position = "{-53, 0}";
}
);
layerId = "D1832D54-307F-4077-BFA3-B4D1D022CEF5";
name = "#instance";
shapes = (
{
closed = 1;
nodes = (
(553.467,254.467,l),
(554.567,262.733,ls),
(570.8,403.833,o),
(482.7,510,o),
(349.567,510,cs),
(213.533,510,o),
(79.567,393.033,o),
(54.567,250,cs),
(29.567,107.933,o),
(122.533,-10,o),
(258.567,-10,cs),
(368.7,-10,o),
(477.7,66.1,o),
(528.667,171.167,c),
(506.7,171.167,l),
(459.033,79.1,o),
(361.967,11.933,o),
(261.933,11.933,cs),
(131.2,11.933,o),
(52.733,119.8,o),
(76.333,254.467,c)
);
},
{
closed = 1;
nodes = (
(463.833,488.1,o),
(543.033,395.5,o),
(535.633,276.133,c),
(80.933,276.133,l),
(116.967,397.433,o),
(227.667,488.1,o),
(346.233,488.1,cs)
);
}
);
width = 620;
},
{
anchors = (
{
name = b.uni0326;
position = "{275, 0}";
},
{
name = b.uni0328_1;
position = "{470, 78}";
},
{
name = t.uni0308_2;
position = "{277, 510}";
},
{
name = m.uni0335_3;
position = "{-53, 0}";
}
);
layerId = "067991BB-F7E6-4D77-8E89-F1D1828DD7C4";
shapes = (
{
closed = 1;
nodes = (
(554,255,l),
(555,263,l),
(571,404,o),
(483,510,o),
(350,510,cs),
(214,510,o),
(80,393,o),
(55,250,cs),
(30,108,o),
(123,-10,o),
(259,-10,cs),
(369,-10,o),
(478,66,o),
(529,171,c),
(509,171,l),
(461,78,o),
(363,10,o),
(262,10,cs),
(130,10,o),
(51,119,o),
(75,255,c)
);
},
{
closed = 1;
nodes = (
(466,490,o),
(546,396,o),
(538,275,c),
(79,275,l),
(115,398,o),
(227,490,o),
(347,490,cs)
);
}
);
width = 621;
},
{
anchors = (
{
name = b.uni0326;
position = "{270, 0}";
},
{
name = b.uni0328_1;
position = "{387, 25}";
},
{
name = t.uni0308_2;
position = "{268, 505}";
},
{
name = m.uni0335_3;
position = "{-53, 0}";
}
);
layerId = "8D1CD495-8E12-4F42-9971-C31B25734418";
shapes = (
{
closed = 1;
nodes = (
(538,239,l),
(542,255,l),
(565,399,o),
(474,510,o),
(337,510,cs),
(200,510,o),
(67,394,o),
(42,250,cs),
(17,106,o),
(109,-10,o),
(246,-10,cs),
(360,-10,o),
(469,69,o),
(519,176,c),
(440,176,l),
(402,111,o),
(332,68,o),
(260,68,cs),
(166,68,o),
(103,143,o),
(115,239,c)
);
},
{
closed = 1;
nodes = (
(401,433,o),
(457,381,o),
(467,309,c),
(137,309,l),
(174,381,o),
(247,433,o),
(324,433,cs)
);
}
);
width = 597;
},
{
anchors = (
{
name = b.uni0326;
position = "{286, -1}";
},
{
name = b.uni0328_1;
position = "{418, 20}";
},
{
name = t.uni0308_2;
position = "{275, 500}";
},
{
name = m.uni0335_3;
position = "{-53, 0}";
}
);
layerId = "EE06C6DC-CF8C-4948-A893-3A90CCE35999";
shapes = (
{
closed = 1;
nodes = (
(563,220,l),
(569,251,l),
(596,411,o),
(509,511,o),
(344,511,cs),
(181,511,o),
(50,411,o),
(22,250,cs),
(-6,90,o),
(87,-10,o),
(256,-10,cs),
(403,-10,o),
(507,63,o),
(547,171,c),
(377,171,l),
(363,139,o),
(327,120,o),
(278,120,cs),
(214,120,o),
(197,155,o),
(205,220,c)
);
},
{
closed = 1;
nodes = (
(369,375,o),
(391,356,o),
(399,323,c),
(231,323,l),
(248,356,o),
(275,375,o),
(323,375,cs)
);
}
);
width = 610;
}
);
leftKerningGroup = public.kern2.a2;
rightKerningGroup = public.kern1.b;
unicode = 101;
},
{
glyphname = eacute;
leftMetricsKey = e;
widthMetricsKey = e;
layers = (
{
layerId = "067991BB-F7E6-4D77-8E89-F1D1828DD7C4";
shapes = (
{
closed = 1;
nodes = (
(510,760,l),
(479,760,l),
(351,579,l),
(375,579,l)
);
},
{
closed = 1;
nodes = (
(554,255,l),
(555,263,l),
(571,404,o),
(483,510,o),
(350,510,cs),
(214,510,o),
(80,393,o),
(55,250,cs),
(30,108,o),
(123,-10,o),
(259,-10,cs),
(369,-10,o),
(478,66,o),
(529,171,c),
(509,171,l),
(461,78,o),
(363,10,o),
(262,10,cs),
(130,10,o),
(51,119,o),
(75,255,c)
);
},
{
closed = 1;
nodes = (
(466,490,o),
(546,396,o),
(538,275,c),
(79,275,l),
(115,398,o),
(227,490,o),
(347,490,cs)
);
}
);
width = 621;
},
{
layerId = "8D1CD495-8E12-4F42-9971-C31B25734418";
shapes = (
{
closed = 1;
nodes = (
(548,755,l),
(461,755,l),
(323,570,l),
(374,570,l)
);
},
{
closed = 1;
nodes = (
(538,239,l),
(542,255,l),
(565,399,o),
(474,510,o),
(337,510,cs),
(200,510,o),
(67,394,o),
(42,250,cs),
(17,106,o),
(109,-10,o),
(246,-10,cs),
(360,-10,o),
(469,69,o),
(519,176,c),
(440,176,l),
(402,111,o),
(332,68,o),
(260,68,cs),
(166,68,o),
(103,143,o),
(115,239,c)
);
},
{
closed = 1;
nodes = (
(401,433,o),
(457,381,o),
(467,309,c),
(137,309,l),
(174,381,o),
(247,433,o),
(324,433,cs)
);
}
);
width = 597;
},
{
layerId = "EE06C6DC-CF8C-4948-A893-3A90CCE35999";
shapes = (
{
closed = 1;
nodes = (
(591,750,l),
(429,750,l),
(290,563,l),
(407,563,l)
);
},
{
closed = 1;
nodes = (
(563,220,l),
(569,251,l),
(596,411,o),
(509,511,o),
(344,511,cs),
(181,511,o),
(50,411,o),
(22,250,cs),
(-6,90,o),
(87,-10,o),
(256,-10,cs),
(403,-10,o),
(507,63,o),
(547,171,c),
(377,171,l),
(363,139,o),
(327,120,o),
(278,120,cs),
(214,120,o),
(197,155,o),
(205,220,c)
);
},
{
closed = 1;
nodes = (
(369,375,o),
(391,356,o),
(399,323,c),
(231,323,l),
(248,356,o),
(275,375,o),
(323,375,cs)
);
}
);
width = 610;
}
);
unicode = 233;
},
{
glyphname = ecaron;
leftMetricsKey = e;
widthMetricsKey = e;
layers = (
{
layerId = "067991BB-F7E6-4D77-8E89-F1D1828DD7C4";
shapes = (
{
closed = 1;
nodes = (
(373,579,l),
(499,760,l),
(469,760,l),
(367,603,l),
(318,760,l),
(289,760,l),
(349,579,l)
);
},
{
closed = 1;
nodes = (
(554,255,l),
(555,263,l),
(571,404,o),
(483,510,o),
(350,510,cs),
(214,510,o),
(80,393,o),
(55,250,cs),
(30,108,o),
(123,-10,o),
(259,-10,cs),
(369,-10,o),
(478,66,o),
(529,171,c),
(509,171,l),
(461,78,o),
(363,10,o),
(262,10,cs),
(130,10,o),
(51,119,o),
(75,255,c)
);
},
{
closed = 1;
nodes = (
(466,490,o),
(546,396,o),
(538,275,c),
(79,275,l),
(115,398,o),
(227,490,o),
(347,490,cs)
);
}
);
width = 621;
},
{
layerId = "8D1CD495-8E12-4F42-9971-C31B25734418";
shapes = (
{
closed = 1;
nodes = (
(391,570,l),
(519,755,l),
(460,755,l),
(362,623,l),
(312,755,l),
(254,755,l),
(314,570,l)
);
},
{
closed = 1;
nodes = (
(538,239,l),
(542,255,l),
(565,399,o),
(474,510,o),
(337,510,cs),
(200,510,o),
(67,394,o),
(42,250,cs),
(17,106,o),
(109,-10,o),
(246,-10,cs),
(360,-10,o),
(469,69,o),
(519,176,c),
(440,176,l),
(402,111,o),
(332,68,o),
(260,68,cs),
(166,68,o),
(103,143,o),
(115,239,c)
);
},
{
closed = 1;
nodes = (
(401,433,o),
(457,381,o),
(467,309,c),
(137,309,l),
(174,381,o),
(247,433,o),
(324,433,cs)
);
}
);
width = 597;
},
{
layerId = "EE06C6DC-CF8C-4948-A893-3A90CCE35999";
shapes = (
{
closed = 1;
nodes = (
(407,563,l),
(567,750,l),
(460,750,l),
(377,664,l),
(326,750,l),
(218,750,l),
(311,563,l)
);
},
{
closed = 1;
nodes = (
(563,220,l),
(569,251,l),
(596,411,o),
(509,511,o),
(344,511,cs),
(181,511,o),
(50,411,o),
(22,250,cs),
(-6,90,o),
(87,-10,o),
(256,-10,cs),
(403,-10,o),
(507,63,o),
(547,171,c),
(377,171,l),
(363,139,o),
(327,120,o),
(278,120,cs),
(214,120,o),
(197,155,o),
(205,220,c)
);
},
{
closed = 1;
nodes = (
(369,375,o),
(391,356,o),
(399,323,c),
(231,323,l),
(248,356,o),
(275,375,o),
(323,375,cs)
);
}
);
width = 610;
}
);
unicode = 283;
},
{
glyphname = ecircumflex;
leftMetricsKey = e;
widthMetricsKey = e;
layers = (
{
layerId = "067991BB-F7E6-4D77-8E89-F1D1828DD7C4";
shapes = (
{
closed = 1;
nodes = (
(390,738,l),
(437,579,l),
(467,579,l),
(405,760,l),
(381,760,l),
(257,579,l),
(286,579,l)
);
},
{
closed = 1;
nodes = (
(554,255,l),
(555,263,l),
(571,404,o),
(483,510,o),
(350,510,cs),
(214,510,o),
(80,393,o),
(55,250,cs),
(30,108,o),
(123,-10,o),
(259,-10,cs),
(369,-10,o),
(478,66,o),
(529,171,c),
(509,171,l),
(461,78,o),
(363,10,o),
(262,10,cs),
(130,10,o),
(51,119,o),
(75,255,c)
);
},
{
closed = 1;
nodes = (
(466,490,o),
(546,396,o),
(538,275,c),
(79,275,l),
(115,398,o),
(227,490,o),
(347,490,cs)
);
}
);
width = 621;
},
{
layerId = "8D1CD495-8E12-4F42-9971-C31B25734418";
shapes = (
{
closed = 1;
nodes = (
(376,704,l),
(428,570,l),
(486,570,l),
(424,755,l),
(347,755,l),
(221,570,l),
(279,570,l)
);
},
{
closed = 1;
nodes = (
(538,239,l),
(542,255,l),
(565,399,o),
(474,510,o),
(337,510,cs),
(200,510,o),
(67,394,o),
(42,250,cs),
(17,106,o),
(109,-10,o),
(246,-10,cs),
(360,-10,o),
(469,69,o),
(519,176,c),
(440,176,l),
(402,111,o),
(332,68,o),
(260,68,cs),
(166,68,o),
(103,143,o),
(115,239,c)
);
},
{
closed = 1;
nodes = (
(401,433,o),
(457,381,o),
(467,309,c),
(137,309,l),
(174,381,o),
(247,433,o),
(324,433,cs)
);
}
);
width = 597;
},
{
layerId = "EE06C6DC-CF8C-4948-A893-3A90CCE35999";
shapes = (
{
closed = 1;
nodes = (
(375,650,l),
(427,563,l),
(534,563,l),
(440,750,l),
(344,750,l),
(185,563,l),
(293,563,l)
);
},
{
closed = 1;
nodes = (
(563,220,l),
(569,251,l),
(596,411,o),
(509,511,o),
(344,511,cs),
(181,511,o),
(50,411,o),
(22,250,cs),
(-6,90,o),
(87,-10,o),
(256,-10,cs),
(403,-10,o),
(507,63,o),
(547,171,c),
(377,171,l),
(363,139,o),
(327,120,o),
(278,120,cs),
(214,120,o),
(197,155,o),
(205,220,c)
);
},
{
closed = 1;
nodes = (
(369,375,o),
(391,356,o),
(399,323,c),
(231,323,l),
(248,356,o),
(275,375,o),
(323,375,cs)
);
}
);
width = 610;
}
);
unicode = 234;
},
{
glyphname = edieresis;
leftMetricsKey = e;
widthMetricsKey = e;
layers = (
{
layerId = "067991BB-F7E6-4D77-8E89-F1D1828DD7C4";
shapes = (
{
closed = 1;
nodes = (
(311,610,o),
(327,623,o),
(330,640,cs),
(333,656,o),
(321,670,o),
(306,670,cs),
(291,670,o),
(275,656,o),
(272,640,cs),
(269,623,o),
(281,610,o),
(296,610,cs)
);
},
{
closed = 1;
nodes = (
(455,610,o),
(471,623,o),
(474,640,cs),
(477,656,o),
(465,670,o),
(450,670,cs),
(435,670,o),
(419,656,o),
(416,640,cs),
(413,623,o),
(425,610,o),
(440,610,cs)
);
},
{
closed = 1;
nodes = (
(554,255,l),
(555,263,l),
(571,404,o),
(483,510,o),
(350,510,cs),
(214,510,o),
(80,393,o),
(55,250,cs),
(30,108,o),
(123,-10,o),
(259,-10,cs),
(369,-10,o),
(478,66,o),
(529,171,c),
(509,171,l),
(461,78,o),
(363,10,o),
(262,10,cs),
(130,10,o),
(51,119,o),
(75,255,c)
);
},
{
closed = 1;
nodes = (
(466,490,o),
(546,396,o),
(538,275,c),
(79,275,l),
(115,398,o),
(227,490,o),
(347,490,cs)
);
}
);
width = 621;
},
{
layerId = "8D1CD495-8E12-4F42-9971-C31B25734418";
shapes = (
{
closed = 1;
nodes = (
(300,599,o),
(328,623,o),
(333,651,cs),
(339,683,o),
(318,705,o),
(290,705,cs),
(261,705,o),
(234,683,o),
(228,651,cs),
(223,623,o),
(243,599,o),
(272,599,cs)
);
},
{
closed = 1;
nodes = (
(475,599,o),
(501,623,o),
(506,651,cs),
(512,683,o),
(494,705,o),
(465,705,cs),
(437,705,o),
(410,683,o),
(404,651,cs),
(399,623,o),
(418,599,o),
(446,599,cs)
);
},
{
closed = 1;
nodes = (
(538,239,l),
(542,255,l),
(565,399,o),
(474,510,o),
(337,510,cs),
(200,510,o),
(67,394,o),
(42,250,cs),
(17,106,o),
(109,-10,o),
(246,-10,cs),
(360,-10,o),
(469,69,o),
(519,176,c),
(440,176,l),
(402,111,o),
(332,68,o),
(260,68,cs),
(166,68,o),
(103,143,o),
(115,239,c)
);
},
{
closed = 1;
nodes = (
(401,433,o),
(457,381,o),
(467,309,c),
(137,309,l),
(174,381,o),
(247,433,o),
(324,433,cs)
);
}
);
width = 597;
},
{
layerId = "EE06C6DC-CF8C-4948-A893-3A90CCE35999";
shapes = (
{
closed = 1;
nodes = (
(301,586,o),
(343,624,o),
(351,668,cs),
(359,713,o),
(330,749,o),
(288,749,cs),
(245,749,o),
(202,713,o),
(194,668,cs),
(186,624,o),
(216,586,o),
(259,586,cs)
);
},
{
closed = 1;
nodes = (
(510,586,o),
(553,624,o),
(561,668,cs),
(569,713,o),
(539,749,o),
(496,749,cs),
(455,749,o),
(412,713,o),
(404,668,cs),
(396,624,o),
(426,586,o),
(467,586,cs)
);
},
{
closed = 1;
nodes = (
(563,220,l),
(569,251,l),
(596,411,o),
(509,511,o),
(344,511,cs),
(181,511,o),
(50,411,o),
(22,250,cs),
(-6,90,o),
(87,-10,o),
(256,-10,cs),
(403,-10,o),
(507,63,o),
(547,171,c),
(377,171,l),
(363,139,o),
(327,120,o),
(278,120,cs),
(214,120,o),
(197,155,o),
(205,220,c)
);
},
{
closed = 1;
nodes = (
(369,375,o),
(391,356,o),
(399,323,c),
(231,323,l),
(248,356,o),
(275,375,o),
(323,375,cs)
);
}
);
width = 610;
}
);
unicode = 235;
},
{
glyphname = eight;
layers = (
{
layerId = "067991BB-F7E6-4D77-8E89-F1D1828DD7C4";
shapes = (
{
closed = 1;
nodes = (
(407,407,o),
(460,466,o),
(472,536,cs),
(488,627,o),
(430,699,o),
(341,699,cs),
(252,699,o),
(169,627,o),
(153,536,cs),
(141,466,o),
(171,407,o),
(228,384,c),
(143,359,o),
(70,282,o),
(54,191,cs),
(35,81,o),
(108,-9,o),
(216,-9,cs),
(325,-9,o),
(430,81,o),
(449,191,cs),
(465,282,o),
(419,359,o),
(343,384,c)
);
},
{
closed = 1;
nodes = (
(415,679,o),
(466,615,o),
(452,535,cs),
(438,457,o),
(364,392,o),
(287,392,cs),
(209,392,o),
(157,457,o),
(171,535,cs),
(185,615,o),
(260,679,o),
(338,679,cs)
);
},
{
closed = 1;
nodes = (
(123,11,o),
(56,92,o),
(73,191,cs),
(91,292,o),
(187,373,o),
(284,373,cs),
(381,373,o),
(447,292,o),
(429,191,cs),
(412,92,o),
(317,11,o),
(220,11,cs)
);
}
);
width = 540;
},
{
layerId = "8D1CD495-8E12-4F42-9971-C31B25734418";
shapes = (
{
closed = 1;
nodes = (
(439,413,o),
(477,466,o),
(488,527,cs),
(505,624,o),
(443,699,o),
(341,699,cs),
(240,699,o),
(150,624,o),
(133,527,cs),
(122,466,o),
(143,414,o),
(186,384,c),
(110,351,o),
(51,282,o),
(37,200,cs),
(16,83,o),
(94,-9,o),
(216,-9,cs),
(339,-9,o),
(449,83,o),
(470,200,cs),
(484,282,o),
(451,351,o),
(386,384,c)
);
},
{
closed = 1;
nodes = (
(388,626,o),
(428,578,o),
(417,515,cs),
(406,454,o),
(350,407,o),
(290,407,cs),
(229,407,o),
(190,454,o),
(201,515,cs),
(212,578,o),
(267,626,o),
(328,626,cs)
);
},
{
closed = 1;
nodes = (
(151,60,o),
(100,126,o),
(114,205,cs),
(128,285,o),
(201,348,o),
(278,348,cs),
(356,348,o),
(407,285,o),
(393,205,cs),
(379,126,o),
(306,60,o),
(228,60,cs)
);
}
);
width = 540;
},
{
layerId = "EE06C6DC-CF8C-4948-A893-3A90CCE35999";
shapes = (
{
closed = 1;
nodes = (
(482,416,o),
(507,459,o),
(516,509,cs),
(535,617,o),
(463,699,o),
(340,699,cs),
(218,699,o),
(115,617,o),
(96,509,cs),
(87,459,o),
(98,416,o),
(123,384,c),
(61,347,o),
(17,286,o),
(4,215,cs),
(-19,86,o),
(70,-9,o),
(215,-9,cs),
(362,-9,o),
(484,86,o),
(507,215,cs),
(520,286,o),
(495,347,o),
(445,385,c)
);
},
{
closed = 1;
nodes = (
(352,561,o),
(376,533,o),
(369,496,cs),
(362,458,o),
(329,430,o),
(293,430,cs),
(257,430,o),
(234,458,o),
(241,496,cs),
(248,533,o),
(280,561,o),
(316,561,cs)
);
},
{
closed = 1;
nodes = (
(200,148,o),
(175,183,o),
(183,230,cs),
(191,274,o),
(228,302,o),
(270,302,cs),
(314,302,o),
(340,274,o),
(332,230,cs),
(324,183,o),
(286,148,o),
(242,148,cs)
);
}
);
width = 540;
}
);
leftKerningGroup = public.kern2.three;
unicode = 56;
},
{
glyphname = eight.tf;
layers = (
{
layerId = "067991BB-F7E6-4D77-8E89-F1D1828DD7C4";
shapes = (
{
closed = 1;
nodes = (
(436,407,o),
(489,466,o),
(501,536,cs),
(517,627,o),
(459,699,o),
(370,699,cs),
(281,699,o),
(198,627,o),
(182,536,cs),
(170,466,o),
(200,407,o),
(257,384,c),
(172,359,o),
(99,282,o),
(83,191,cs),
(64,81,o),
(138,-9,o),
(246,-9,cs),
(355,-9,o),
(459,81,o),
(478,191,cs),
(494,282,o),
(448,359,o),
(372,384,c)
);
},
{
closed = 1;
nodes = (
(444,679,o),
(496,615,o),
(482,535,cs),
(468,457,o),
(393,392,o),
(316,392,cs),
(238,392,o),
(186,457,o),
(200,535,cs),
(214,615,o),
(289,679,o),
(367,679,cs)
);
},
{
closed = 1;
nodes = (
(152,11,o),
(85,92,o),
(102,191,cs),
(120,292,o),
(216,373,o),
(313,373,cs),
(410,373,o),
(476,292,o),
(458,191,cs),
(441,92,o),
(346,11,o),
(249,11,cs)
);
}
);
width = 600;
},
{
layerId = "8D1CD495-8E12-4F42-9971-C31B25734418";
shapes = (
{
closed = 1;
nodes = (
(469,413,o),
(508,466,o),
(519,527,cs),
(536,624,o),
(474,699,o),
(372,699,cs),
(271,699,o),
(180,624,o),
(163,527,cs),
(152,466,o),
(173,414,o),
(216,384,c),
(140,351,o),
(81,282,o),
(67,200,cs),
(46,83,o),
(124,-9,o),
(246,-9,cs),
(369,-9,o),
(479,83,o),
(500,200,cs),
(514,282,o),
(481,351,o),
(416,384,c)
);
},
{
closed = 1;
nodes = (
(419,626,o),
(458,578,o),
(447,515,cs),
(436,454,o),
(380,407,o),
(320,407,cs),
(259,407,o),
(220,454,o),
(231,515,cs),
(242,578,o),
(298,626,o),
(359,626,cs)
);
},
{
closed = 1;
nodes = (
(181,60,o),
(130,126,o),
(144,205,cs),
(158,285,o),
(232,348,o),
(309,348,cs),
(387,348,o),
(438,285,o),
(424,205,cs),
(410,126,o),
(336,60,o),
(258,60,cs)
);
}
);
width = 600;
},
{
layerId = "EE06C6DC-CF8C-4948-A893-3A90CCE35999";
shapes = (
{
closed = 1;
nodes = (
(512,416,o),
(536,459,o),
(545,509,cs),
(564,617,o),
(492,699,o),
(369,699,cs),
(247,699,o),
(145,617,o),
(126,509,cs),
(117,459,o),
(128,416,o),
(153,384,c),
(91,347,o),
(47,286,o),
(34,215,cs),
(11,86,o),
(99,-9,o),
(244,-9,cs),
(391,-9,o),
(514,86,o),
(537,215,cs),
(550,286,o),
(525,347,o),
(475,385,c)
);
},
{
closed = 1;
nodes = (
(382,561,o),
(405,533,o),
(398,496,cs),
(391,458,o),
(359,430,o),
(323,430,cs),
(287,430,o),
(264,458,o),
(271,496,cs),
(278,533,o),
(310,561,o),
(346,561,cs)
);
},
{
closed = 1;
nodes = (
(230,148,o),
(205,183,o),
(213,230,cs),
(221,274,o),
(257,302,o),
(299,302,cs),
(343,302,o),
(370,274,o),
(362,230,cs),
(354,183,o),
(316,148,o),
(272,148,cs)
);
}
);
width = 600;
}
);
},
{
glyphname = ellipsis;
layers = (
{
layerId = "067991BB-F7E6-4D77-8E89-F1D1828DD7C4";
shapes = (
{
closed = 1;
nodes = (
(97,-10,o),
(114,3,o),
(117,20,cs),
(120,36,o),
(108,50,o),
(93,50,cs),
(76,50,o),
(61,36,o),
(58,20,cs),
(55,3,o),
(65,-10,o),
(82,-10,cs)
);
},
{
closed = 1;
nodes = (
(342,-10,o),
(359,3,o),
(362,20,cs),
(365,36,o),
(353,50,o),
(338,50,cs),
(321,50,o),
(306,36,o),
(303,20,cs),
(300,3,o),
(310,-10,o),
(327,-10,cs)
);
},
{
closed = 1;
nodes = (
(583,-10,o),
(600,3,o),
(603,20,cs),
(606,36,o),
(594,50,o),
(579,50,cs),
(563,50,o),
(547,36,o),
(544,20,cs),
(541,3,o),
(552,-10,o),
(568,-10,cs)
);
}
);
width = 757;
},
{
layerId = "8D1CD495-8E12-4F42-9971-C31B25734418";
shapes = (
{
closed = 1;
nodes = (
(125.875,-10,o),
(156.375,15,o),
(161.625,45.5,cs),
(166.875,75.375,o),
(145.875,100.625,o),
(116.625,100.625,cs),
(86.875,100.625,o),
(58,75.375,o),
(52.75,45.5,cs),
(47.5,15,o),
(66.875,-10,o),
(96.625,-10,cs)
);
},
{
closed = 1;
nodes = (
(410.625,-10,o),
(440.75,15,o),
(446,45.5,cs),
(451.25,75.375,o),
(430.625,100.625,o),
(401.375,100.625,cs),
(371.25,100.625,o),
(342,75.375,o),
(336.75,45.5,cs),
(331.5,15,o),
(351.25,-10,o),
(381.375,-10,cs)
);
},
{
closed = 1;
nodes = (
(691.75,-10,o),
(721.875,15,o),
(727.125,45.5,cs),
(732.375,75.375,o),
(711.375,100.625,o),
(682.125,100.625,cs),
(652.625,100.625,o),
(623.125,75.375,o),
(617.875,45.5,cs),
(612.625,15,o),
(633,-10,o),
(662.5,-10,cs)
);
}
);
width = 868;
},
{
layerId = "EE06C6DC-CF8C-4948-A893-3A90CCE35999";
shapes = (
{
closed = 1;
nodes = (
(174,-10,o),
(227,35,o),
(236,88,cs),
(245,141,o),
(209,185,o),
(156,185,cs),
(105,185,o),
(53,141,o),
(44,88,cs),
(35,35,o),
(70,-10,o),
(121,-10,cs)
);
},
{
closed = 1;
nodes = (
(525,-10,o),
(577,35,o),
(586,88,cs),
(595,141,o),
(560,185,o),
(507,185,cs),
(455,185,o),
(402,141,o),
(393,88,cs),
(384,35,o),
(420,-10,o),
(472,-10,cs)
);
},
{
closed = 1;
nodes = (
(873,-10,o),
(925,35,o),
(934,88,cs),
(943,141,o),
(907,185,o),
(854,185,cs),
(802,185,o),
(750,141,o),
(741,88,cs),
(732,35,o),
(768,-10,o),
(820,-10,cs)
);
}
);
width = 1054;
}
);
unicode = 8230;
},
{
glyphname = emdash;
layers = (
{
layerId = "067991BB-F7E6-4D77-8E89-F1D1828DD7C4";
shapes = (
{
closed = 1;
nodes = (
(-9,250,l),
(971,250,l),
(975,270,l),
(-5,270,l)
);
}
);
width = 980;
},
{
layerId = "8D1CD495-8E12-4F42-9971-C31B25734418";
shapes = (
{
closed = 1;
nodes = (
(-14,223,l),
(966,223,l),
(980,298,l),
(0,298,l)
);
}
);
width = 980;
},
{
layerId = "EE06C6DC-CF8C-4948-A893-3A90CCE35999";
shapes = (
{
closed = 1;
nodes = (
(-18,200,l),
(962,200,l),
(983,320,l),
(3,320,l)
);
}
);
width = 980;
}
);
unicode = 8212;
},
{
glyphname = emptyset;
layers = (
{
layerId = "067991BB-F7E6-4D77-8E89-F1D1828DD7C4";
shapes = (
{
closed = 1;
nodes = (
(645,538,l),
(630,553,l),
(587,510,l),
(533,560,o),
(462,590,o),
(383,590,cs),
(218,590,o),
(85,456,o),
(85,291,cs),
(85,213,o),
(116,140,o),
(166,88,c),
(122,44,l),
(136,30,l),
(180,74,l),
(232,24,o),
(305,-8,o),
(383,-8,cs),
(548,-8,o),
(682,126,o),
(682,291,cs),
(682,370,o),
(652,441,o),
(602,495,c)
);
},
{
closed = 1;
nodes = (
(105,446,o),
(228,570,o),
(383,570,cs),
(457,570,o),
(523,543,o),
(573,496,c),
(180,101,l),
(133,150,o),
(105,218,o),
(105,291,cs)
);
},
{
closed = 1;
nodes = (
(310,13,o),
(242,41,o),
(193,88,c),
(588,481,l),
(635,431,o),
(662,365,o),
(662,291,cs),
(662,136,o),
(538,13,o),
(383,13,cs)
);
}
);
width = 873;
},
{
layerId = "8D1CD495-8E12-4F42-9971-C31B25734418";
shapes = (
{
closed = 1;
nodes = (
(631,533,l),
(606,558,l),
(563,515,l),
(510,561,o),
(441,590,o),
(365,590,cs),
(200,590,o),
(66,456,o),
(66,291,cs),
(66,215,o),
(95,146,o),
(141,93,c),
(98,50,l),
(123,25,l),
(166,68,l),
(220,21,o),
(288,-8,o),
(365,-8,cs),
(530,-8,o),
(663,126,o),
(663,291,cs),
(663,368,o),
(635,436,o),
(588,490,c)
);
},
{
closed = 1;
nodes = (
(130,423,o),
(233,526,o),
(365,526,cs),
(423,526,o),
(477,505,o),
(518,470,c),
(186,138,l),
(151,179,o),
(130,233,o),
(130,291,cs)
);
},
{
closed = 1;
nodes = (
(306,55,o),
(252,76,o),
(211,113,c),
(543,445,l),
(580,404,o),
(601,350,o),
(601,291,cs),
(601,160,o),
(496,55,o),
(365,55,cs)
);
}
);
width = 835;
},
{
layerId = "EE06C6DC-CF8C-4948-A893-3A90CCE35999";
shapes = (
{
closed = 1;
nodes = (
(701,521,l),
(663,569,l),
(613,525,l),
(569,565,o),
(510,590,o),
(441,590,cs),
(279,590,o),
(124,456,o),
(95,291,cs),
(82,220,o),
(96,155,o),
(128,105,c),
(76,60,l),
(114,14,l),
(164,58,l),
(207,16,o),
(266,-8,o),
(335,-8,cs),
(497,-8,o),
(653,126,o),
(682,291,cs),
(694,361,o),
(681,426,o),
(650,478,c)
);
},
{
closed = 1;
nodes = (
(252,376,o),
(332,445,o),
(415,445,cs),
(445,445,o),
(472,436,o),
(493,421,c),
(246,208,l),
(235,231,o),
(232,260,o),
(237,291,cs)
);
},
{
closed = 1;
nodes = (
(332,138,o),
(305,146,o),
(285,161,c),
(530,374,l),
(541,350,o),
(546,323,o),
(540,291,cs),
(525,205,o),
(445,138,o),
(361,138,cs)
);
}
);
width = 779;
}
);
leftKerningGroup = public.kern2.C2;
rightKerningGroup = public.kern1.C;
unicode = 8709;
},
{
glyphname = endash;
layers = (
{
layerId = "067991BB-F7E6-4D77-8E89-F1D1828DD7C4";
shapes = (
{
closed = 1;
nodes = (
(98,250,l),
(588,250,l),
(592,270,l),
(102,270,l)
);
}
);
width = 702;
},
{
layerId = "8D1CD495-8E12-4F42-9971-C31B25734418";
shapes = (
{
closed = 1;
nodes = (
(32,223,l),
(522,223,l),
(535,298,l),
(45,298,l)
);
}
);
width = 581;
},
{
layerId = "EE06C6DC-CF8C-4948-A893-3A90CCE35999";
shapes = (
{
closed = 1;
nodes = (
(63,200,l),
(553,200,l),
(574,320,l),
(84,320,l)
);
}
);
width = 652;
}
);
unicode = 8211;
},
{
glyphname = eng;
layers = (
{
layerId = "067991BB-F7E6-4D77-8E89-F1D1828DD7C4";
shapes = (
{
closed = 1;
nodes = (
(246,510,o),
(178,469,o),
(138,408,c),
(154,500,l),
(135,500,l),
(47,0,l),
(66,0,l),
(124,326,ls),
(140,418,o),
(224,491,o),
(311,491,cs),
(398,491,o),
(456,418,o),
(440,326,cs),
(357,-143,ls),
(348,-193,o),
(313,-225,o),
(272,-218,c),
(268,-238,l),
(320,-243,o),
(365,-203,o),
(376,-143,cs),
(459,326,ls),
(477,428,o),
(414,510,o),
(315,510,cs)
);
}
);
width = 545;
},
{
layerId = "8D1CD495-8E12-4F42-9971-C31B25734418";
shapes = (
{
closed = 1;
nodes = (
(267,510,o),
(222,491,o),
(186,460,c),
(193,500,l),
(118,500,l),
(30,0,l),
(105,0,l),
(161,319,ls),
(172,383,o),
(230,433,o),
(291,433,cs),
(352,433,o),
(392,383,o),
(381,319,cs),
(299,-143,ls),
(288,-206,o),
(258,-218,o),
(225,-216,c),
(216,-269,l),
(308,-270,o),
(358,-234,o),
(376,-130,cs),
(455,319,ls),
(474,425,o),
(403,510,o),
(311,510,cs)
);
}
);
width = 528;
},
{
layerId = "EE06C6DC-CF8C-4948-A893-3A90CCE35999";
shapes = (
{
closed = 1;
nodes = (
(363,510,o),
(306,479,o),
(263,429,c),
(276,500,l),
(98,500,l),
(10,0,l),
(187,0,l),
(237,281,ls),
(244,321,o),
(280,349,o),
(321,349,cs),
(359,349,o),
(382,321,o),
(375,281,cs),
(313,-74,ls),
(297,-166,o),
(263,-170,o),
(221,-171,c),
(201,-280,l),
(345,-279,o),
(463,-231,o),
(491,-71,cs),
(559,316,ls),
(579,428,o),
(518,510,o),
(422,510,cs)
);
}
);
width = 607;
}
);
leftKerningGroup = public.kern2.m;
rightKerningGroup = public.kern1.h;
unicode = 331;
},
{
glyphname = eogonek;
leftMetricsKey = e;
widthMetricsKey = e;
layers = (
{
layerId = "067991BB-F7E6-4D77-8E89-F1D1828DD7C4";
shapes = (
{
closed = 1;
nodes = (
(494,-125,l),
(464,-150,o),
(438,-163,o),
(400,-163,cs),
(352,-163,o),
(333,-130,o),
(341,-84,cs),
(351,-28,o),
(393,16,o),
(432,54,c),
(472,84,o),
(506,125,o),
(529,171,c),
(509,171,l),
(461,78,o),
(363,10,o),
(262,10,cs),
(130,10,o),
(51,119,o),
(75,255,c),
(554,255,l),
(555,263,l),
(571,404,o),
(483,510,o),
(350,510,cs),
(214,510,o),
(80,393,o),
(55,250,cs),
(30,108,o),
(123,-10,o),
(259,-10,cs),
(305,-10,o),
(351,4,o),
(393,28,c),
(391,31,l),
(358,-1,o),
(333,-39,o),
(325,-84,cs),
(314,-144,o),
(337,-183,o),
(396,-183,cs),
(438,-183,o),
(466,-169,o),
(500,-140,c)
);
},
{
closed = 1;
nodes = (
(466,490,o),
(546,396,o),
(538,275,c),
(79,275,l),
(115,398,o),
(227,490,o),
(347,490,cs)
);
}
);
width = 621;
},
{
layerId = "8D1CD495-8E12-4F42-9971-C31B25734418";
shapes = (
{
closed = 1;
nodes = (
(375,-145,l),
(349,-175,o),
(312,-191,o),
(276,-191,cs),
(235,-191,o),
(217,-163,o),
(224,-124,cs),
(234,-65,o),
(283,-26,o),
(342,9,c),
(417,38,o),
(484,100,o),
(519,176,c),
(440,176,l),
(402,111,o),
(332,68,o),
(260,68,cs),
(166,68,o),
(103,143,o),
(115,239,c),
(538,239,l),
(542,255,l),
(565,399,o),
(474,510,o),
(337,510,cs),
(200,510,o),
(67,394,o),
(42,250,cs),
(17,106,o),
(109,-10,o),
(246,-10,cs),
(251,-10,o),
(274,-8,o),
(279,-6,c),
(272,0,l),
(220,-36,o),
(180,-76,o),
(170,-130,cs),
(159,-194,o),
(194,-231,o),
(258,-234,cs),
(306,-236,o),
(352,-220,o),
(395,-184,c)
);
},
{
closed = 1;
nodes = (
(401,433,o),
(457,381,o),
(467,309,c),
(137,309,l),
(174,381,o),
(247,433,o),
(324,433,cs)
);
}
);
width = 597;
},
{
layerId = "EE06C6DC-CF8C-4948-A893-3A90CCE35999";
shapes = (
{
closed = 1;
nodes = (
(381,-94,l),
(359,-129,o),
(327,-151,o),
(297,-151,cs),
(267,-151,o),
(252,-131,o),
(259,-89,cs),
(267,-44,o),
(307,-21,o),
(370,6,c),
(457,34,o),
(518,94,o),
(547,171,c),
(377,171,l),
(363,139,o),
(327,120,o),
(278,120,cs),
(214,120,o),
(197,155,o),
(205,220,c),
(563,220,l),
(569,251,l),
(596,411,o),
(509,511,o),
(344,511,cs),
(181,511,o),
(50,411,o),
(22,250,cs),
(-4,103,o),
(75,4,o),
(222,-9,c),
(227,-9,o),
(232,-8,o),
(237,-5,c),
(227,1,l),
(186,-23,o),
(157,-59,o),
(149,-105,cs),
(137,-173,o),
(170,-231,o),
(253,-238,cs),
(307,-243,o),
(373,-218,o),
(422,-174,c)
);
},
{
closed = 1;
nodes = (
(369,375,o),
(391,356,o),
(399,323,c),
(231,323,l),
(248,356,o),
(275,375,o),
(323,375,cs)
);
}
);
width = 610;
}
);
unicode = 281;
},
{
glyphname = equal;
layers = (
{
layerId = "067991BB-F7E6-4D77-8E89-F1D1828DD7C4";
shapes = (
{
closed = 1;
nodes = (
(88,345,l),
(688,345,l),
(688,365,l),
(88,365,l)
);
},
{
closed = 1;
nodes = (
(88,165,l),
(688,165,l),
(688,185,l),
(88,185,l)
);
}
);
width = 774;
},
{
layerId = "8D1CD495-8E12-4F42-9971-C31B25734418";
shapes = (
{
closed = 1;
nodes = (
(69,333,l),
(669,333,l),
(669,386,l),
(69,386,l)
);
},
{
closed = 1;
nodes = (
(69,144,l),
(669,144,l),
(669,198,l),
(69,198,l)
);
}
);
width = 738;
},
{
layerId = "EE06C6DC-CF8C-4948-A893-3A90CCE35999";
shapes = (
{
closed = 1;
nodes = (
(56,310,l),
(656,310,l),
(656,424,l),
(56,424,l)
);
},
{
closed = 1;
nodes = (
(56,106,l),
(656,106,l),
(656,220,l),
(56,220,l)
);
}
);
width = 713;
}
);
unicode = 61;
},
{
glyphname = estimated;
layers = (
{
layerId = "067991BB-F7E6-4D77-8E89-F1D1828DD7C4";
shapes = (
{
closed = 1;
nodes = (
(631,-9,o),
(755,50,o),
(831,140,c),
(770,140,l),
(703,63,o),
(605,13,o),
(494,13,cs),
(393,13,o),
(299,58,o),
(233,126,c),
(228,133,o),
(223,141,o),
(223,150,cs),
(223,360,ls),
(223,363,o),
(225,364,o),
(229,364,cs),
(921,364,l),
(921,374,ls),
(921,588,o),
(730,760,o),
(493,760,cs),
(258,760,o),
(66,588,o),
(66,374,cs),
(66,163,o),
(258,-9,o),
(493,-9,cs)
);
},
{
closed = 1;
nodes = (
(229,385,ls),
(225,385,o),
(223,389,o),
(223,393,cs),
(223,598,ls),
(223,608,o),
(228,618,o),
(233,624,c),
(301,693,o),
(393,738,o),
(494,738,cs),
(596,738,o),
(688,693,o),
(754,628,cs),
(761,621,o),
(764,611,o),
(764,603,cs),
(764,393,ls),
(764,389,o),
(763,385,o),
(760,385,cs)
);
}
);
width = 988;
},
{
layerId = "8D1CD495-8E12-4F42-9971-C31B25734418";
shapes = (
{
closed = 1;
nodes = (
(613,-9,o),
(736,50,o),
(813,140,c),
(751,140,l),
(685,63,o),
(586,13,o),
(475,13,cs),
(374,13,o),
(280,58,o),
(214,126,c),
(209,133,o),
(205,141,o),
(205,150,cs),
(205,360,ls),
(205,363,o),
(206,364,o),
(210,364,cs),
(903,364,l),
(903,374,ls),
(903,588,o),
(711,760,o),
(475,760,cs),
(239,760,o),
(48,588,o),
(48,374,cs),
(48,163,o),
(239,-9,o),
(475,-9,cs)
);
},
{
closed = 1;
nodes = (
(210,385,ls),
(206,385,o),
(205,389,o),
(205,393,cs),
(205,598,ls),
(205,608,o),
(209,618,o),
(215,624,cs),
(283,693,o),
(375,738,o),
(475,738,cs),
(578,738,o),
(669,693,o),
(735,628,c),
(743,621,o),
(745,611,o),
(745,603,cs),
(745,393,ls),
(745,389,o),
(745,385,o),
(741,385,cs)
);
}
);
width = 951;
},
{
layerId = "EE06C6DC-CF8C-4948-A893-3A90CCE35999";
shapes = (
{
closed = 1;
nodes = (
(600,-9,o),
(725,50,o),
(800,140,c),
(740,140,l),
(673,63,o),
(575,13,o),
(464,13,cs),
(361,13,o),
(269,58,o),
(201,126,c),
(196,133,o),
(193,141,o),
(193,150,cs),
(193,360,ls),
(193,363,o),
(195,364,o),
(199,364,cs),
(890,364,l),
(890,374,ls),
(890,588,o),
(700,760,o),
(463,760,cs),
(226,760,o),
(35,588,o),
(35,374,cs),
(35,163,o),
(226,-9,o),
(463,-9,cs)
);
},
{
closed = 1;
nodes = (
(199,385,ls),
(195,385,o),
(193,389,o),
(193,393,cs),
(193,598,ls),
(193,608,o),
(196,618,o),
(203,624,c),
(270,693,o),
(363,738,o),
(464,738,cs),
(565,738,o),
(656,693,o),
(724,628,c),
(730,621,o),
(734,611,o),
(734,603,cs),
(734,393,ls),
(734,389,o),
(733,385,o),
(730,385,cs)
);
}
);
width = 928;
}
);
unicode = 8494;
},
{
glyphname = eth;
layers = (
{
layerId = "067991BB-F7E6-4D77-8E89-F1D1828DD7C4";
shapes = (
{
closed = 1;
nodes = (
(417,739,l),
(402,753,l),
(352,688,l),
(292,735,o),
(222,763,o),
(147,763,c),
(147,743,l),
(218,743,o),
(283,718,o),
(340,673,c),
(277,593,l),
(292,580,l),
(355,660,l),
(430,594,o),
(483,493,o),
(506,373,c),
(462,454,o),
(376,510,o),
(277,510,cs),
(135,510,o),
(17,393,o),
(17,250,cs),
(17,108,o),
(135,-10,o),
(277,-10,cs),
(420,-10,o),
(537,108,o),
(537,250,cs),
(537,429,o),
(470,584,o),
(367,675,c)
);
},
{
closed = 1;
nodes = (
(145,10,o),
(37,118,o),
(37,250,cs),
(37,383,o),
(145,490,o),
(277,490,cs),
(410,490,o),
(517,383,o),
(517,250,cs),
(517,118,o),
(410,10,o),
(277,10,cs)
);
}
);
width = 658;
},
{
layerId = "8D1CD495-8E12-4F42-9971-C31B25734418";
shapes = (
{
closed = 1;
nodes = (
(511,740,l),
(479,770,l),
(425,713,l),
(381,745,o),
(327,763,o),
(266,763,c),
(240,699,l),
(289,698,o),
(336,685,o),
(375,659,c),
(313,593,l),
(345,560,l),
(410,630,l),
(449,591,o),
(478,535,o),
(490,460,c),
(452,491,o),
(403,510,o),
(346,510,cs),
(203,510,o),
(67,394,o),
(42,250,cs),
(17,106,o),
(111,-10,o),
(254,-10,cs),
(396,-10,o),
(533,106,o),
(558,250,cs),
(590,434,o),
(549,593,o),
(458,683,c)
);
},
{
closed = 1;
nodes = (
(170,66,o),
(106,149,o),
(124,250,cs),
(142,351,o),
(235,434,o),
(333,434,cs),
(430,434,o),
(494,351,o),
(476,250,cs),
(458,149,o),
(365,66,o),
(268,66,cs)
);
}
);
width = 610;
},
{
layerId = "EE06C6DC-CF8C-4948-A893-3A90CCE35999";
shapes = (
{
closed = 1;
nodes = (
(500,776,l),
(433,838,l),
(372,771,l),
(326,793,o),
(274,803,o),
(217,803,c),
(155,658,l),
(186,660,o),
(220,656,o),
(254,646,c),
(215,604,l),
(284,543,l),
(334,596,l),
(355,575,o),
(373,545,o),
(385,506,c),
(371,509,o),
(356,510,o),
(341,510,cs),
(188,510,o),
(48,396,o),
(22,250,cs),
(-4,104,o),
(96,-10,o),
(249,-10,cs),
(403,-10,o),
(540,104,o),
(566,250,cs),
(604,466,o),
(556,631,o),
(450,723,c)
);
},
{
closed = 1;
nodes = (
(224,151,o),
(190,194,o),
(200,250,cs),
(210,306,o),
(259,349,o),
(312,349,cs),
(365,349,o),
(399,306,o),
(389,250,cs),
(379,194,o),
(330,151,o),
(277,151,cs)
);
}
);
width = 599;
}
);
leftKerningGroup = public.kern2.a2;
unicode = 240;
},
{
glyphname = exclam;
layers = (
{
layerId = "067991BB-F7E6-4D77-8E89-F1D1828DD7C4";
shapes = (
{
closed = 1;
nodes = (
(106,180,l),
(125,180,l),
(215.409,690,l),
(195.636,690,l)
);
},
{
closed = 1;
nodes = (
(97,-10,o),
(114,4,o),
(117,20,cs),
(120,38,o),
(108,50,o),
(93,50,cs),
(76,50,o),
(61,38,o),
(58,20,cs),
(55,4,o),
(65,-10,o),
(82,-10,cs)
);
}
);
width = 271;
},
{
layerId = "8D1CD495-8E12-4F42-9971-C31B25734418";
shapes = (
{
closed = 1;
nodes = (
(96,214,l),
(157,214,l),
(246.725,690,l),
(175.08,690,l)
);
},
{
closed = 1;
nodes = (
(115,-10,o),
(145,15,o),
(150,44,cs),
(155,74,o),
(134,98,o),
(107,98,cs),
(79,98,o),
(50,74,o),
(45,44,cs),
(40,15,o),
(60,-10,o),
(88,-10,cs)
);
}
);
width = 285;
},
{
layerId = "EE06C6DC-CF8C-4948-A893-3A90CCE35999";
shapes = (
{
closed = 1;
nodes = (
(103,274,l),
(238,274,l),
(332.505,690,l),
(155.994,690,l)
);
},
{
closed = 1;
nodes = (
(175,-10,o),
(225,34,o),
(235,88,cs),
(245,144,o),
(209,188,o),
(155,188,cs),
(101,188,o),
(51,144,o),
(41,88,cs),
(31,34,o),
(67,-10,o),
(121,-10,cs)
);
}
);
width = 350;
}
);
unicode = 33;
},
{
glyphname = exclamdown;
layers = (
{
layerId = "067991BB-F7E6-4D77-8E89-F1D1828DD7C4";
shapes = (
{
closed = 1;
nodes = (
(165,320,l),
(146,320,l),
(55.591,-190,l),
(75.364,-190,l)
);
},
{
closed = 1;
nodes = (
(174,510,o),
(157,496,o),
(154,480,cs),
(151,462,o),
(163,450,o),
(178,450,cs),
(195,450,o),
(210,462,o),
(213,480,cs),
(216,496,o),
(206,510,o),
(189,510,cs)
);
}
);
width = 271;
},
{
layerId = "8D1CD495-8E12-4F42-9971-C31B25734418";
shapes = (
{
closed = 1;
nodes = (
(189,286,l),
(128,286,l),
(38.275,-190,l),
(109.92,-190,l)
);
},
{
closed = 1;
nodes = (
(170,510,o),
(140,485,o),
(135,456,cs),
(130,426,o),
(151,402,o),
(178,402,cs),
(206,402,o),
(235,426,o),
(240,456,cs),
(245,485,o),
(225,510,o),
(197,510,cs)
);
}
);
width = 285;
},
{
layerId = "EE06C6DC-CF8C-4948-A893-3A90CCE35999";
shapes = (
{
closed = 1;
nodes = (
(247,226,l),
(112,226,l),
(17.495,-190,l),
(194.006,-190,l)
);
},
{
closed = 1;
nodes = (
(175,510,o),
(125,466,o),
(115,412,cs),
(105,356,o),
(141,312,o),
(195,312,cs),
(249,312,o),
(299,356,o),
(309,412,cs),
(319,466,o),
(283,510,o),
(229,510,cs)
);
}
);
width = 350;
}
);
unicode = 161;
},
{
glyphname = f;
layers = (
{
layerId = "D1832D54-307F-4077-BFA3-B4D1D022CEF5";
name = "#instance";
shapes = (
{
closed = 1;
nodes = (
(323.933,500,l),
(186.267,500,l),
(213.033,649.6,ls),
(222,699.467,o),
(265.833,738.167,o),
(313.5,738.167,c),
(364.633,729.433,l),
(366.9,744,l),
(355.867,753,o),
(332.833,760,o),
(316.567,760,cs),
(258,760,o),
(202.367,710.567,o),
(191.267,649.933,cs),
(165.433,500,l),
(84.433,500,l),
(81.1,478.167,l),
(161.1,478.167,l),
(77.4,0,l),
(98.267,0,l),
(182.933,478.167,l),
(320.6,478.167,l)
);
}
);
width = 330;
},
{
layerId = "067991BB-F7E6-4D77-8E89-F1D1828DD7C4";
shapes = (
{
closed = 1;
nodes = (
(323,500,l),
(185,500,l),
(212,651,ls),
(221,701,o),
(265,740,o),
(313,740,c),
(364,731,l),
(366,744,l),
(355,753,o),
(332,760,o),
(316,760,cs),
(258,760,o),
(203,711,o),
(192,651,cs),
(166,500,l),
(85,500,l),
(82,480,l),
(162,480,l),
(78,0,l),
(97,0,l),
(182,480,l),
(320,480,l)
);
}
);
width = 330;
},
{
layerId = "8D1CD495-8E12-4F42-9971-C31B25734418";
shapes = (
{
closed = 1;
nodes = (
(351,500,l),
(223,500,l),
(243,609,ls),
(251,655,o),
(290,685,o),
(328,685,c),
(383,684,l),
(393,744,l),
(381,753,o),
(357,760,o),
(333,760,cs),
(258,760,o),
(184,698,o),
(170,619,cs),
(149,500,l),
(68,500,l),
(55,425,l),
(135,425,l),
(60,0,l),
(135,0,l),
(210,425,l),
(338,425,l)
);
}
);
width = 328;
},
{
layerId = "EE06C6DC-CF8C-4948-A893-3A90CCE35999";
shapes = (
{
closed = 1;
nodes = (
(409,500,l),
(300,500,l),
(306,535,ls),
(313,575,o),
(335,600,o),
(365,600,c),
(425,600,l),
(450,744,l),
(439,753,o),
(408,760,o),
(372,760,cs),
(262,760,o),
(151,672,o),
(131,557,cs),
(121,500,l),
(41,500,l),
(16,363,l),
(97,363,l),
(33,0,l),
(212,0,l),
(276,363,l),
(385,363,l)
);
}
);
width = 372;
}
);
leftKerningGroup = public.kern2.f;
unicode = 102;
},
{
glyphname = fi;
layers = (
{
layerId = "067991BB-F7E6-4D77-8E89-F1D1828DD7C4";
shapes = (
{
closed = 1;
nodes = (
(496,500,l),
(185,500,l),
(212,651,ls),
(221,701,o),
(265,740,o),
(313,740,c),
(364,731,l),
(366,744,l),
(355,753,o),
(332,760,o),
(316,760,cs),
(258,760,o),
(203,711,o),
(192,651,cs),
(166,500,l),
(85,500,l),
(82,480,l),
(162,480,l),
(78,0,l),
(97,0,l),
(182,480,l),
(493,480,l)
);
},
{
closed = 1;
nodes = (
(510,660,o),
(494,646,o),
(491,630,cs),
(488,613,o),
(500,600,o),
(515,600,cs),
(530,600,o),
(546,613,o),
(549,630,cs),
(552,646,o),
(540,660,o),
(525,660,cs)
);
},
{
closed = 1;
nodes = (
(399,0,l),
(418,0,l),
(507,500,l),
(487,500,l)
);
}
);
width = 585;
},
{
layerId = "8D1CD495-8E12-4F42-9971-C31B25734418";
shapes = (
{
closed = 1;
nodes = (
(510,500,l),
(223,500,l),
(243,609,ls),
(251,655,o),
(290,685,o),
(328,685,c),
(383,684,l),
(393,744,l),
(381,753,o),
(357,760,o),
(333,760,cs),
(258,760,o),
(184,698,o),
(170,619,cs),
(149,500,l),
(68,500,l),
(55,425,l),
(135,425,l),
(60,0,l),
(135,0,l),
(210,425,l),
(497,425,l)
);
},
{
closed = 1;
nodes = (
(583,678,o),
(562,700,o),
(534,700,cs),
(505,700,o),
(478,678,o),
(472,646,cs),
(467,618,o),
(487,594,o),
(516,594,cs),
(544,594,o),
(572,618,o),
(577,646,cs)
);
},
{
closed = 1;
nodes = (
(373,0,l),
(448,0,l),
(536,500,l),
(462,500,l)
);
}
);
width = 592;
},
{
layerId = "EE06C6DC-CF8C-4948-A893-3A90CCE35999";
shapes = (
{
closed = 1;
nodes = (
(580,500,l),
(300,500,l),
(306,535,ls),
(313,575,o),
(335,600,o),
(365,600,cs),
(425,600,l),
(450,744,l),
(439,753,o),
(408,760,o),
(372,760,cs),
(262,760,o),
(151,672,o),
(131,557,cs),
(121,500,l),
(41,500,l),
(16,363,l),
(97,363,l),
(33,0,l),
(212,0,l),
(276,363,l),
(556,363,l)
);
},
{
closed = 1;
nodes = (
(628,581,o),
(679,626,o),
(689,680,cs),
(699,734,o),
(663,778,o),
(611,778,cs),
(559,778,o),
(509,734,o),
(499,680,cs),
(489,626,o),
(524,581,o),
(576,581,cs)
);
},
{
closed = 1;
nodes = (
(384,0,l),
(562,0,l),
(650,500,l),
(473,500,l)
);
}
);
width = 679;
}
);
unicode = 64257;
},
{
glyphname = five;
layers = (
{
layerId = "067991BB-F7E6-4D77-8E89-F1D1828DD7C4";
shapes = (
{
closed = 1;
nodes = (
(238,449,o),
(184,428,o),
(138,394,c),
(226,667,l),
(520,667,l),
(524,688,l),
(212,688,l),
(114,381,l),
(135,369,l),
(179,406,o),
(236,428,o),
(290,428,cs),
(403,428,o),
(479,336,o),
(458,219,cs),
(438,105,o),
(332,11,o),
(209,11,cs),
(143,11,o),
(77,37,o),
(37,109,c),
(33,109,l),
(28,85,l),
(60,22,o),
(132,-9,o),
(206,-9,cs),
(339,-9,o),
(455,94,o),
(477,219,cs),
(499,346,o),
(418,449,o),
(294,449,cs)
);
}
);
width = 565;
},
{
layerId = "8D1CD495-8E12-4F42-9971-C31B25734418";
shapes = (
{
closed = 1;
nodes = (
(265,458,o),
(217,442,o),
(177,415,c),
(234,610,l),
(517,610,l),
(530,688,l),
(182,688,l),
(88,366,l),
(146,325,l),
(184,359,o),
(234,380,o),
(284,380,cs),
(370,380,o),
(427,317,o),
(411,224,cs),
(396,137,o),
(324,68,o),
(217,68,cs),
(152,68,o),
(76,93,o),
(37,170,c),
(30,170,l),
(5,79,l),
(41,24,o),
(123,-9,o),
(207,-9,cs),
(354,-9,o),
(465,91,o),
(489,226,cs),
(512,359,o),
(438,458,o),
(313,458,cs)
);
}
);
width = 560;
},
{
layerId = "EE06C6DC-CF8C-4948-A893-3A90CCE35999";
shapes = (
{
closed = 1;
nodes = (
(302,471,o),
(263,452,o),
(227,422,c),
(252,533,l),
(529,533,l),
(557,688,l),
(144,688,l),
(59,357,l),
(182,271,l),
(209,298,o),
(253,316,o),
(285,316,cs),
(329,316,o),
(354,279,o),
(346,234,cs),
(338,187,o),
(291,154,o),
(237,154,cs),
(180,154,o),
(118,163,o),
(69,240,c),
(34,240,l),
(-5,81,l),
(37,31,o),
(133,-9,o),
(220,-9,cs),
(370,-9,o),
(498,95,o),
(524,242,cs),
(547,372,o),
(482,471,o),
(360,471,cs)
);
}
);
width = 572;
}
);
unicode = 53;
},
{
glyphname = five.tf;
layers = (
{
layerId = "067991BB-F7E6-4D77-8E89-F1D1828DD7C4";
shapes = (
{
closed = 1;
nodes = (
(256,449,o),
(201,428,o),
(155,394,c),
(244,667,l),
(538,667,l),
(541,688,l),
(230,688,l),
(131,381,l),
(153,369,l),
(197,406,o),
(253,428,o),
(307,428,cs),
(420,428,o),
(497,336,o),
(476,219,cs),
(456,105,o),
(350,11,o),
(227,11,cs),
(161,11,o),
(94,37,o),
(54,109,c),
(51,109,l),
(46,85,l),
(78,22,o),
(149,-9,o),
(223,-9,cs),
(357,-9,o),
(473,94,o),
(495,219,cs),
(517,346,o),
(436,449,o),
(312,449,cs)
);
}
);
width = 600;
},
{
layerId = "8D1CD495-8E12-4F42-9971-C31B25734418";
shapes = (
{
closed = 1;
nodes = (
(285,458,o),
(237,442,o),
(197,415,c),
(255,610,l),
(537,610,l),
(551,688,l),
(202,688,l),
(107,366,l),
(166,325,l),
(203,359,o),
(254,380,o),
(303,380,cs),
(389,380,o),
(448,317,o),
(432,224,cs),
(417,137,o),
(343,68,o),
(237,68,cs),
(171,68,o),
(96,93,o),
(57,170,c),
(50,170,l),
(24,79,l),
(61,24,o),
(143,-9,o),
(226,-9,cs),
(374,-9,o),
(484,91,o),
(508,226,cs),
(531,359,o),
(459,458,o),
(334,458,cs)
);
}
);
width = 600;
},
{
layerId = "EE06C6DC-CF8C-4948-A893-3A90CCE35999";
shapes = (
{
closed = 1;
nodes = (
(314,471,o),
(275,452,o),
(240,422,c),
(266,533,l),
(542,533,l),
(569,688,l),
(157,688,l),
(73,357,l),
(195,271,l),
(222,298,o),
(267,316,o),
(299,316,cs),
(342,316,o),
(367,279,o),
(359,234,cs),
(351,187,o),
(304,154,o),
(251,154,cs),
(194,154,o),
(131,163,o),
(82,240,c),
(46,240,l),
(8,81,l),
(51,31,o),
(146,-9,o),
(234,-9,cs),
(383,-9,o),
(512,95,o),
(538,242,cs),
(561,372,o),
(495,471,o),
(372,471,cs)
);
}
);
width = 600;
}
);
},
{
glyphname = fl;
layers = (
{
layerId = "067991BB-F7E6-4D77-8E89-F1D1828DD7C4";
shapes = (
{
closed = 1;
nodes = (
(323,500,l),
(185,500,l),
(212,651,ls),
(221,701,o),
(265,740,o),
(313,740,c),
(364,731,l),
(366,744,l),
(355,753,o),
(332,760,o),
(316,760,cs),
(258,760,o),
(203,711,o),
(192,651,cs),
(166,500,l),
(85,500,l),
(82,480,l),
(162,480,l),
(78,0,l),
(97,0,l),
(182,480,l),
(320,480,l)
);
},
{
closed = 1;
nodes = (
(518,750,l),
(386,0,l),
(405,0,l),
(537,750,l)
);
}
);
width = 558;
},
{
layerId = "8D1CD495-8E12-4F42-9971-C31B25734418";
shapes = (
{
closed = 1;
nodes = (
(351,500,l),
(223,500,l),
(243,609,ls),
(251,655,o),
(290,685,o),
(328,685,c),
(383,684,l),
(393,744,l),
(381,753,o),
(357,760,o),
(333,760,cs),
(258,760,o),
(184,698,o),
(170,619,cs),
(149,500,l),
(68,500,l),
(55,425,l),
(135,425,l),
(60,0,l),
(135,0,l),
(210,425,l),
(338,425,l)
);
},
{
closed = 1;
nodes = (
(496,750,l),
(364,0,l),
(439,0,l),
(571,750,l)
);
}
);
width = 574;
},
{
layerId = "EE06C6DC-CF8C-4948-A893-3A90CCE35999";
shapes = (
{
closed = 1;
nodes = (
(409,500,l),
(300,500,l),
(306,535,ls),
(313,575,o),
(335,600,o),
(365,600,cs),
(425,600,l),
(450,744,l),
(439,753,o),
(408,760,o),
(372,760,cs),
(262,760,o),
(151,672,o),
(131,557,cs),
(121,500,l),
(41,500,l),
(16,363,l),
(97,363,l),
(33,0,l),
(212,0,l),
(276,363,l),
(385,363,l)
);
},
{
closed = 1;
nodes = (
(517,750,l),
(384,0,l),
(562,0,l),
(694,750,l)
);
}
);
width = 677;
}
);
unicode = 64258;
},
{
glyphname = florin;
layers = (
{
layerId = "067991BB-F7E6-4D77-8E89-F1D1828DD7C4";
shapes = (
{
closed = 1;
nodes = (
(420,740,o),
(440,733,o),
(449,721,c),
(456,744,l),
(446,753,o),
(425,760,o),
(408,760,cs),
(350,760,o),
(288,713,o),
(269,653,cs),
(219,500,l),
(140,500,l),
(132,480,l),
(213,480,l),
(-26,-250,l),
(-7,-250,l),
(232,480,l),
(372,480,l),
(380,500,l),
(239,500,l),
(288,650,ls),
(304,700,o),
(356,740,o),
(404,740,cs)
);
}
);
width = 428;
},
{
layerId = "8D1CD495-8E12-4F42-9971-C31B25734418";
shapes = (
{
closed = 1;
nodes = (
(435,701,o),
(454,695,o),
(463,684,c),
(481,743,l),
(471,753,o),
(447,760,o),
(423,760,cs),
(348,760,o),
(268,699,o),
(242,620,cs),
(203,500,l),
(121,500,l),
(102,440,l),
(183,440,l),
(-43,-250,l),
(24,-250,l),
(250,440,l),
(385,440,l),
(405,500,l),
(270,500,l),
(306,611,ls),
(324,664,o),
(369,701,o),
(418,701,cs)
);
}
);
width = 436;
},
{
layerId = "EE06C6DC-CF8C-4948-A893-3A90CCE35999";
shapes = (
{
closed = 1;
nodes = (
(484,631,o),
(502,626,o),
(513,616,c),
(550,741,l),
(541,750,o),
(509,760,o),
(472,760,cs),
(364,760,o),
(250,678,o),
(212,564,cs),
(191,500,l),
(111,500,l),
(66,363,l),
(147,363,l),
(-55,-250,l),
(103,-250,l),
(305,363,l),
(431,363,l),
(475,500,l),
(350,500,l),
(362,539,ls),
(381,596,o),
(419,631,o),
(468,631,cs)
);
}
);
width = 493;
}
);
unicode = 402;
},
